SplineFontDB: 1.0
FontName: NorasiPS
FullName: NorasiPS
FamilyName: NorasiPS
Weight: Book
Copyright: The National Font Project (v.beta 1 ). Yannis Haralambous, Virach Sornlertlamvanich and Anutara Tantraporn\n\nModified by TLWG
Version: 1.1 : May 12, 2003
ItalicAngle: 0
UnderlinePosition: -100
UnderlineWidth: 50
Ascent: 800
Descent: 200
NeedsXUIDChange: 1
UniqueID: 4130844
FSType: 0
PfmFamily: 17
TTFWeight: 400
TTFWidth: 5
Panose: 2 0 5 6 0 0 0 2 0 4
LineGap: 20
VLineGap: 0
LangName: 1033 "" "" "Regular" "TheOmegaProject(v.beta1).YannisHaralambous,VirachSornlertlamvanichandAnutaraTantraporn: Omega3: 1999" "" "" "" "NECTEC" "" "Yannis Haralambous, Virach Sornlertlamvanich and Anutara Tantraporn" "This font was developed under National Font Project at NECTEC as to be a free licensed font for Thai users and developers." 
Encoding: custom
DisplaySize: -72
AntiAlias: 1
WinInfo: 0 14 10
BeginPrivate: 6
BlueValues 39 [-18 0 340 347 376 385 452 461 516 517]
OtherBlues 11 [-163 -151]
BlueScale 8 0.039625
BlueShift 1 7
BlueFuzz 1 0
ForceBold 5 false
EndPrivate
BeginChars: 258 225
StartChar: exclam
Encoding: 33 33
Width: 255
Flags: HW
HStem: -4 21<117 139> 441 20<116.5 140.5>
VStem: 93 72<406 410 410 423>
Fore
165 406 m 1
 165 410 l 2
 165 444 153 461 128 461 c 0
 105 461 93 442 93 404 c 1
 101 334 111 264 124 120 c 1
 133 120 l 1
 164 381 l 1
 165 406 l 1
167 28 m 0
 166 53 154 65 129 65 c 1
 105 62 93 50 93 28 c 0
 93 7 105 -4 129 -4 c 0
 149 -4 167 9 167 28 c 0
EndSplineSet
Back
165 406 m 1
 164 381 l 1
 133 120 l 1
 124 120 l 1
 121 156 118 188 114 215 c 0
 111 243 109 268 106 290 c 0
 104 312 102 332 100 351 c 0
 97 369 95 387 93 404 c 1
 93 442 104 461 128 461 c 0
 153 461 165 444 165 410 c 2
 165 406 l 1
167 28 m 0
 167 19 163 11 155 5 c 0
 148 -1 139 -4 129 -4 c 0
 105 -4 93 7 93 28 c 0
 93 50 105 62 129 65 c 1
 154 65 167 53 167 28 c 0
EndSplineSet
EndChar
StartChar: quotedbl
Encoding: 34 34
Width: 315
Flags: HW
HStem: 290 21<89 103 103 103 207 221 221 221> 441 20<86 105.5 204 223.5>
Fore
244 432 m 0
 243 451 233 461 214 461 c 0
 194 461 184 451 184 432 c 0
 184 424 186 407 207 290 c 1
 221 290 l 1
 224 302 227 326 234 365 c 0
 241 402 244 425 244 432 c 0
126 432 m 0
 125 451 115 461 96 461 c 0
 76 461 66 451 66 432 c 0
 66 424 68 407 89 290 c 1
 103 290 l 1
 106 302 109 326 116 365 c 0
 123 402 126 425 126 432 c 0
EndSplineSet
Back
244 432 m 0
 244 425 241 402 234 365 c 0
 230 346 228 330 226 317 c 0
 224 305 222 296 221 290 c 1
 207 290 l 1
 202 319 197 343 194 360 c 0
 191 378 189 392 188 402 c 0
 186 412 185 419 185 423 c 0
 184 427 184 430 184 432 c 0
 184 451 194 461 214 461 c 0
 233 461 243 451 244 432 c 0
126 432 m 0
 126 425 123 402 116 365 c 0
 113 346 110 330 108 317 c 0
 106 305 104 296 103 290 c 1
 89 290 l 1
 83 319 80 343 77 360 c 0
 74 378 71 392 69 402 c 0
 68 412 67 419 66 423 c 0
 66 427 66 430 66 432 c 0
 66 451 76 461 96 461 c 0
 115 461 125 451 126 432 c 0
EndSplineSet
EndChar
StartChar: numbersign
Encoding: 35 35
Width: 378
Flags: HW
HStem: 0 186<66 95 199 226> 148 38<15 88 88 88 134 220 220 220 266 334> 277 38<34 109 109 109 155 240 240 240 285 351> 277 175<149 175 280 305>
Fore
351 277 m 5
 351 315 l 5
 285 315 l 5
 305 452 l 5
 266 452 l 5
 246 315 l 5
 155 315 l 5
 175 452 l 5
 136 452 l 5
 115 315 l 5
 34 315 l 5
 34 277 l 5
 109 277 l 5
 95 186 l 5
 15 186 l 5
 15 148 l 5
 88 148 l 5
 66 0 l 5
 106 0 l 5
 128 148 l 5
 220 148 l 5
 199 0 l 5
 239 0 l 5
 259 148 l 5
 334 148 l 5
 334 186 l 5
 266 186 l 5
 280 277 l 5
 351 277 l 5
240 277 m 5
 226 186 l 5
 134 186 l 5
 149 277 l 5
 240 277 l 5
EndSplineSet
Back
351 277 m 1
 280 277 l 1
 266 186 l 1
 334 186 l 1
 334 148 l 1
 259 148 l 1
 239 0 l 1
 199 0 l 1
 220 148 l 1
 128 148 l 1
 106 0 l 1
 66 0 l 1
 88 148 l 1
 15 148 l 1
 15 186 l 1
 95 186 l 1
 109 277 l 1
 34 277 l 1
 34 315 l 1
 115 315 l 1
 136 452 l 1
 175 452 l 1
 155 315 l 1
 246 315 l 1
 266 452 l 1
 305 452 l 1
 285 315 l 1
 351 315 l 1
 351 277 l 1
240 277 m 1
 149 277 l 1
 134 186 l 1
 226 186 l 1
 240 277 l 1
EndSplineSet
EndChar
StartChar: dollar
Encoding: 36 36
Width: 386
Flags: HW
HStem: -59 21<173 197 197 197> 0 20<149.5 173> 489 20<173 197 173 173>
VStem: 43 154<36 127 36 36> 48 52<364 374.5> 172 25<285 285 285 446> 172 137<350 428> 173 24<-59 0 20 205 465 509> 277 55<88 117>
Fore
332 122 m 0
 332 155 321 183 298 206 c 1
 262 234 l 1
 197 274 l 1
 197 446 l 1
 254 440 288 408 299 350 c 1
 309 350 l 1
 309 428 l 1
 294 442 275 451 254 455 c 2
 197 465 l 1
 197 509 l 1
 173 509 l 1
 173 465 l 1
 138 465 110 456 87 437 c 0
 61 417 48 391 48 358 c 0
 48 328 61 300 87 275 c 0
 104 259 133 240 173 217 c 1
 173 20 l 1
 109 20 69 56 53 127 c 1
 43 127 l 1
 43 36 l 1
 82 12 126 0 173 0 c 1
 173 -59 l 1
 197 -59 l 1
 197 0 l 1
 287 13 332 54 332 122 c 0
172 285 m 1
 120 325 l 1
 107 340 100 356 100 372 c 0
 100 413 124 438 172 446 c 1
 172 285 l 1
277 106 m 0
 277 58 250 29 197 20 c 1
 197 205 l 1
 226 186 245 173 253 164 c 0
 269 147 277 128 277 106 c 0
EndSplineSet
Back
332 122 m 0
 332 54 287 13 197 0 c 1
 197 -59 l 1
 173 -59 l 1
 173 0 l 1
 125 0 83 12 43 36 c 1
 43 127 l 1
 53 127 l 1
 69 56 109 20 173 20 c 1
 173 217 l 1
 153 229 136 239 122 249 c 0
 107 258 96 267 87 275 c 0
 61 300 48 328 48 358 c 0
 48 391 61 417 87 437 c 0
 110 456 138 465 173 465 c 1
 173 509 l 1
 197 509 l 1
 197 465 l 1
 254 455 l 2
 275 451 293 442 309 428 c 1
 309 350 l 1
 299 350 l 1
 289 408 254 440 197 446 c 1
 197 274 l 1
 262 234 l 1
 298 206 l 1
 321 183 332 155 332 122 c 0
172 285 m 1
 172 446 l 1
 124 438 100 414 100 372 c 0
 100 356 106 340 120 325 c 1
 172 285 l 1
277 106 m 0
 277 128 269 147 253 164 c 0
 245 173 227 187 197 205 c 1
 197 20 l 1
 250 29 277 58 277 106 c 0
EndSplineSet
EndChar
StartChar: percent
Encoding: 37 37
Width: 586
Flags: HW
HStem: -7 21<143 176 176 176> 0 21<399 423> 202 24<126.5 147.5> 237 23<460.5 490.5> 453 20<418 446 418 418>
VStem: 45 53<271 291.5> 316 53<68 86.5>
Fore
446 473 m 1
 418 473 l 1
 383 442 346 426 309 426 c 0
 292 426 271 432 248 444 c 1
 227 457 210 463 195 463 c 0
 156 463 121 445 90 410 c 0
 60 375 45 338 45 297 c 0
 45 245 76 202 127 202 c 0
 168 202 203 223 232 266 c 1
 241 277 247 287 250 295 c 0
 264 324 271 354 271 384 c 1
 266 415 l 1
 275 410 291 408 312 408 c 0
 337 408 362 414 387 426 c 1
 143 -7 l 1
 176 -7 l 1
 446 473 l 1
542 183 m 0
 542 234 517 260 466 260 c 0
 428 260 393 242 362 207 c 0
 331 172 316 135 316 96 c 0
 316 40 346 0 402 0 c 0
 444 0 478 21 505 63 c 0
 530 100 542 140 542 183 c 0
253 387 m 0
 253 353 243 319 223 285 c 0
 200 246 172 226 141 226 c 0
 112 226 98 243 98 278 c 0
 98 305 108 338 128 377 c 0
 151 420 175 442 199 442 c 2
 202 441 l 1
 211 435 l 2
 222 428 234 423 247 420 c 1
 251 406 253 395 253 387 c 0
524 178 m 0
 524 145 514 112 493 79 c 0
 470 40 444 21 414 21 c 0
 384 21 369 39 369 74 c 0
 369 99 378 130 397 167 c 0
 420 214 446 237 475 237 c 0
 506 237 524 210 524 178 c 0
EndSplineSet
Back
446 473 m 1
 176 -7 l 1
 143 -7 l 1
 387 426 l 1
 362 414 337 408 312 408 c 0
 291 408 275 410 266 415 c 1
 271 384 l 1
 271 354 264 324 250 295 c 0
 247 287 241 277 232 266 c 0
 203 223 168 202 127 202 c 0
 102 202 82 211 67 230 c 0
 52 249 45 271 45 297 c 0
 45 338 60 375 90 410 c 0
 121 445 156 463 195 463 c 0
 209 463 228 457 248 444 c 1
 271 432 292 426 309 426 c 0
 346 426 383 442 418 473 c 1
 446 473 l 1
542 183 m 0
 542 140 530 100 505 63 c 0
 479 21 444 0 402 0 c 0
 374 0 353 9 338 27 c 0
 323 45 316 68 316 96 c 0
 316 135 332 172 362 207 c 0
 394 242 428 260 466 260 c 0
 517 260 542 234 542 183 c 0
253 387 m 0
 253 395 251 406 247 420 c 1
 234 423 222 428 211 435 c 2
 202 441 l 1
 199 442 l 2
 175 442 151 420 128 377 c 0
 108 338 98 305 98 278 c 0
 98 243 112 226 141 226 c 0
 172 226 200 246 223 285 c 0
 243 319 253 353 253 387 c 0
524 178 m 0
 524 194 520 208 511 220 c 0
 502 231 490 237 475 237 c 0
 446 237 419 214 397 167 c 0
 378 130 369 99 369 74 c 0
 369 39 384 21 414 21 c 0
 444 21 470 41 493 79 c 0
 514 112 524 145 524 178 c 0
EndSplineSet
EndChar
StartChar: ampersand
Encoding: 38 38
Width: 572
Flags: HW
HStem: -7 33<166.5 171> 440 21<240.5 274>
VStem: 41 63<97.5 125> 312 36<364.5 398>
Fore
525 68 m 1
 514 76 l 1
 503 61 497 53 490 50 c 0
 479 43 466 40 449 40 c 0
 435 40 424 42 415 47 c 1
 384 59 363 78 348 102 c 1
 375 134 396 169 417 205 c 1
 434 236 l 1
 445 253 455 263 464 267 c 0
 472 271 484 274 499 276 c 1
 499 291 l 1
 350 291 l 1
 350 276 l 1
 379 276 394 266 394 245 c 0
 394 216 374 175 333 122 c 1
 298 163 269 210 242 262 c 1
 277 279 300 293 312 303 c 0
 336 324 348 350 348 379 c 0
 348 430 306 461 255 461 c 0
 195 461 150 413 150 354 c 1
 157 313 l 1
 175 257 l 1
 148 242 l 2
 77 200 41 152 41 98 c 0
 41 27 83 -7 154 -7 c 0
 188 -7 220 0 251 13 c 1
 275 28 l 1
 305 53 l 1
 347 13 386 -7 421 -7 c 0
 452 -7 479 5 501 28 c 1
 513 43 522 56 525 68 c 1
312 382 m 0
 312 344 285 311 232 284 c 1
 214 320 205 352 205 380 c 0
 205 420 223 440 258 440 c 0
 290 440 312 414 312 382 c 0
289 71 m 1
 253 41 221 26 192 26 c 0
 141 26 104 72 104 123 c 0
 104 148 114 171 133 194 c 1
 153 213 l 1
 184 234 l 1
 221 163 257 110 289 71 c 1
EndSplineSet
Back
525 68 m 1
 523 62 521 56 517 49 c 0
 512 42 507 35 501 28 c 0
 479 5 452 -7 421 -7 c 0
 386 -7 347 13 305 53 c 1
 275 28 l 1
 251 13 l 1
 220 -0 188 -7 154 -7 c 0
 119 -7 91 1 71 19 c 0
 51 36 41 62 41 98 c 0
 41 152 77 200 148 242 c 2
 175 257 l 1
 157 313 l 1
 150 354 l 1
 150 369 153 382 158 396 c 0
 164 409 171 420 180 430 c 0
 189 439 201 447 213 453 c 0
 227 458 240 461 255 461 c 0
 280 461 302 454 320 439 c 0
 339 424 348 404 348 379 c 0
 348 350 336 324 312 303 c 0
 300 293 277 279 242 262 c 1
 255 236 270 211 285 188 c 0
 299 165 315 143 333 122 c 1
 374 175 394 216 394 245 c 0
 394 266 379 276 350 276 c 1
 350 291 l 1
 499 291 l 1
 499 276 l 1
 484 274 472 271 464 267 c 0
 455 263 445 252 434 236 c 1
 417 205 l 2
 406 187 396 169 384 152 c 0
 374 135 361 118 348 102 c 1
 355 90 364 79 375 70 c 0
 387 61 400 53 415 47 c 0
 424 42 435 40 449 40 c 0
 466 40 479 43 490 50 c 0
 493 51 497 54 500 59 c 0
 504 63 509 69 514 76 c 1
 525 68 l 1
312 382 m 0
 312 398 307 412 297 423 c 0
 287 435 274 440 258 440 c 0
 223 440 205 420 205 380 c 0
 205 352 214 320 232 284 c 1
 285 312 312 344 312 382 c 0
289 71 m 1
 273 90 256 113 238 141 c 0
 221 167 203 199 184 234 c 1
 153 213 l 1
 133 194 l 1
 114 171 104 147 104 123 c 0
 104 110 106 98 110 86 c 0
 115 75 121 64 129 56 c 0
 137 46 146 40 157 34 c 0
 167 29 179 26 192 26 c 0
 221 26 253 41 289 71 c 1
EndSplineSet
EndChar
StartChar: quotesingle
Encoding: 39 39
Width: 163
Flags: HW
HStem: 303 21<53 53> 453 20<75 81>
VStem: 34 97
Fore
131 406 m 0
 131 430 124 448 109 461 c 0
 98 469 87 473 75 473 c 0
 48 470 34 456 34 433 c 0
 34 410 48 398 77 398 c 2
 86 399 l 1
 94 400 l 2
 101 400 104 397 104 391 c 0
 104 366 85 341 47 316 c 1
 53 303 l 1
 72 312 89 326 105 345 c 1
 122 368 131 389 131 406 c 0
EndSplineSet
Back
131 406 m 0
 131 389 123 368 105 345 c 0
 89 326 72 312 53 303 c 1
 47 316 l 1
 85 341 104 366 104 391 c 0
 104 397 101 400 94 400 c 2
 86 399 l 1
 77 398 l 2
 48 398 34 410 34 433 c 0
 34 457 48 470 75 473 c 1
 87 473 98 469 109 461 c 0
 124 448 131 430 131 406 c 0
EndSplineSet
EndChar
StartChar: parenleft
Encoding: 40 40
Width: 257
Flags: HW
HStem: -122 21<226 226> 453 20<228 228>
VStem: 56 60 56 63
Fore
235 -111 m 1
 183 -77 148 -27 130 40 c 0
 123 65 120 86 119 105 c 1
 116 188 l 1
 113 260 127 323 156 377 c 0
 172 405 198 433 235 462 c 1
 228 473 l 1
 113 402 56 306 56 183 c 0
 56 138 61 99 72 67 c 0
 76 54 82 42 89 27 c 0
 126 -44 172 -93 226 -122 c 1
 235 -111 l 1
EndSplineSet
Back
235 -111 m 1
 226 -122 l 1
 172 -93 126 -43 89 27 c 0
 85 34 83 41 80 47 c 0
 77 54 74 61 72 67 c 0
 62 99 56 138 56 183 c 0
 56 306 113 402 228 473 c 1
 235 462 l 1
 198 433 172 405 156 377 c 0
 126 323 113 260 116 188 c 2
 119 105 l 1
 120 96 121 85 123 75 c 0
 124 64 126 53 130 40 c 0
 148 -27 183 -77 235 -111 c 1
EndSplineSet
EndChar
StartChar: parenright
Encoding: 41 41
Width: 257
Flags: HW
HStem: -122 21<49 49> 453 20<51 51>
VStem: 161 60<139.5 192.5>
Fore
221 166 m 0
 221 229 206 287 176 342 c 0
 145 401 104 444 51 473 c 1
 42 462 l 1
 93 428 128 377 147 309 c 0
 156 273 161 224 161 161 c 0
 161 118 158 83 151 56 c 0
 135 -16 106 -60 42 -111 c 1
 49 -122 l 1
 157 -58 221 45 221 166 c 0
EndSplineSet
Back
221 166 m 0
 221 105 206 50 175 0 c 0
 145 -49 103 -90 49 -122 c 1
 42 -111 l 1
 58 -98 72 -86 84 -74 c 0
 96 -61 106 -48 114 -36 c 0
 123 -22 130 -8 136 6 c 0
 142 21 147 38 151 56 c 0
 158 83 161 118 161 161 c 0
 161 224 156 273 147 309 c 0
 128 377 93 428 42 462 c 1
 51 473 l 1
 104 444 146 401 176 342 c 0
 206 287 221 229 221 166 c 0
EndSplineSet
EndChar
StartChar: asterisk
Encoding: 42 42
Width: 386
Flags: HW
HStem: 185 21<188 196> 453 20<190.5 207>
VStem: 70 134
Fore
324 270 m 0
 324 285 313 295 291 300 c 2
 245 311 l 1
 215 325 l 1
 210 329 l 1
 226 341 246 350 271 355 c 2
 310 364 l 1
 319 369 324 378 324 390 c 0
 324 407 315 415 298 415 c 0
 289 415 277 406 261 388 c 0
 242 367 224 351 209 342 c 2
 204 339 l 1
 204 357 l 2
 204 365 207 382 214 408 c 1
 223 446 l 1
 223 464 215 473 199 473 c 0
 182 473 173 464 173 446 c 0
 173 437 176 421 182 399 c 0
 188 378 191 362 191 349 c 2
 191 340 l 1
 169 351 148 368 129 391 c 0
 116 406 104 414 93 414 c 0
 86 413 80 411 76 407 c 0
 72 401 70 395 70 390 c 0
 70 376 84 365 113 356 c 0
 154 345 175 338 178 335 c 2
 186 330 l 1
 170 320 143 310 106 300 c 0
 82 294 70 283 70 268 c 0
 70 253 78 246 94 246 c 0
 103 246 111 249 119 255 c 1
 137 276 l 1
 157 296 l 1
 190 319 l 1
 191 314 l 1
 191 301 l 2
 191 294 188 277 181 251 c 1
 172 213 l 1
 172 194 180 185 196 185 c 1
 215 188 224 198 224 215 c 1
 214 246 l 1
 207 265 204 288 204 314 c 2
 204 319 l 1
 209 317 l 2
 220 312 237 299 258 276 c 0
 277 255 290 245 299 245 c 0
 316 245 324 253 324 270 c 0
EndSplineSet
Back
324 270 m 0
 324 253 315 245 299 245 c 0
 291 245 277 255 258 276 c 0
 248 287 238 296 229 303 c 0
 221 310 214 314 209 317 c 2
 204 319 l 1
 204 314 l 2
 204 288 208 265 214 246 c 2
 224 215 l 1
 224 198 215 188 196 185 c 1
 180 185 172 194 172 213 c 1
 181 251 l 1
 188 277 191 293 191 301 c 2
 191 314 l 1
 190 319 l 1
 157 296 l 1
 137 276 l 1
 119 255 l 1
 111 249 103 246 94 246 c 0
 78 246 70 253 70 268 c 0
 70 283 82 294 106 300 c 0
 144 310 170 320 186 330 c 1
 178 335 l 2
 175 338 154 345 113 356 c 0
 84 365 70 376 70 390 c 0
 70 396 72 401 76 407 c 0
 80 411 85 414 93 414 c 0
 104 414 116 406 129 391 c 0
 148 368 169 351 191 340 c 1
 191 349 l 2
 191 362 188 378 182 399 c 0
 176 421 173 437 173 446 c 0
 173 464 182 473 199 473 c 0
 215 473 223 464 223 446 c 1
 214 408 l 1
 208 382 204 365 204 357 c 2
 204 339 l 1
 209 342 l 2
 224 352 242 367 261 388 c 0
 277 406 290 415 298 415 c 0
 315 415 324 407 324 390 c 0
 324 378 319 369 310 364 c 1
 271 355 l 2
 246 350 226 341 210 329 c 1
 215 325 l 1
 245 311 l 1
 291 300 l 2
 313 295 324 285 324 270 c 0
EndSplineSet
EndChar
StartChar: plus
Encoding: 43 43
Width: 436
Flags: HW
HStem: 0 21<202 237 237 237> 160 35<43 202 237 396> 334 20<202 237 202 202>
VStem: 202 35<0 160 195 354>
Fore
396 160 m 1
 396 195 l 1
 237 195 l 1
 237 354 l 1
 202 354 l 1
 202 195 l 1
 43 195 l 1
 43 160 l 1
 202 160 l 1
 202 0 l 1
 237 0 l 1
 237 160 l 1
 396 160 l 1
EndSplineSet
Back
396 160 m 1
 237 160 l 1
 237 0 l 1
 202 0 l 1
 202 160 l 1
 43 160 l 1
 43 195 l 1
 202 195 l 1
 202 354 l 1
 237 354 l 1
 237 195 l 1
 396 195 l 1
 396 160 l 1
EndSplineSet
EndChar
StartChar: comma
Encoding: 44 44
Width: 174
Flags: HW
HStem: -97 21<60 60> -2 21<70.5 85> 0 21<101 104.5> 51 20<68.5 100>
Fore
138 4 m 0
 138 41 118 71 82 71 c 0
 55 71 41 58 41 31 c 0
 41 9 56 -2 85 -2 c 2
 93 -1 l 1
 101 0 l 2
 108 0 111 -3 111 -9 c 0
 111 -34 92 -59 54 -83 c 1
 60 -97 l 1
 78 -90 95 -76 112 -54 c 0
 129 -31 138 -11 138 4 c 0
EndSplineSet
Back
138 4 m 0
 138 -11 129 -31 112 -54 c 0
 95 -76 78 -90 60 -97 c 1
 54 -83 l 1
 92 -59 111 -34 111 -9 c 0
 111 -3 108 0 101 0 c 2
 93 -1 l 1
 85 -2 l 2
 56 -2 41 9 41 31 c 0
 41 58 55 71 82 71 c 0
 100 71 114 64 124 51 c 0
 133 39 138 22 138 4 c 0
EndSplineSet
EndChar
StartChar: hyphen
Encoding: 45 45
Width: 270
Flags: HW
HStem: 129 33<26 243>
Fore
243 129 m 1
 243 162 l 1
 26 162 l 1
 26 129 l 1
 243 129 l 1
EndSplineSet
Back
243 129 m 1
 26 129 l 1
 26 162 l 1
 243 162 l 1
 243 129 l 1
EndSplineSet
EndChar
StartChar: period
Encoding: 46 46
Width: 193
Flags: HW
HStem: -6 21<89 109> 50 20<88.5 109>
Fore
139 30 m 0
 139 50 119 70 99 70 c 0
 78 70 61 51 61 30 c 0
 61 10 79 -6 99 -6 c 0
 119 -6 139 10 139 30 c 0
EndSplineSet
Back
139 30 m 0
 139 20 135 12 126 4 c 0
 118 -2 109 -6 99 -6 c 0
 89 -6 80 -2 72 4 c 0
 65 12 61 20 61 30 c 0
 61 41 64 50 72 58 c 0
 79 66 88 70 99 70 c 0
 109 70 118 66 126 58 c 0
 135 49 139 40 139 30 c 0
EndSplineSet
EndChar
StartChar: slash
Encoding: 47 47
Width: 232
Flags: HW
HStem: -121 21<0 36 36 36> 453 20<196 233 196 196>
Fore
233 473 m 1
 196 473 l 1
 0 -121 l 1
 36 -121 l 1
 233 473 l 1
EndSplineSet
Back
233 473 m 1
 36 -121 l 1
 0 -121 l 1
 196 473 l 1
 233 473 l 1
EndSplineSet
EndChar
StartChar: zero
Encoding: 48 48
Width: 378
Flags: HW
HStem: -8 21<130.5 216> 441 20<130.5 216>
VStem: 34 65<174.5 276.5> 277 65<197 254.5>
Fore
342 226 m 0
 342 283 332 332 312 374 c 0
 285 432 244 461 188 461 c 0
 73 461 34 327 34 226 c 0
 34 123 73 -8 188 -8 c 0
 244 -8 285 20 312 77 c 0
 332 118 342 168 342 226 c 0
277 226 m 0
 277 81 247 8 188 8 c 0
 129 8 99 81 99 226 c 0
 99 371 129 444 188 444 c 0
 247 444 277 371 277 226 c 0
EndSplineSet
Back
342 226 m 0
 342 168 332 118 312 77 c 0
 285 21 244 -8 188 -8 c 0
 159 -8 135 -0 116 14 c 0
 96 29 80 47 68 70 c 0
 56 93 47 119 42 146 c 0
 37 173 34 200 34 226 c 0
 34 251 37 278 42 306 c 0
 47 333 56 358 68 381 c 0
 80 404 96 423 116 438 c 0
 135 454 159 461 188 461 c 0
 244 461 285 432 312 374 c 0
 332 332 342 283 342 226 c 0
277 226 m 0
 277 371 248 444 188 444 c 0
 129 444 99 371 99 226 c 0
 99 81 129 8 188 8 c 0
 248 8 277 81 277 226 c 0
EndSplineSet
EndChar
StartChar: one
Encoding: 49 49
Width: 381
Flags: HW
HStem: 0 21<105 293 293 293> 441 20<222 222>
VStem: 169 59<51 63 63 372>
Fore
293 0 m 1
 293 10 l 1
 270 10 255 11 247 14 c 0
 234 19 228 32 228 51 c 2
 228 460 l 1
 222 461 l 1
 100 398 l 1
 100 390 l 1
 128 399 143 404 146 404 c 0
 161 404 169 393 169 372 c 2
 169 63 l 2
 169 20 152 10 105 10 c 1
 105 0 l 1
 293 0 l 1
EndSplineSet
Back
293 0 m 1
 105 0 l 1
 105 10 l 1
 128 10 145 14 154 21 c 0
 164 27 169 42 169 63 c 2
 169 372 l 2
 169 394 161 404 146 404 c 0
 144 404 128 399 100 390 c 1
 100 398 l 1
 222 461 l 1
 228 460 l 1
 228 51 l 2
 228 32 234 20 247 14 c 0
 255 11 271 10 293 10 c 1
 293 0 l 1
EndSplineSet
EndChar
StartChar: two
Encoding: 50 50
Width: 378
Flags: HW
HStem: 0 51<110 273> 411 50<147 187>
VStem: 254 58<313.5 345>
Fore
346 93 m 1
 337 96 l 1
 327 78 319 67 312 62 c 0
 303 55 290 51 273 51 c 2
 110 51 l 1
 225 172 l 2
 283 233 312 289 312 338 c 0
 312 410 258 461 189 461 c 0
 105 461 57 409 44 325 c 1
 58 321 l 1
 69 348 79 368 90 381 c 0
 106 401 128 411 155 411 c 0
 219 411 254 377 254 313 c 0
 254 258 224 200 165 138 c 2
 43 8 l 1
 43 0 l 1
 309 0 l 1
 346 93 l 1
EndSplineSet
Back
346 93 m 1
 309 0 l 1
 43 0 l 1
 43 8 l 1
 165 138 l 2
 224 200 254 258 254 313 c 0
 254 345 246 369 229 386 c 0
 211 403 187 411 155 411 c 0
 127 411 106 401 90 381 c 0
 79 368 69 348 58 321 c 1
 44 325 l 1
 51 367 66 400 90 424 c 0
 114 449 147 461 189 461 c 0
 207 461 223 458 237 452 c 0
 252 446 266 438 276 426 c 0
 288 416 296 402 303 388 c 0
 309 373 312 356 312 338 c 0
 312 289 283 233 225 172 c 2
 110 51 l 1
 273 51 l 2
 290 51 303 55 312 62 c 0
 319 67 327 78 337 96 c 1
 346 93 l 1
EndSplineSet
EndChar
StartChar: three
Encoding: 51 51
Width: 379
Flags: HW
HStem: -8 22 420 41<154.5 187>
VStem: 240 54<352.5 370.5> 268 49<121.5 128>
Fore
317 147 m 0
 317 187 306 218 284 240 c 0
 272 252 254 263 231 274 c 1
 273 303 294 335 294 370 c 0
 294 429 248 461 188 461 c 0
 121 461 76 424 53 351 c 1
 64 348 l 1
 90 396 124 420 165 420 c 0
 209 420 240 392 240 349 c 0
 240 296 202 258 126 234 c 1
 127 225 l 1
 200 225 243 204 258 163 c 1
 265 150 268 136 268 120 c 0
 268 91 260 66 244 47 c 1
 228 25 205 14 176 14 c 0
 165 14 147 21 124 34 c 0
 103 47 87 53 78 53 c 0
 61 53 52 45 52 29 c 0
 52 14 63 4 84 -1 c 1
 93 -6 108 -8 128 -8 c 0
 179 -8 223 4 259 29 c 0
 298 57 317 96 317 147 c 0
EndSplineSet
Back
317 147 m 0
 317 96 298 57 259 29 c 0
 223 4 179 -8 128 -8 c 0
 108 -8 93 -6 84 -1 c 1
 62 4 52 14 52 29 c 0
 52 45 61 53 78 53 c 0
 87 53 103 47 124 34 c 0
 147 21 165 14 176 14 c 0
 206 14 228 25 244 47 c 1
 260 66 268 91 268 120 c 0
 268 136 265 150 258 163 c 1
 243 204 200 225 127 225 c 1
 126 234 l 1
 202 258 240 296 240 349 c 0
 240 370 233 388 219 400 c 0
 205 414 187 420 165 420 c 0
 124 420 90 396 64 348 c 1
 53 351 l 1
 76 424 121 461 188 461 c 0
 218 461 243 453 264 438 c 0
 284 422 294 399 294 370 c 0
 294 334 273 303 231 274 c 1
 254 263 272 252 284 240 c 0
 306 218 317 187 317 147 c 0
EndSplineSet
EndChar
StartChar: four
Encoding: 52 52
Width: 371
Flags: HW
HStem: 0 21<218 270 270 270> 112 43<57 217 270 337> 432 20<240 270 240 240>
VStem: 217 53<155 382> 218 52<0 112>
Fore
337 112 m 1
 337 155 l 1
 270 155 l 1
 270 452 l 1
 240 452 l 1
 30 155 l 1
 30 112 l 1
 218 112 l 1
 218 0 l 1
 270 0 l 1
 270 112 l 1
 337 112 l 1
217 155 m 1
 57 155 l 1
 217 382 l 1
 217 155 l 1
EndSplineSet
Back
337 112 m 1
 270 112 l 1
 270 0 l 1
 218 0 l 1
 218 112 l 1
 30 112 l 1
 30 155 l 1
 240 452 l 1
 270 452 l 1
 270 155 l 1
 337 155 l 1
 337 112 l 1
217 155 m 1
 217 382 l 1
 57 155 l 1
 217 155 l 1
EndSplineSet
EndChar
StartChar: five
Encoding: 53 53
Width: 380
Flags: HW
HStem: -8 24 282 171 400 53<152 286 286 290> 452 20<322 322>
VStem: 271 49<128.5 162.5>
Fore
328 467 m 1
 322 472 l 1
 312 459 301 453 290 453 c 2
 147 453 l 1
 72 291 l 1
 71 285 73 282 77 282 c 0
 121 282 163 271 202 250 c 0
 248 224 271 187 271 138 c 0
 271 107 263 79 248 56 c 0
 230 29 206 16 177 16 c 0
 166 16 151 23 130 36 c 1
 109 51 92 58 77 58 c 0
 58 58 49 49 49 31 c 0
 49 5 78 -8 137 -8 c 0
 186 -8 229 6 265 34 c 0
 302 64 320 104 320 153 c 0
 320 181 317 204 312 222 c 1
 302 243 l 1
 282 270 l 1
 257 306 204 330 123 342 c 1
 152 400 l 1
 286 400 l 2
 295 400 300 402 302 406 c 2
 328 467 l 1
EndSplineSet
Back
328 467 m 1
 302 406 l 2
 300 402 294 400 286 400 c 2
 152 400 l 1
 123 342 l 1
 204 330 257 306 282 270 c 1
 302 243 l 1
 312 222 l 1
 317 204 320 181 320 153 c 0
 320 104 302 64 265 34 c 0
 229 6 187 -8 137 -8 c 0
 78 -8 49 5 49 31 c 0
 49 49 58 58 77 58 c 0
 92 58 109 51 130 36 c 0
 151 22 167 16 177 16 c 0
 207 16 230 29 248 56 c 0
 263 79 271 106 271 138 c 0
 271 187 248 224 202 250 c 0
 163 271 121 282 77 282 c 0
 73 282 71 285 72 291 c 1
 147 453 l 1
 290 453 l 2
 301 453 312 459 322 472 c 1
 328 467 l 1
EndSplineSet
EndChar
StartChar: six
Encoding: 54 54
Width: 374
Flags: HW
HStem: -8 21<133.5 235.5> 441 20<244 318>
VStem: 273 60<103 165.5>
Fore
333 147 m 0
 333 227 287 288 210 288 c 0
 196 288 181 286 165 281 c 1
 120 258 l 1
 140 362 212 431 320 450 c 1
 318 461 l 1
 170 461 41 341 41 196 c 0
 41 96 78 -8 189 -8 c 0
 282 -8 333 59 333 147 c 0
273 120 m 0
 273 63 255 10 199 10 c 0
 122 10 107 105 107 172 c 0
 107 203 113 224 117 237 c 1
 131 250 152 257 180 257 c 0
 242 257 273 211 273 120 c 0
EndSplineSet
Back
333 147 m 0
 333 125 330 104 324 85 c 0
 317 66 308 50 296 37 c 0
 284 23 269 12 251 4 c 0
 233 -4 212 -8 189 -8 c 0
 161 -8 138 -2 119 10 c 0
 100 22 85 38 74 57 c 0
 62 76 54 97 48 122 c 0
 43 146 41 171 41 196 c 0
 41 232 48 266 63 298 c 0
 79 331 99 359 124 383 c 0
 149 407 179 426 212 440 c 0
 246 454 281 461 318 461 c 1
 320 450 l 1
 266 440 222 419 187 386 c 0
 152 353 130 310 120 258 c 1
 165 281 l 1
 181 286 196 288 210 288 c 0
 229 288 247 284 262 277 c 0
 277 270 290 260 300 248 c 0
 311 235 319 220 325 203 c 0
 330 186 333 167 333 147 c 0
273 120 m 0
 273 211 242 257 180 257 c 0
 152 257 131 250 117 237 c 1
 115 230 113 222 110 211 c 0
 108 200 107 188 107 172 c 0
 107 155 108 138 110 119 c 0
 113 100 117 82 124 66 c 0
 131 50 140 37 152 26 c 0
 164 15 180 10 199 10 c 0
 213 10 225 13 234 19 c 0
 243 25 251 33 257 43 c 0
 263 54 267 65 270 79 c 0
 272 92 273 106 273 120 c 0
EndSplineSet
EndChar
StartChar: seven
Encoding: 55 55
Width: 380
Flags: HW
HStem: -4 21<140 185 185 185> 403 50<127 276 276 276>
Fore
330 442 m 1
 330 453 l 1
 76 453 l 1
 36 352 l 1
 48 347 l 1
 61 370 72 384 79 389 c 0
 92 398 108 403 127 403 c 2
 276 403 l 1
 140 -4 l 1
 185 -4 l 1
 330 442 l 1
EndSplineSet
Back
330 442 m 1
 185 -4 l 1
 140 -4 l 1
 276 403 l 1
 127 403 l 2
 108 403 92 398 79 389 c 0
 72 384 62 370 48 347 c 1
 36 352 l 1
 76 453 l 1
 330 453 l 1
 330 442 l 1
EndSplineSet
EndChar
StartChar: eight
Encoding: 56 56
Width: 373
Flags: HW
HStem: -8 21<151.5 221> 441 20<155 218>
VStem: 109 158<78 98> 111 146<355.5 378.5> 257 47<354.5 378.5> 267 50<64 98>
Fore
317 102 m 0
 317 180 275 200 214 253 c 1
 266 282 304 309 304 365 c 0
 304 432 249 461 187 461 c 0
 123 461 62 420 62 356 c 0
 62 291 94 279 145 226 c 1
 89 178 58 165 58 99 c 0
 58 31 118 -8 185 -8 c 0
 257 -8 317 26 317 102 c 0
257 368 m 0
 257 341 250 319 235 300 c 1
 219 284 l 1
 195 265 l 1
 139 302 111 338 111 373 c 0
 111 416 142 443 183 443 c 0
 207 443 226 435 240 419 c 0
 251 406 257 389 257 368 c 0
267 86 m 0
 267 42 236 10 193 10 c 0
 140 10 109 50 109 106 c 0
 109 133 115 157 128 176 c 1
 142 193 l 1
 162 212 l 1
 205 181 232 160 244 147 c 0
 259 130 267 110 267 86 c 0
EndSplineSet
Back
317 102 m 0
 317 83 313 67 307 53 c 0
 299 39 290 27 278 19 c 0
 266 9 252 3 236 -1 c 0
 220 -6 203 -8 185 -8 c 0
 168 -8 152 -6 137 -1 c 0
 122 4 108 11 97 20 c 0
 85 29 76 41 68 54 c 0
 62 67 58 83 58 99 c 0
 58 116 60 129 63 140 c 0
 67 151 73 160 81 169 c 0
 88 178 97 187 108 195 c 0
 119 204 131 214 145 226 c 1
 132 239 121 250 110 259 c 0
 100 269 91 277 84 287 c 0
 78 295 72 305 68 316 c 0
 64 327 62 340 62 356 c 0
 62 372 65 387 72 399 c 0
 80 413 89 423 101 433 c 0
 112 441 125 449 141 454 c 0
 155 458 171 461 187 461 c 0
 202 461 217 459 231 456 c 0
 246 452 258 446 269 438 c 0
 280 430 288 420 294 408 c 0
 301 396 304 382 304 365 c 0
 304 337 295 315 278 299 c 0
 262 283 240 268 214 253 c 1
 229 240 243 228 255 218 c 0
 268 208 279 198 288 187 c 0
 297 176 305 165 310 151 c 0
 314 139 317 122 317 102 c 0
257 368 m 0
 257 389 251 406 240 419 c 0
 226 435 207 443 183 443 c 0
 162 443 145 437 131 424 c 0
 118 411 111 395 111 373 c 0
 111 338 139 302 195 265 c 1
 219 284 l 1
 235 300 l 1
 250 319 257 341 257 368 c 0
267 86 m 0
 267 110 259 130 244 147 c 0
 232 160 205 181 162 212 c 1
 142 193 l 1
 128 176 l 1
 115 157 109 133 109 106 c 0
 109 78 116 55 131 37 c 0
 146 19 167 10 193 10 c 0
 214 10 232 17 246 32 c 0
 260 46 267 64 267 86 c 0
EndSplineSet
EndChar
StartChar: nine
Encoding: 57 57
Width: 379
Flags: HW
HStem: -13 21<63 102> 162 29<177.5 185.5> 441 20<164 210.5>
VStem: 43 62<305 319.5> 269 67<235.5 242 242 269>
Fore
336 270 m 0
 336 320 324 363 300 399 c 0
 273 440 235 461 186 461 c 0
 142 461 106 446 79 411 c 0
 55 381 43 343 43 296 c 0
 43 258 54 227 75 202 c 0
 98 175 128 162 166 162 c 0
 205 162 238 174 267 198 c 1
 243 98 166 13 61 0 c 1
 63 -13 l 1
 141 -13 208 17 264 78 c 0
 312 129 336 193 336 270 c 0
269 242 m 2
 269 229 266 219 259 214 c 0
 238 199 216 191 193 191 c 0
 162 191 138 206 123 236 c 0
 111 258 105 287 105 323 c 0
 105 403 130 443 179 443 c 0
 239 443 269 385 269 269 c 2
 269 242 l 2
EndSplineSet
Back
336 270 m 0
 336 193 312 129 264 78 c 0
 208 17 141 -13 63 -13 c 1
 61 0 l 1
 87 3 111 11 134 22 c 0
 157 33 177 48 194 66 c 0
 212 84 227 104 239 127 c 0
 252 150 261 173 267 198 c 1
 238 174 205 162 166 162 c 0
 128 162 98 175 75 202 c 0
 54 227 43 258 43 296 c 0
 43 343 55 381 79 411 c 0
 92 428 108 441 126 449 c 0
 144 457 164 461 186 461 c 0
 235 461 272 440 300 399 c 0
 324 363 336 320 336 270 c 0
269 242 m 2
 269 269 l 2
 269 385 239 443 179 443 c 0
 130 443 105 403 105 323 c 0
 105 287 111 258 123 236 c 0
 138 206 162 191 193 191 c 0
 216 191 238 199 259 214 c 0
 266 219 269 229 269 242 c 2
EndSplineSet
EndChar
StartChar: colon
Encoding: 58 58
Width: 215
Flags: HW
HStem: -6 21<97 117.5> 301 20<107 117.5>
VStem: 69 77<20 40.5 271 291.5>
Fore
146 281 m 0
 146 302 128 321 107 321 c 1
 82 318 69 304 69 281 c 0
 69 261 87 244 107 244 c 0
 133 244 146 256 146 281 c 0
146 30 m 0
 146 51 128 70 107 70 c 0
 86 70 69 51 69 30 c 0
 69 10 87 -6 107 -6 c 0
 128 -6 146 9 146 30 c 0
EndSplineSet
Back
146 281 m 0
 146 256 133 244 107 244 c 0
 97 244 88 248 81 255 c 0
 73 262 69 271 69 281 c 0
 69 304 82 318 107 321 c 0
 118 321 127 317 134 309 c 0
 142 301 146 292 146 281 c 0
146 30 m 0
 146 20 142 11 134 4 c 0
 127 -2 118 -6 107 -6 c 0
 97 -6 88 -2 81 4 c 0
 73 12 69 20 69 30 c 0
 69 41 73 50 80 58 c 0
 87 66 96 70 107 70 c 0
 118 70 127 66 134 58 c 0
 142 50 146 41 146 30 c 0
EndSplineSet
EndChar
StartChar: semicolon
Encoding: 59 59
Width: 215
Flags: HW
HStem: -97 21<87 87> -2 21<96.5 111> 0 21<128 131.5> 71 173<97 120> 301 20<107 117.5>
VStem: 68 97<20 26.5>
Fore
146 281 m 0
 146 302 128 321 107 321 c 1
 82 318 69 304 69 281 c 0
 69 261 87 244 107 244 c 0
 133 244 146 256 146 281 c 0
165 4 m 0
 165 49 146 71 109 71 c 0
 82 71 68 58 68 31 c 0
 68 9 82 -2 111 -2 c 2
 120 -1 l 1
 128 0 l 2
 135 0 138 -3 138 -9 c 0
 138 -34 119 -59 81 -83 c 1
 87 -97 l 1
 95 -94 102 -89 109 -84 c 1
 134 -60 l 2
 155 -40 165 -19 165 4 c 0
EndSplineSet
Back
146 281 m 0
 146 256 133 244 107 244 c 0
 97 244 88 248 81 255 c 0
 73 262 69 271 69 281 c 0
 69 304 82 318 107 321 c 0
 118 321 127 317 134 309 c 0
 142 301 146 292 146 281 c 0
165 4 m 0
 165 -19 155 -40 134 -60 c 2
 109 -84 l 2
 105 -86 102 -89 99 -91 c 0
 95 -94 91 -96 87 -97 c 1
 81 -83 l 1
 119 -59 138 -34 138 -9 c 0
 138 -3 135 0 128 0 c 2
 120 -1 l 1
 111 -2 l 2
 83 -2 68 9 68 31 c 0
 68 58 82 71 109 71 c 0
 146 71 165 49 165 4 c 0
EndSplineSet
EndChar
StartChar: less
Encoding: 60 60
Width: 436
Flags: HW
HStem: -4 21<397 397> 340 20<397 397>
Fore
397 -4 m 1
 397 34 l 1
 80 178 l 1
 397 321 l 1
 397 360 l 1
 42 199 l 1
 42 155 l 1
 397 -4 l 1
EndSplineSet
Back
397 -4 m 1
 42 155 l 1
 42 199 l 1
 397 360 l 1
 397 321 l 1
 80 178 l 1
 397 34 l 1
 397 -4 l 1
EndSplineSet
EndChar
StartChar: equal
Encoding: 61 61
Width: 436
Flags: HW
HStem: 90 35<43 396> 230 35<43 396>
Fore
396 230 m 1
 396 265 l 1
 43 265 l 1
 43 230 l 1
 396 230 l 1
396 90 m 1
 396 125 l 1
 43 125 l 1
 43 90 l 1
 396 90 l 1
EndSplineSet
Back
396 230 m 1
 43 230 l 1
 43 265 l 1
 396 265 l 1
 396 230 l 1
396 90 m 1
 43 90 l 1
 43 125 l 1
 396 125 l 1
 396 90 l 1
EndSplineSet
EndChar
StartChar: greater
Encoding: 62 62
Width: 436
Flags: HW
HStem: -4 21<42 42> 340 20<42 42>
Fore
397 155 m 1
 397 199 l 1
 42 360 l 1
 42 321 l 1
 359 178 l 1
 42 34 l 1
 42 -4 l 1
 397 155 l 1
EndSplineSet
Back
397 155 m 1
 42 -4 l 1
 42 34 l 1
 359 178 l 1
 42 321 l 1
 42 360 l 1
 397 199 l 1
 397 155 l 1
EndSplineSet
EndChar
StartChar: question
Encoding: 63 63
Width: 342
Flags: HW
HStem: -5 21 453 20<133.5 173.5>
VStem: 227 65<349.5 371>
Fore
292 357 m 0
 292 385 284 410 267 433 c 1
 247 449 l 1
 223 461 l 1
 202 469 183 473 164 473 c 0
 103 473 50 432 50 372 c 0
 50 343 62 328 85 328 c 0
 104 328 113 338 112 357 c 0
 112 365 107 375 98 386 c 0
 89 397 85 404 85 409 c 0
 85 420 92 430 106 440 c 1
 121 448 136 452 150 452 c 0
 199 452 227 414 227 363 c 0
 227 336 218 302 201 259 c 1
 182 214 l 2
 168 181 161 148 161 115 c 1
 173 115 l 1
 180 151 188 175 195 187 c 2
 213 216 l 1
 239 248 l 2
 274 291 292 328 292 357 c 0
206 30 m 0
 206 50 188 68 168 68 c 1
 143 65 131 53 131 30 c 0
 131 7 143 -5 168 -4 c 0
 188 -3 206 10 206 30 c 0
EndSplineSet
Back
292 357 m 0
 292 328 274 292 239 248 c 2
 213 216 l 1
 195 187 l 2
 192 181 188 172 184 160 c 0
 180 148 176 133 173 115 c 1
 161 115 l 1
 161 148 168 181 182 214 c 2
 201 259 l 2
 218 302 227 336 227 363 c 0
 227 388 220 410 207 426 c 0
 194 443 175 452 150 452 c 0
 136 452 121 448 106 440 c 1
 92 430 85 419 85 409 c 0
 85 404 89 396 98 386 c 0
 107 375 112 365 112 357 c 0
 113 338 104 328 85 328 c 0
 62 328 50 343 50 372 c 0
 50 387 53 401 59 414 c 0
 65 426 73 437 84 445 c 0
 95 454 107 460 121 465 c 0
 134 471 148 473 164 473 c 0
 183 473 202 469 223 461 c 1
 247 449 l 1
 267 433 l 1
 284 410 292 385 292 357 c 0
206 30 m 0
 206 20 202 12 194 6 c 0
 187 0 178 -3 168 -4 c 0
 144 -5 131 7 131 30 c 0
 131 53 144 65 168 68 c 0
 178 68 187 64 194 57 c 0
 202 49 206 40 206 30 c 0
EndSplineSet
EndChar
StartChar: at
Encoding: 64 64
Width: 554
Flags: HW
HStem: -8 24<259 319.5> 98 30 317 30<311.5 318> 440 21<257 322.5>
VStem: 43 58<187 249.5> 184 47<166 198.5> 489 27<239.5 290.5>
Fore
516 260 m 0
 516 321 493 370 448 407 c 0
 404 443 352 461 293 461 c 0
 221 461 161 438 114 391 c 0
 67 344 43 285 43 214 c 0
 43 160 63 111 104 68 c 0
 153 17 218 -8 300 -8 c 0
 339 -8 385 5 442 29 c 1
 434 50 l 1
 387 27 342 16 299 16 c 0
 192 16 101 99 101 208 c 0
 101 332 162 440 293 440 c 0
 391 440 489 362 489 259 c 0
 489 208 459 120 400 120 c 0
 383 120 375 129 375 147 c 1
 376 164 l 1
 421 337 l 1
 373 337 l 1
 366 311 l 1
 357 328 347 339 336 344 c 1
 318 347 l 1
 276 347 242 326 216 283 c 1
 193 248 184 215 184 183 c 0
 184 126 206 98 249 98 c 1
 268 100 285 107 300 119 c 2
 315 132 l 1
 329 146 l 1
 329 137 333 128 342 119 c 1
 354 104 370 97 389 97 c 0
 428 97 459 115 484 152 c 0
 505 183 516 219 516 260 c 0
354 272 m 1
 351 244 345 215 332 186 c 0
 315 147 296 128 274 128 c 0
 245 128 231 147 231 185 c 0
 231 212 240 240 257 269 c 0
 275 301 298 317 325 317 c 0
 344 317 354 302 354 272 c 1
EndSplineSet
Back
516 260 m 0
 516 219 505 183 484 152 c 0
 459 115 428 97 389 97 c 0
 370 97 354 104 342 119 c 0
 333 127 329 137 329 146 c 1
 315 132 l 1
 300 119 l 2
 285 107 269 100 249 98 c 1
 206 98 184 126 184 183 c 0
 184 199 187 215 191 232 c 0
 196 249 205 266 216 283 c 0
 242 326 276 347 318 347 c 1
 336 344 l 1
 347 339 357 328 366 311 c 1
 373 337 l 1
 421 337 l 1
 376 164 l 1
 375 147 l 1
 375 129 383 120 400 120 c 0
 415 120 428 125 438 134 c 0
 450 144 459 156 466 170 c 0
 474 185 480 200 483 216 c 0
 487 232 489 246 489 259 c 0
 489 285 483 309 472 331 c 0
 460 353 446 372 428 388 c 0
 409 404 388 417 365 426 c 0
 342 436 318 440 293 440 c 0
 260 440 232 434 208 421 c 0
 184 408 164 392 148 371 c 0
 132 350 120 325 112 297 c 0
 105 269 101 239 101 208 c 0
 101 181 106 155 117 132 c 0
 127 109 142 88 160 71 c 0
 178 54 199 40 223 30 c 0
 247 21 272 16 299 16 c 0
 342 16 387 27 434 50 c 1
 442 29 l 1
 414 17 387 8 364 1 c 0
 341 -5 319 -8 300 -8 c 0
 218 -8 153 17 104 68 c 0
 63 111 43 160 43 214 c 0
 43 285 67 344 114 391 c 0
 161 438 221 461 293 461 c 0
 353 461 404 443 448 407 c 0
 493 370 516 321 516 260 c 0
354 272 m 0
 354 302 344 317 325 317 c 0
 298 317 275 301 257 269 c 0
 240 240 231 212 231 185 c 0
 231 147 245 128 274 128 c 0
 296 128 315 147 332 186 c 0
 339 201 344 215 347 229 c 0
 350 244 353 258 354 272 c 0
EndSplineSet
EndChar
StartChar: A
Encoding: 65 65
Width: 500
Flags: HW
HStem: 0 21<18 151 151 151 311 482 482 482> 145 28<153 308> 432 20<241 255 241 241>
Fore
482 0 m 1
 482 12 l 1
 455 12 442 24 422 71 c 1
 255 452 l 1
 241 452 l 1
 101 123 l 1
 85 83 75 63 72 56 c 0
 55 27 37 12 18 12 c 1
 18 0 l 1
 151 0 l 1
 151 12 l 1
 120 12 105 22 105 41 c 0
 105 49 107 57 111 66 c 1
 142 145 l 1
 318 145 l 1
 345 81 l 1
 355 53 l 1
 358 38 l 1
 358 26 354 19 345 16 c 2
 333 12 l 1
 311 12 l 1
 311 0 l 1
 482 0 l 1
308 173 m 1
 153 173 l 1
 231 357 l 1
 308 173 l 1
EndSplineSet
Back
482 0 m 1
 311 0 l 1
 311 12 l 1
 333 12 l 1
 345 16 l 2
 354 19 358 26 358 38 c 1
 355 53 l 1
 345 81 l 1
 318 145 l 1
 142 145 l 1
 111 66 l 1
 107 57 105 49 105 41 c 0
 105 21 120 12 151 12 c 1
 151 0 l 1
 18 0 l 1
 18 12 l 1
 37 12 55 27 72 56 c 0
 73 60 77 66 82 77 c 0
 86 88 93 103 101 123 c 1
 241 452 l 1
 255 452 l 1
 422 71 l 2
 432 48 441 32 450 24 c 0
 458 16 469 12 482 12 c 1
 482 0 l 1
308 173 m 1
 231 357 l 1
 153 173 l 1
 308 173 l 1
EndSplineSet
EndChar
StartChar: B
Encoding: 66 66
Width: 436
Flags: HW
HStem: -1 21 0 25<202.5 253 253 253> 223 28 427 25<175 205 205 216>
VStem: 90 69<54 74 74 223 249 378> 325 70<320.5 364.5> 340 78<120 148>
Fore
418 120 m 1
 418 183 380 222 304 238 c 1
 333 247 352 256 360 263 c 1
 383 279 395 304 395 337 c 0
 395 414 335 452 216 452 c 2
 24 452 l 1
 24 440 l 1
 58 436 l 1
 65 433 71 430 78 427 c 1
 86 418 90 402 90 378 c 2
 90 74 l 2
 90 23 76 13 24 13 c 1
 24 0 l 1
 253 0 l 1
 349 -3 415 44 418 120 c 1
325 333 m 0
 325 278 292 251 225 250 c 2
 159 249 l 1
 159 406 l 2
 159 420 164 427 175 427 c 2
 205 427 l 2
 285 427 325 396 325 333 c 0
340 123 m 0
 340 58 297 25 212 25 c 0
 193 25 182 26 177 27 c 0
 165 31 159 40 159 54 c 2
 159 223 l 1
 209 223 243 221 261 216 c 0
 314 204 340 173 340 123 c 0
EndSplineSet
Back
418 120 m 0
 417 102 413 84 404 69 c 0
 396 54 385 41 371 30 c 0
 356 20 339 12 319 7 c 0
 299 1 277 -0 253 0 c 2
 24 0 l 1
 24 13 l 1
 50 13 67 17 77 24 c 0
 85 32 90 49 90 74 c 2
 90 378 l 2
 90 402 86 418 78 427 c 1
 75 428 71 430 68 432 c 0
 64 433 62 435 58 436 c 2
 24 440 l 1
 24 452 l 1
 216 452 l 2
 335 452 395 414 395 337 c 0
 395 304 383 279 360 263 c 1
 352 256 333 248 304 238 c 1
 380 222 418 183 418 120 c 0
325 333 m 0
 325 396 285 427 205 427 c 2
 175 427 l 2
 165 427 159 420 159 406 c 2
 159 249 l 1
 225 250 l 2
 292 250 325 278 325 333 c 0
340 123 m 0
 340 173 313 204 261 216 c 0
 243 221 209 223 159 223 c 1
 159 54 l 2
 159 40 165 31 177 27 c 0
 180 26 184 26 189 25 c 0
 195 25 203 25 212 25 c 0
 297 25 340 58 340 123 c 0
EndSplineSet
EndChar
StartChar: C
Encoding: 67 67
Width: 475
Flags: HW
HStem: -8 27<248.5 283.5> 426 27 440 20
VStem: 34 78<191 248>
Fore
440 75 m 1
 427 87 l 1
 380 42 330 19 276 19 c 0
 221 19 180 39 151 80 c 0
 124 117 112 163 112 219 c 0
 112 277 124 324 148 361 c 0
 175 404 215 426 268 426 c 0
 347 426 400 382 417 303 c 1
 431 303 l 1
 425 453 l 1
 412 453 l 1
 407 438 396 431 381 431 c 1
 339 443 l 2
 323 447 309 449 297 450 c 2
 262 453 l 2
 198 458 143 436 98 389 c 0
 54 342 34 286 34 221 c 0
 34 151 54 95 93 53 c 0
 133 12 188 -8 257 -8 c 0
 310 -8 356 5 395 32 c 0
 418 47 433 62 440 75 c 1
EndSplineSet
Back
440 75 m 1
 433 62 417 47 395 32 c 0
 356 5 311 -8 257 -8 c 0
 188 -8 133 12 93 53 c 0
 54 95 34 151 34 221 c 0
 34 254 39 284 49 312 c 0
 60 340 76 366 98 389 c 0
 144 437 198 458 262 453 c 2
 297 450 l 2
 303 449 310 449 316 447 c 0
 324 446 331 445 339 443 c 2
 381 431 l 1
 396 431 407 438 412 453 c 1
 425 453 l 1
 431 303 l 1
 417 303 l 1
 408 342 391 373 366 394 c 0
 340 416 307 426 268 426 c 0
 215 426 175 404 148 361 c 0
 124 324 112 277 112 219 c 0
 112 191 115 166 122 143 c 0
 128 120 138 99 151 80 c 0
 180 40 221 19 276 19 c 0
 330 19 380 42 427 87 c 1
 440 75 l 1
EndSplineSet
EndChar
StartChar: D
Encoding: 68 68
Width: 504
Flags: HW
HStem: 0 25<187 218 218 265> 428 25<178.5 208>
VStem: 84 69<62.5 74 74 379> 407 74<196.5 258.5>
Fore
481 225 m 0
 481 304 454 362 401 401 c 0
 354 436 289 453 208 453 c 2
 23 453 l 1
 23 440 l 1
 54 437 l 1
 63 434 69 431 73 427 c 0
 80 420 84 404 84 379 c 2
 84 74 l 2
 84 51 80 35 73 26 c 1
 59 17 42 13 23 13 c 1
 23 0 l 1
 218 0 l 2
 312 0 382 26 428 78 c 0
 463 119 481 168 481 225 c 0
407 225 m 0
 407 92 336 25 194 25 c 0
 180 25 170 26 165 28 c 0
 157 33 153 42 153 54 c 2
 153 401 l 1
 154 412 156 419 158 421 c 0
 163 426 172 428 185 428 c 0
 253 428 306 411 345 378 c 0
 386 343 407 292 407 225 c 0
EndSplineSet
Back
481 225 m 0
 481 167 463 119 428 78 c 0
 382 26 312 0 218 0 c 2
 23 0 l 1
 23 13 l 1
 42 13 59 17 73 26 c 1
 81 35 84 51 84 74 c 2
 84 379 l 2
 84 404 81 419 73 427 c 0
 69 431 62 435 54 437 c 1
 23 440 l 1
 23 453 l 1
 208 453 l 2
 290 453 354 436 401 401 c 0
 454 362 481 304 481 225 c 0
407 225 m 0
 407 292 386 343 345 378 c 0
 306 411 253 428 185 428 c 0
 172 428 163 426 158 421 c 0
 156 419 154 412 153 401 c 1
 153 54 l 2
 153 42 157 33 165 28 c 0
 170 26 180 25 194 25 c 0
 336 25 407 92 407 225 c 0
EndSplineSet
EndChar
StartChar: E
Encoding: 69 69
Width: 432
Flags: HW
HStem: 0 26<233 282.5> 223 29<159 264> 428 25<181 273 273 290.5>
VStem: 88 71<55 74 74 223 252 379>
Fore
430 115 m 1
 410 115 l 1
 395 80 376 56 353 42 c 0
 334 31 304 26 261 26 c 0
 205 26 187 25 200 24 c 0
 173 27 159 38 159 55 c 2
 159 223 l 1
 264 223 l 2
 293 223 311 219 319 211 c 1
 328 205 335 188 339 159 c 1
 356 159 l 1
 356 317 l 1
 339 317 l 1
 334 290 327 272 318 264 c 0
 310 256 292 252 264 252 c 2
 159 252 l 1
 159 404 l 2
 159 414 161 421 165 425 c 0
 168 427 174 428 181 428 c 2
 273 428 l 2
 308 428 333 424 346 417 c 0
 363 408 373 387 378 355 c 1
 395 355 l 1
 393 453 l 1
 29 453 l 1
 29 440 l 1
 57 436 l 1
 75 429 l 1
 84 422 88 406 88 379 c 2
 88 74 l 2
 88 27 76 13 29 13 c 1
 29 0 l 1
 399 0 l 1
 430 115 l 1
EndSplineSet
Back
430 115 m 1
 399 0 l 1
 29 0 l 1
 29 13 l 1
 52 13 68 17 76 26 c 0
 84 35 88 51 88 74 c 2
 88 379 l 2
 88 406 83 422 75 429 c 1
 57 436 l 1
 29 440 l 1
 29 453 l 1
 393 453 l 1
 395 355 l 1
 378 355 l 1
 374 387 363 408 346 417 c 0
 333 424 308 428 273 428 c 2
 181 428 l 2
 174 428 168 427 165 425 c 0
 161 421 159 414 159 404 c 2
 159 252 l 1
 264 252 l 2
 292 252 310 256 318 264 c 0
 327 272 333 290 339 317 c 1
 356 317 l 1
 356 159 l 1
 339 159 l 1
 335 188 328 205 319 211 c 1
 311 219 292 223 264 223 c 2
 159 223 l 1
 159 55 l 2
 159 38 173 27 200 24 c 0
 193 25 195 25 205 25 c 0
 214 26 233 26 261 26 c 0
 304 26 334 31 353 42 c 0
 376 56 396 81 410 115 c 1
 430 115 l 1
EndSplineSet
EndChar
StartChar: F
Encoding: 70 70
Width: 400
Flags: HW
HStem: 0 21<20 211 211 211> 225 27<150 150> 427 25<171 264 264 281.5>
VStem: 79 71<74 82 82 225 252 378>
Fore
385 355 m 1
 383 452 l 1
 20 452 l 1
 20 440 l 1
 48 436 l 1
 66 428 l 1
 75 421 79 404 79 378 c 2
 79 82 l 2
 79 55 76 38 69 29 c 0
 62 18 45 13 20 13 c 1
 20 0 l 1
 211 0 l 1
 211 13 l 1
 164 13 150 27 150 74 c 2
 150 225 l 1
 248 223 l 2
 303 223 319 209 323 158 c 1
 339 158 l 1
 339 316 l 1
 323 316 l 1
 319 265 303 252 248 252 c 2
 150 252 l 1
 150 403 l 2
 150 419 157 427 171 427 c 2
 264 427 l 2
 299 427 323 423 336 416 c 0
 353 407 364 386 368 355 c 1
 385 355 l 1
EndSplineSet
Back
385 355 m 1
 368 355 l 1
 364 386 354 407 336 416 c 0
 323 423 299 427 264 427 c 2
 171 427 l 2
 157 427 150 419 150 403 c 2
 150 252 l 1
 248 252 l 2
 275 252 294 256 305 265 c 0
 315 273 321 291 323 316 c 1
 339 316 l 1
 339 158 l 1
 323 158 l 1
 321 183 315 201 305 209 c 0
 294 218 275 223 248 223 c 2
 150 225 l 1
 150 74 l 2
 150 51 154 35 163 26 c 0
 172 17 188 13 211 13 c 1
 211 0 l 1
 20 0 l 1
 20 13 l 1
 45 13 62 19 69 29 c 0
 76 38 79 55 79 82 c 2
 79 378 l 2
 79 404 75 421 66 428 c 1
 48 436 l 1
 20 440 l 1
 20 452 l 1
 383 452 l 1
 385 355 l 1
EndSplineSet
EndChar
StartChar: G
Encoding: 71 71
Width: 508
Flags: HW
HStem: -8 25<257.5 287.5> 427 27<247 277.5>
VStem: 34 78<217.5 244> 378 65<48.5 56 56 166>
Fore
490 226 m 1
 490 238 l 1
 320 238 l 1
 320 226 l 1
 333 226 342 225 348 223 c 2
 367 216 l 1
 374 207 378 191 378 166 c 2
 378 56 l 2
 378 41 365 31 339 25 c 0
 322 21 302 17 285 17 c 0
 230 17 187 37 154 76 c 0
 125 111 112 159 112 215 c 0
 112 273 124 321 147 360 c 1
 176 405 219 427 275 427 c 0
 343 427 392 389 422 312 c 1
 437 312 l 1
 431 454 l 1
 417 454 l 1
 412 439 402 431 385 431 c 1
 342 445 l 1
 315 451 290 454 265 454 c 0
 200 454 146 433 101 390 c 0
 56 348 34 294 34 229 c 0
 34 206 34 187 37 172 c 0
 45 129 61 93 90 62 c 0
 135 15 198 -8 279 -8 c 0
 296 -8 326 -2 370 6 c 1
 419 21 443 28 443 39 c 2
 443 173 l 2
 443 195 447 210 456 217 c 0
 460 221 471 224 490 226 c 1
EndSplineSet
Back
490 226 m 1
 471 224 460 221 456 217 c 0
 447 209 443 195 443 173 c 2
 443 39 l 2
 443 34 437 29 425 24 c 0
 413 20 395 13 370 6 c 1
 348 2 330 -1 314 -4 c 0
 299 -7 288 -8 279 -8 c 0
 198 -8 135 15 90 62 c 0
 75 77 64 94 56 112 c 0
 47 131 41 151 37 172 c 0
 36 179 35 188 35 197 c 0
 34 207 34 218 34 229 c 0
 34 294 56 348 101 390 c 0
 146 433 200 454 265 454 c 0
 290 454 315 451 342 445 c 1
 385 431 l 1
 402 431 412 438 417 454 c 1
 431 454 l 1
 437 312 l 1
 422 312 l 1
 392 389 343 427 275 427 c 0
 219 427 176 405 147 360 c 1
 124 321 112 273 112 215 c 0
 112 187 115 161 122 138 c 0
 129 114 139 93 154 76 c 0
 187 37 230 17 285 17 c 0
 293 17 303 18 312 20 c 0
 321 21 331 23 339 25 c 0
 365 31 378 42 378 56 c 2
 378 166 l 2
 378 190 375 208 367 216 c 1
 348 223 l 2
 342 225 333 226 320 226 c 1
 320 238 l 1
 490 238 l 1
 490 226 l 1
EndSplineSet
EndChar
StartChar: H
Encoding: 72 72
Width: 516
Flags: HW
HStem: 0 21<25 216 216 216 303 493 493 493> 215 31<155 363> 433 20<25 216 25 25 303 493 303 303>
VStem: 86 69<74 82 82 215 246 379> 363 70<74 82 82 215 246 379 246 246>
Fore
493 0 m 1
 493 13 l 1
 446 13 433 27 433 74 c 2
 433 379 l 2
 433 427 445 441 493 441 c 1
 493 453 l 1
 303 453 l 1
 303 441 l 1
 333 437 l 1
 353 432 363 413 363 379 c 2
 363 246 l 1
 155 246 l 1
 155 379 l 2
 155 430 166 441 216 441 c 1
 216 453 l 1
 25 453 l 1
 25 441 l 1
 56 437 l 1
 65 434 71 431 75 427 c 0
 82 420 86 404 86 379 c 2
 86 82 l 2
 86 55 83 37 77 29 c 0
 68 18 50 13 25 13 c 1
 25 0 l 1
 216 0 l 1
 216 13 l 1
 185 17 l 1
 174 22 168 25 166 27 c 0
 159 36 155 52 155 74 c 2
 155 215 l 1
 363 215 l 1
 363 82 l 2
 363 54 360 36 355 29 c 0
 346 18 328 13 303 13 c 1
 303 0 l 1
 493 0 l 1
EndSplineSet
Back
493 0 m 1
 303 0 l 1
 303 13 l 1
 328 13 346 19 355 29 c 0
 360 36 363 54 363 82 c 2
 363 215 l 1
 155 215 l 1
 155 74 l 2
 155 52 159 36 166 27 c 0
 168 25 174 21 185 17 c 1
 216 13 l 1
 216 0 l 1
 25 0 l 1
 25 13 l 1
 50 13 68 19 77 29 c 0
 83 37 86 55 86 82 c 2
 86 379 l 2
 86 404 83 419 75 427 c 0
 71 431 64 435 56 437 c 1
 25 441 l 1
 25 453 l 1
 216 453 l 1
 216 441 l 1
 203 441 193 440 186 438 c 0
 178 437 172 434 167 429 c 0
 162 424 159 418 158 410 c 0
 156 402 155 392 155 379 c 2
 155 246 l 1
 363 246 l 1
 363 379 l 2
 363 413 353 432 333 437 c 1
 303 441 l 1
 303 453 l 1
 493 453 l 1
 493 441 l 1
 469 441 453 437 445 428 c 0
 437 419 433 403 433 379 c 2
 433 74 l 2
 433 51 437 35 445 26 c 0
 454 17 470 13 493 13 c 1
 493 0 l 1
EndSplineSet
EndChar
StartChar: I
Encoding: 73 73
Width: 248
Flags: HW
HStem: 0 21<25 227 227 227> 432 20<25 227 25 25>
VStem: 90 71<74 378>
Fore
227 0 m 1
 227 13 l 1
 175 13 161 23 161 74 c 2
 161 378 l 2
 161 403 166 420 175 429 c 1
 186 436 204 440 227 440 c 1
 227 452 l 1
 25 452 l 1
 25 440 l 1
 51 440 69 436 80 427 c 1
 87 417 90 401 90 378 c 2
 90 74 l 2
 90 23 77 13 25 13 c 1
 25 0 l 1
 227 0 l 1
EndSplineSet
Back
227 0 m 1
 25 0 l 1
 25 13 l 1
 51 13 68 17 77 24 c 0
 85 32 90 49 90 74 c 2
 90 378 l 2
 90 401 86 417 80 427 c 1
 69 436 51 440 25 440 c 1
 25 452 l 1
 227 452 l 1
 227 440 l 1
 204 440 187 437 175 429 c 1
 166 420 161 403 161 378 c 2
 161 74 l 2
 161 49 166 32 174 24 c 0
 184 17 201 13 227 13 c 1
 227 0 l 1
EndSplineSet
EndChar
StartChar: J
Encoding: 74 74
Width: 266
Flags: HW
HStem: -8 21<70.5 98> 433 20<60 257 60 60>
VStem: 124 70<125 379>
Fore
257 440 m 1
 257 453 l 1
 60 453 l 1
 60 440 l 1
 111 440 124 430 124 379 c 2
 124 62 l 2
 124 31 115 16 97 16 c 0
 91 16 86 21 82 31 c 2
 71 59 l 1
 65 69 55 74 42 74 c 0
 26 74 10 56 10 40 c 0
 10 24 18 11 34 2 c 0
 47 -5 62 -8 79 -8 c 0
 117 -8 146 4 167 29 c 1
 185 53 194 85 194 125 c 2
 194 379 l 2
 194 392 195 402 197 410 c 0
 202 430 222 440 257 440 c 1
EndSplineSet
Back
257 440 m 1
 222 440 202 430 197 410 c 0
 195 402 194 392 194 379 c 2
 194 125 l 2
 194 85 185 53 167 29 c 1
 146 4 117 -8 79 -8 c 0
 62 -8 47 -5 34 2 c 0
 18 11 10 24 10 40 c 0
 10 48 13 56 20 63 c 0
 27 70 34 74 42 74 c 0
 55 74 65 69 71 59 c 1
 82 31 l 2
 86 21 91 16 97 16 c 0
 115 16 124 31 124 62 c 2
 124 379 l 2
 124 404 120 421 111 429 c 0
 103 436 85 440 60 440 c 1
 60 453 l 1
 257 453 l 1
 257 440 l 1
EndSplineSet
EndChar
StartChar: K
Encoding: 75 75
Width: 512
Flags: HW
HStem: 0 21<36 228 228 228 299 507 507 507> 433 20<36 230 36 36 295 474 295 295>
VStem: 97 70<74 82 82 202 239 378>
Fore
507 0 m 1
 507 13 l 1
 488 13 471 19 456 31 c 2
 434 51 l 1
 240 258 l 1
 370 386 l 2
 392 408 410 423 425 430 c 1
 446 436 l 2
 454 439 463 440 474 440 c 1
 474 453 l 1
 295 453 l 1
 295 440 l 1
 326 440 342 433 342 418 c 0
 342 406 332 390 312 371 c 2
 243 307 l 1
 167 239 l 1
 167 378 l 2
 167 403 171 419 179 427 c 1
 192 436 209 440 230 440 c 1
 230 453 l 1
 36 453 l 1
 36 440 l 1
 84 440 97 426 97 378 c 2
 97 82 l 2
 97 53 94 36 89 30 c 0
 78 19 60 13 36 13 c 1
 36 0 l 1
 228 0 l 1
 228 13 l 1
 215 13 204 14 196 16 c 1
 178 26 l 1
 171 35 167 51 167 74 c 2
 167 202 l 1
 184 217 l 1
 258 145 l 2
 317 86 347 47 347 30 c 1
 345 19 329 13 299 13 c 1
 299 0 l 1
 507 0 l 1
EndSplineSet
Back
507 0 m 1
 299 0 l 1
 299 13 l 1
 329 13 345 19 347 30 c 1
 347 47 317 85 258 145 c 2
 184 217 l 1
 167 202 l 1
 167 74 l 2
 167 51 171 35 178 26 c 1
 196 16 l 1
 204 14 215 13 228 13 c 1
 228 0 l 1
 36 0 l 1
 36 13 l 1
 60 13 78 19 89 30 c 0
 94 36 97 53 97 82 c 2
 97 378 l 2
 97 402 93 418 84 427 c 0
 76 436 60 440 36 440 c 1
 36 453 l 1
 230 453 l 1
 230 440 l 1
 209 440 192 436 179 427 c 1
 171 419 167 403 167 378 c 2
 167 239 l 1
 243 307 l 1
 312 371 l 2
 332 390 342 406 342 418 c 0
 342 433 326 440 295 440 c 1
 295 453 l 1
 474 453 l 1
 474 440 l 1
 463 440 454 438 446 436 c 2
 425 430 l 1
 410 423 392 408 370 386 c 2
 240 258 l 1
 434 51 l 1
 456 31 l 1
 471 19 488 13 507 13 c 1
 507 0 l 1
EndSplineSet
EndChar
StartChar: L
Encoding: 76 76
Width: 433
Flags: HW
HStem: 0 26<202.5 206 206 227> 433 20<29 223 29 29>
VStem: 88 71<55 74 74 379>
Fore
431 119 m 1
 413 119 l 1
 394 78 371 52 344 39 c 0
 327 30 288 26 227 26 c 2
 206 26 l 2
 199 26 195 26 193 27 c 0
 180 28 172 29 169 32 c 0
 162 36 159 44 159 55 c 2
 159 379 l 2
 159 404 164 421 173 429 c 1
 191 437 l 1
 223 440 l 1
 223 453 l 1
 29 453 l 1
 29 440 l 1
 57 436 l 1
 75 429 l 1
 84 422 88 406 88 379 c 2
 88 74 l 2
 88 27 76 13 29 13 c 1
 29 0 l 1
 398 0 l 1
 431 119 l 1
EndSplineSet
Back
431 119 m 1
 398 0 l 1
 29 0 l 1
 29 13 l 1
 52 13 68 17 76 26 c 0
 84 35 88 51 88 74 c 2
 88 379 l 2
 88 406 83 422 75 429 c 1
 57 436 l 1
 29 440 l 1
 29 453 l 1
 223 453 l 1
 223 440 l 1
 191 437 l 1
 173 429 l 1
 164 421 159 404 159 379 c 2
 159 55 l 2
 159 43 162 36 169 32 c 0
 172 29 180 28 193 27 c 0
 195 26 199 26 206 26 c 2
 227 26 l 2
 288 26 327 30 344 39 c 0
 371 52 395 78 413 119 c 1
 431 119 l 1
EndSplineSet
EndChar
StartChar: M
Encoding: 77 77
Width: 625
Flags: HW
HStem: 0 21<20 181 181 181 288 298 298 298 410 601 601 601> 432 20<22 156 22 22 465 601 465 465>
VStem: 86 30<84.5 100> 472 70<74 82 82 377 377 388>
Fore
601 0 m 1
 601 13 l 1
 572 16 l 1
 552 22 542 41 542 74 c 2
 542 377 l 2
 542 424 554 439 601 439 c 1
 601 452 l 1
 465 452 l 1
 314 107 l 1
 156 452 l 1
 22 452 l 1
 22 439 l 1
 54 435 l 1
 63 432 69 430 72 427 c 0
 81 420 86 403 86 377 c 2
 86 100 l 2
 86 68 83 47 76 36 c 1
 69 21 50 13 20 13 c 1
 20 0 l 1
 181 0 l 1
 181 13 l 1
 152 13 134 21 125 36 c 0
 119 47 116 69 116 100 c 1
 117 373 l 1
 288 0 l 1
 298 0 l 1
 472 388 l 1
 472 82 l 2
 472 56 469 38 462 28 c 1
 453 18 436 13 410 13 c 1
 410 0 l 1
 601 0 l 1
EndSplineSet
Back
601 0 m 1
 410 0 l 1
 410 13 l 1
 436 13 453 18 462 28 c 1
 469 38 472 56 472 82 c 2
 472 388 l 1
 298 0 l 1
 288 0 l 1
 117 373 l 1
 116 100 l 1
 116 69 119 47 125 36 c 0
 134 21 152 13 181 13 c 1
 181 0 l 1
 20 0 l 1
 20 13 l 1
 50 13 69 21 76 36 c 0
 83 47 86 68 86 100 c 2
 86 377 l 2
 86 403 82 419 72 427 c 0
 69 430 63 432 54 435 c 1
 22 439 l 1
 22 452 l 1
 156 452 l 1
 314 107 l 1
 465 452 l 1
 601 452 l 1
 601 439 l 1
 578 439 562 435 554 425 c 0
 546 417 542 400 542 377 c 2
 542 74 l 2
 542 42 552 22 572 16 c 1
 601 13 l 1
 601 0 l 1
EndSplineSet
EndChar
StartChar: N
Encoding: 78 78
Width: 510
Flags: HW
HStem: -6 21<420 431 431 431> 0 21<20 182 182 182> 433 20<20 138 20 20 335 497 335 335>
VStem: 87 30<85 101> 402 29<352 366.5>
Fore
497 440 m 1
 497 453 l 1
 335 453 l 1
 335 440 l 1
 364 440 383 432 392 417 c 0
 399 406 402 385 402 352 c 1
 400 124 l 1
 138 453 l 1
 20 453 l 1
 20 440 l 1
 46 440 68 428 87 403 c 1
 87 101 l 2
 87 68 84 47 77 36 c 0
 68 21 49 13 20 13 c 1
 20 0 l 1
 182 0 l 1
 182 13 l 1
 153 13 135 21 126 36 c 0
 120 47 117 69 117 101 c 1
 118 368 l 1
 420 -6 l 1
 431 -6 l 1
 431 352 l 2
 431 381 435 402 442 415 c 0
 452 432 470 440 497 440 c 1
EndSplineSet
Back
497 440 m 1
 470 440 452 432 442 415 c 0
 435 402 431 381 431 352 c 2
 431 -6 l 1
 420 -6 l 1
 118 368 l 1
 117 101 l 1
 117 69 120 47 126 36 c 0
 135 21 153 13 182 13 c 1
 182 0 l 1
 20 0 l 1
 20 13 l 1
 49 13 68 21 77 36 c 0
 83 47 87 68 87 101 c 2
 87 403 l 1
 68 428 46 440 20 440 c 1
 20 453 l 1
 138 453 l 1
 400 124 l 1
 402 352 l 1
 402 385 398 406 392 417 c 0
 383 432 364 440 335 440 c 1
 335 453 l 1
 497 453 l 1
 497 440 l 1
EndSplineSet
EndChar
StartChar: O
Encoding: 79 79
Width: 526
Flags: HW
HStem: -8 22<234.5 285.5> 437 24<234.5 284.5>
VStem: 36 78<198 254.5> 405 78<198.5 253.5>
Fore
483 225 m 0
 483 294 463 351 422 394 c 1
 382 439 328 461 260 461 c 0
 193 461 139 439 98 394 c 0
 57 349 36 292 36 225 c 0
 36 158 57 102 98 57 c 0
 139 14 193 -8 260 -8 c 0
 327 -8 381 14 422 57 c 0
 463 102 483 158 483 225 c 0
405 226 m 0
 405 171 395 124 375 86 c 0
 349 38 311 14 260 14 c 0
 209 14 170 38 145 86 c 0
 124 123 114 170 114 226 c 0
 114 283 124 330 145 367 c 0
 170 414 209 437 260 437 c 0
 309 437 348 413 375 366 c 1
 395 328 405 281 405 226 c 0
EndSplineSet
Back
483 225 m 0
 483 158 463 102 422 57 c 0
 381 14 327 -8 260 -8 c 0
 193 -8 139 14 98 57 c 0
 57 102 36 158 36 225 c 0
 36 292 57 349 98 394 c 0
 139 438 193 461 260 461 c 0
 328 461 382 438 422 394 c 0
 463 351 483 294 483 225 c 0
405 226 m 0
 405 281 395 328 375 366 c 1
 348 414 310 437 260 437 c 0
 208 437 170 414 145 367 c 0
 125 331 114 283 114 226 c 0
 114 170 125 124 145 86 c 0
 170 38 208 14 260 14 c 0
 311 14 349 38 375 86 c 0
 395 124 405 171 405 226 c 0
EndSplineSet
EndChar
StartChar: P
Encoding: 80 80
Width: 401
Flags: HW
HStem: 0 21<23 215 215 215> 428 25<166.5 204>
VStem: 81 69<74 82 82 200 227 379> 309 74<306.5 352.5>
Fore
383 330 m 0
 383 375 363 407 323 428 c 0
 291 444 252 453 204 453 c 2
 23 453 l 1
 23 440 l 1
 70 440 81 427 81 379 c 2
 81 82 l 2
 81 56 78 38 72 29 c 0
 63 18 47 13 23 13 c 1
 23 0 l 1
 215 0 l 1
 215 13 l 1
 167 13 150 26 150 74 c 2
 150 200 l 1
 179 198 l 1
 196 198 l 2
 248 198 289 206 321 225 c 0
 362 248 383 283 383 330 c 0
309 329 m 0
 309 260 270 225 191 225 c 2
 171 225 l 2
 164 226 157 227 150 227 c 1
 150 405 l 2
 150 425 155 428 178 428 c 0
 265 428 309 395 309 329 c 0
EndSplineSet
Back
383 330 m 0
 383 283 362 249 321 225 c 0
 305 216 287 209 266 205 c 0
 245 200 222 198 196 198 c 2
 179 198 l 1
 150 200 l 1
 150 74 l 2
 150 50 155 34 165 25 c 0
 174 17 191 13 215 13 c 1
 215 0 l 1
 23 0 l 1
 23 13 l 1
 47 13 63 19 72 29 c 0
 78 39 81 56 81 82 c 2
 81 379 l 2
 81 403 77 419 69 428 c 0
 62 436 46 440 23 440 c 1
 23 453 l 1
 204 453 l 2
 228 453 250 451 270 446 c 0
 289 442 307 436 323 428 c 0
 363 407 383 375 383 330 c 0
309 329 m 0
 309 395 265 428 178 428 c 0
 167 428 159 427 155 424 c 0
 152 421 150 415 150 405 c 2
 150 227 l 1
 153 227 157 227 161 227 c 0
 171 225 l 2
 191 225 l 2
 270 225 309 260 309 329 c 0
EndSplineSet
EndChar
StartChar: Q
Encoding: 81 81
Width: 525
Flags: HW
HStem: -115 130 436 25<233 284.5>
VStem: 36 78<198.5 253> 404 78<198.5 252.5>
Fore
458 -109 m 1
 458 -97 l 1
 411 -97 371 -83 336 -54 c 1
 308 -28 l 1
 291 -3 l 1
 334 2 388 22 421 57 c 0
 462 100 482 156 482 225 c 0
 482 294 462 350 421 393 c 1
 381 438 327 461 259 461 c 0
 192 461 138 438 97 393 c 0
 56 350 36 294 36 225 c 0
 36 172 49 125 76 84 c 0
 104 40 148 11 193 0 c 1
 216 -32 l 1
 262 -87 333 -113 429 -110 c 2
 458 -109 l 1
404 225 m 0
 404 172 394 125 373 86 c 0
 348 39 310 15 259 15 c 0
 207 15 169 38 144 85 c 1
 123 121 114 166 114 225 c 0
 114 281 123 326 144 365 c 0
 169 412 207 436 259 436 c 0
 310 436 349 412 374 365 c 0
 394 327 404 280 404 225 c 0
EndSplineSet
Back
458 -109 m 1
 429 -110 l 2
 333 -113 262 -87 216 -32 c 1
 193 0 l 1
 170 5 148 15 128 29 c 0
 107 44 90 62 76 84 c 0
 49 125 36 172 36 225 c 0
 36 293 56 350 97 393 c 0
 138 438 192 461 259 461 c 0
 327 461 381 438 421 393 c 1
 461 350 482 294 482 225 c 0
 482 156 461 100 421 57 c 0
 404 40 384 26 359 16 c 0
 335 6 312 -0 291 -3 c 1
 308 -28 l 1
 336 -54 l 1
 371 -83 411 -97 458 -97 c 1
 458 -109 l 1
404 225 m 0
 404 280 394 327 374 365 c 0
 349 412 311 436 259 436 c 0
 207 436 168 412 144 365 c 0
 133 346 125 325 121 301 c 0
 116 278 114 253 114 225 c 0
 114 196 116 169 121 146 c 0
 125 124 133 103 144 85 c 0
 168 39 207 15 259 15 c 0
 311 15 348 39 373 86 c 0
 394 125 404 172 404 225 c 0
EndSplineSet
EndChar
StartChar: R
Encoding: 82 82
Width: 474
Flags: HW
HStem: 0 21<26 215 215 215 355 465 465 465> 428 25<188 214>
VStem: 83 71<74 82 82 209 235 379> 314 75<313.5 366>
Fore
465 0 m 1
 465 13 l 1
 442 13 422 24 405 45 c 2
 264 218 l 1
 347 235 389 273 389 334 c 0
 389 413 331 453 214 453 c 2
 26 453 l 1
 26 440 l 1
 49 440 65 435 74 426 c 0
 80 419 83 404 83 379 c 2
 83 82 l 2
 83 54 80 36 75 29 c 0
 66 18 50 13 26 13 c 1
 26 0 l 1
 215 0 l 1
 215 13 l 1
 168 13 154 27 154 74 c 2
 154 209 l 1
 192 211 l 1
 355 0 l 1
 465 0 l 1
314 335 m 0
 314 292 295 263 256 249 c 0
 231 240 198 235 154 235 c 1
 154 403 l 2
 154 416 158 423 166 426 c 0
 170 427 180 428 196 428 c 0
 275 428 314 397 314 335 c 0
EndSplineSet
Back
465 0 m 1
 355 0 l 1
 192 211 l 1
 154 209 l 1
 154 74 l 2
 154 51 158 35 167 26 c 0
 176 17 192 13 215 13 c 1
 215 0 l 1
 26 0 l 1
 26 13 l 1
 50 13 66 19 75 29 c 0
 81 36 83 54 83 82 c 2
 83 379 l 2
 83 404 80 419 74 426 c 0
 64 436 49 440 26 440 c 1
 26 453 l 1
 214 453 l 2
 331 453 389 414 389 334 c 0
 389 273 347 235 264 218 c 1
 405 45 l 2
 422 23 442 13 465 13 c 1
 465 0 l 1
314 335 m 0
 314 397 275 428 196 428 c 0
 180 428 170 427 166 426 c 0
 158 423 154 416 154 403 c 2
 154 235 l 1
 176 235 195 236 212 238 c 0
 229 241 243 244 256 249 c 0
 294 263 314 292 314 335 c 0
EndSplineSet
EndChar
StartChar: S
Encoding: 83 83
Width: 401
Flags: HW
HStem: -8 22<198.5 221> -7 21 433 28<171.5 191.5>
VStem: 63 59<355 380.5> 281 69<96 104>
Fore
350 114 m 0
 350 159 330 194 291 219 c 2
 181 289 l 2
 142 314 122 341 122 369 c 0
 122 408 152 433 191 433 c 0
 222 433 250 421 275 398 c 1
 296 375 311 348 318 316 c 1
 334 316 l 1
 320 461 l 1
 305 461 l 1
 301 446 293 438 282 438 c 1
 243 449 l 2
 216 457 197 461 186 461 c 0
 114 461 63 416 63 345 c 0
 63 314 74 286 96 263 c 0
 111 248 134 232 170 211 c 0
 209 190 232 174 243 165 c 0
 268 142 281 117 281 91 c 0
 281 47 243 14 199 14 c 0
 139 14 92 54 58 135 c 1
 43 135 l 1
 63 -7 l 1
 79 -7 l 1
 79 6 86 13 99 13 c 0
 108 13 124 10 148 2 c 0
 172 -5 191 -8 206 -8 c 0
 243 -8 275 2 304 23 c 1
 335 48 350 78 350 114 c 0
EndSplineSet
Back
350 114 m 0
 350 78 334 48 304 23 c 1
 275 2 243 -8 206 -8 c 0
 191 -8 172 -5 148 2 c 0
 136 6 126 9 118 11 c 0
 110 12 104 13 99 13 c 0
 85 13 79 6 79 -7 c 1
 63 -7 l 1
 43 135 l 1
 58 135 l 1
 92 54 139 14 199 14 c 0
 221 14 240 21 256 36 c 0
 273 51 281 69 281 91 c 0
 281 117 269 142 243 165 c 0
 238 169 229 176 217 184 c 0
 205 191 189 200 170 211 c 0
 152 222 137 231 125 239 c 0
 113 248 104 256 96 263 c 0
 74 286 63 313 63 345 c 0
 63 380 75 409 98 430 c 0
 121 451 150 461 186 461 c 0
 197 461 216 457 243 449 c 2
 282 438 l 1
 293 438 301 446 305 461 c 1
 320 461 l 1
 334 316 l 1
 318 316 l 1
 311 348 296 375 275 398 c 1
 250 421 222 433 191 433 c 0
 172 433 155 427 142 416 c 0
 129 404 122 388 122 369 c 0
 122 341 142 314 181 289 c 2
 291 219 l 2
 331 194 350 159 350 114 c 0
EndSplineSet
EndChar
StartChar: T
Encoding: 84 84
Width: 443
Flags: HW
HStem: 0 21<121 321 321 321> 425 28<149 186 186 186 256 293 293 311.5>
VStem: 186 70<74 82 82 425>
Fore
418 337 m 1
 414 453 l 1
 28 453 l 1
 24 337 l 1
 40 337 l 1
 48 373 59 397 73 408 c 0
 88 419 113 425 149 425 c 2
 186 425 l 1
 186 82 l 2
 186 54 183 36 177 29 c 0
 168 18 149 13 121 13 c 1
 121 0 l 1
 321 0 l 1
 321 13 l 1
 270 13 256 26 256 74 c 2
 256 425 l 1
 293 425 l 2
 330 425 355 419 369 407 c 0
 384 396 395 372 401 337 c 1
 418 337 l 1
EndSplineSet
Back
418 337 m 1
 401 337 l 1
 395 373 384 396 369 407 c 0
 355 419 330 425 293 425 c 2
 256 425 l 1
 256 74 l 2
 256 50 261 34 270 25 c 0
 278 17 296 13 321 13 c 1
 321 0 l 1
 121 0 l 1
 121 13 l 1
 149 13 167 19 177 29 c 0
 183 36 186 54 186 82 c 2
 186 425 l 1
 149 425 l 2
 113 425 88 419 73 408 c 0
 59 396 48 373 40 337 c 1
 24 337 l 1
 28 453 l 1
 414 453 l 1
 418 337 l 1
EndSplineSet
EndChar
StartChar: U
Encoding: 85 85
Width: 527
Flags: HW
HStem: -8 28<240 298.5> 433 20<29 223 29 29 343 502 343 343>
VStem: 91 69<159 165 165 379> 408 30<174 352>
Fore
502 440 m 1
 502 453 l 1
 343 453 l 1
 343 440 l 1
 371 440 389 432 398 415 c 0
 405 404 408 383 408 352 c 2
 408 167 l 2
 408 122 403 91 392 74 c 0
 370 38 333 20 280 20 c 0
 200 20 160 66 160 159 c 2
 160 379 l 2
 160 430 172 440 223 440 c 1
 223 453 l 1
 29 453 l 1
 29 440 l 1
 77 440 91 427 91 379 c 2
 91 165 l 2
 91 50 147 -8 260 -8 c 0
 337 -8 389 15 416 62 c 0
 431 87 438 125 438 174 c 2
 438 352 l 2
 438 385 441 407 446 416 c 0
 453 429 471 437 502 440 c 1
EndSplineSet
Back
502 440 m 1
 471 437 453 429 446 416 c 0
 440 407 438 385 438 352 c 2
 438 174 l 2
 438 125 431 87 416 62 c 0
 389 15 337 -8 260 -8 c 0
 147 -8 91 50 91 165 c 2
 91 379 l 2
 91 403 86 419 78 428 c 0
 69 436 53 440 29 440 c 1
 29 453 l 1
 223 453 l 1
 223 440 l 1
 198 440 181 436 172 429 c 0
 164 421 160 404 160 379 c 2
 160 159 l 2
 160 66 200 20 280 20 c 0
 333 20 370 38 392 74 c 0
 403 91 408 122 408 167 c 2
 408 352 l 2
 408 383 405 404 398 415 c 0
 389 432 371 440 343 440 c 1
 343 453 l 1
 502 453 l 1
 502 440 l 1
EndSplineSet
EndChar
StartChar: V
Encoding: 86 86
Width: 483
Flags: HW
HStem: -6 21<251 261 261 261> 433 20<9 191 9 9 335 476 335 335>
Fore
476 441 m 1
 476 453 l 1
 335 453 l 1
 335 441 l 1
 368 441 385 430 385 409 c 1
 383 392 379 376 372 362 c 1
 271 111 l 1
 169 342 l 2
 150 386 140 410 140 415 c 0
 140 426 143 433 148 434 c 1
 157 439 171 441 191 441 c 1
 191 453 l 1
 9 453 l 1
 9 441 l 1
 19 441 28 439 36 435 c 2
 47 428 l 1
 57 418 68 398 81 369 c 2
 251 -6 l 1
 261 -6 l 1
 412 377 l 1
 427 408 l 2
 431 417 435 423 440 428 c 1
 455 437 l 2
 460 440 467 441 476 441 c 1
EndSplineSet
Back
476 441 m 1
 467 441 459 439 455 437 c 2
 440 428 l 1
 436 423 431 417 427 408 c 2
 412 377 l 1
 261 -6 l 1
 251 -6 l 1
 81 369 l 1
 68 398 57 418 47 428 c 1
 36 435 l 2
 28 439 19 441 9 441 c 1
 9 453 l 1
 191 453 l 1
 191 441 l 1
 171 441 157 438 148 434 c 0
 143 433 140 426 140 415 c 0
 140 410 150 386 169 342 c 2
 271 111 l 1
 372 362 l 1
 379 376 383 392 385 409 c 1
 385 430 368 441 335 441 c 1
 335 453 l 1
 476 453 l 1
 476 441 l 1
EndSplineSet
EndChar
StartChar: W
Encoding: 87 87
Width: 662
Flags: HW
HStem: -6 21<218 228 228 228 444 453 453 453> 433 20<15 183 15 15 226 409 226 226 515 650 515 515>
Fore
650 440 m 1
 650 453 l 1
 515 453 l 1
 515 440 l 1
 534 438 l 1
 547 434 l 1
 557 429 562 421 562 409 c 0
 562 398 558 381 551 359 c 1
 465 127 l 1
 375 361 l 1
 360 398 l 1
 356 414 l 1
 356 431 374 440 409 440 c 1
 409 453 l 1
 226 453 l 1
 226 440 l 1
 247 440 262 435 272 425 c 0
 279 418 287 403 296 379 c 2
 318 323 l 1
 245 129 l 1
 146 386 l 1
 141 402 138 412 138 417 c 0
 138 425 141 430 146 432 c 2
 164 438 l 2
 169 439 175 440 183 440 c 1
 183 453 l 1
 15 453 l 1
 15 440 l 1
 36 438 52 429 63 414 c 0
 68 407 76 389 86 360 c 1
 157 170 l 1
 218 -6 l 1
 228 -6 l 1
 334 282 l 1
 390 145 425 50 444 -6 c 1
 453 -6 l 1
 485 91 l 1
 522 198 l 1
 596 398 l 2
 607 427 618 433 650 440 c 1
EndSplineSet
Back
650 440 m 1
 634 437 623 433 615 428 c 0
 608 422 602 413 596 398 c 2
 522 198 l 1
 485 91 l 1
 453 -6 l 1
 444 -6 l 1
 435 22 421 60 403 107 c 0
 385 155 362 213 334 282 c 1
 228 -6 l 1
 218 -6 l 1
 157 170 l 1
 86 360 l 1
 76 389 68 407 63 414 c 0
 52 429 36 438 15 440 c 1
 15 453 l 1
 183 453 l 1
 183 440 l 1
 179 440 175 440 172 439 c 0
 169 439 167 438 164 438 c 2
 146 432 l 2
 141 430 138 425 138 417 c 0
 138 412 141 402 146 386 c 1
 245 129 l 1
 318 323 l 1
 296 379 l 2
 287 403 279 418 272 425 c 0
 262 435 247 440 226 440 c 1
 226 453 l 1
 409 453 l 1
 409 440 l 1
 374 440 356 431 356 414 c 1
 360 398 l 1
 375 361 l 1
 465 127 l 1
 551 359 l 1
 558 381 562 397 562 409 c 0
 562 421 557 429 547 434 c 2
 534 438 l 1
 515 440 l 1
 515 453 l 1
 650 453 l 1
 650 440 l 1
EndSplineSet
EndChar
StartChar: X
Encoding: 88 88
Width: 513
Flags: HW
HStem: 0 21<19 179 179 179 291 495 495 495> 433 20<27 235 27 27 327 489 327 327>
Fore
495 0 m 1
 495 13 l 1
 466 16 440 33 419 64 c 2
 288 252 l 1
 387 376 l 1
 406 398 420 413 430 422 c 0
 446 434 466 440 489 440 c 1
 489 453 l 1
 327 453 l 1
 327 440 l 1
 359 440 375 433 375 418 c 0
 374 411 371 404 367 398 c 2
 347 371 l 1
 269 277 l 1
 241 317 l 1
 202 370 183 404 183 419 c 0
 184 430 190 436 202 439 c 0
 203 440 214 440 235 440 c 1
 235 453 l 1
 27 453 l 1
 27 440 l 1
 50 437 67 433 78 424 c 0
 93 413 117 383 151 333 c 2
 226 223 l 1
 118 91 l 1
 89 56 l 1
 63 28 l 1
 53 20 38 15 19 13 c 1
 19 0 l 1
 179 0 l 1
 179 13 l 1
 144 13 127 21 127 38 c 0
 127 47 139 67 162 96 c 2
 244 198 l 1
 309 102 l 2
 332 68 344 46 344 36 c 0
 343 27 339 21 331 18 c 1
 291 13 l 1
 291 0 l 1
 495 0 l 1
EndSplineSet
Back
495 0 m 1
 291 0 l 1
 291 13 l 1
 331 18 l 1
 339 21 343 27 344 36 c 0
 344 46 333 68 309 102 c 2
 244 198 l 1
 162 96 l 2
 139 67 127 47 127 38 c 0
 127 21 145 13 179 13 c 1
 179 0 l 1
 19 0 l 1
 19 13 l 1
 39 15 53 20 63 28 c 1
 89 56 l 1
 118 91 l 1
 226 223 l 1
 151 333 l 2
 117 383 93 414 78 424 c 0
 73 429 65 432 57 435 c 0
 48 437 39 438 27 440 c 1
 27 453 l 1
 235 453 l 1
 235 440 l 1
 214 440 203 439 202 439 c 0
 190 437 184 430 183 419 c 0
 183 404 202 370 241 317 c 2
 269 277 l 1
 347 371 l 1
 367 398 l 2
 371 404 374 411 375 418 c 0
 375 433 359 440 327 440 c 1
 327 453 l 1
 489 453 l 1
 489 440 l 1
 466 440 446 434 430 422 c 0
 420 414 406 398 387 376 c 1
 288 252 l 1
 419 64 l 2
 440 33 466 16 495 13 c 1
 495 0 l 1
EndSplineSet
EndChar
StartChar: Y
Encoding: 89 89
Width: 498
Flags: HW
HStem: 0 21<149 359 359 359> 433 20<17 209 17 17 334 484 334 334>
VStem: 218 70<74 82 82 202>
Fore
484 441 m 1
 484 453 l 1
 334 453 l 1
 334 441 l 1
 367 441 382 433 381 418 c 0
 381 409 378 400 371 393 c 1
 273 238 l 1
 173 390 l 1
 165 401 161 411 161 419 c 0
 161 434 177 441 209 441 c 1
 209 453 l 1
 17 453 l 1
 17 441 l 1
 31 441 45 435 58 424 c 0
 73 410 96 380 129 333 c 1
 218 202 l 1
 218 82 l 2
 218 54 215 36 209 28 c 1
 198 18 178 13 149 13 c 1
 149 0 l 1
 359 0 l 1
 359 13 l 1
 331 13 311 17 300 25 c 1
 292 34 288 51 288 74 c 2
 288 208 l 1
 389 362 l 2
 412 396 430 418 445 428 c 0
 456 435 469 439 484 441 c 1
EndSplineSet
Back
484 441 m 1
 469 439 456 435 445 428 c 0
 430 418 412 396 389 362 c 2
 288 208 l 1
 288 74 l 2
 288 51 292 34 300 25 c 1
 312 17 331 13 359 13 c 1
 359 0 l 1
 149 0 l 1
 149 13 l 1
 178 13 198 18 209 28 c 1
 215 36 218 54 218 82 c 2
 218 202 l 1
 129 333 l 1
 96 380 73 410 58 424 c 0
 44 436 31 441 17 441 c 1
 17 453 l 1
 209 453 l 1
 209 441 l 1
 177 441 161 434 161 419 c 0
 161 411 165 401 173 390 c 2
 273 238 l 1
 371 393 l 1
 377 400 381 409 381 418 c 0
 382 433 367 441 334 441 c 1
 334 453 l 1
 484 453 l 1
 484 441 l 1
EndSplineSet
EndChar
StartChar: Z
Encoding: 90 90
Width: 443
Flags: HW
HStem: 0 26<111 287> 428 25<166 317 317 317>
Fore
421 120 m 1
 405 120 l 1
 395 89 385 67 374 55 c 0
 357 36 328 26 287 26 c 2
 111 26 l 1
 407 443 l 1
 407 453 l 1
 47 453 l 1
 33 337 l 1
 51 337 l 1
 58 368 64 388 75 399 c 0
 92 418 123 428 166 428 c 2
 317 428 l 1
 18 10 l 1
 18 0 l 1
 404 0 l 1
 421 120 l 1
EndSplineSet
Back
421 120 m 1
 404 0 l 1
 18 0 l 1
 18 10 l 1
 317 428 l 1
 166 428 l 2
 123 428 92 418 75 399 c 0
 70 394 65 386 62 375 c 0
 58 365 54 353 51 337 c 1
 33 337 l 1
 47 453 l 1
 407 453 l 1
 407 443 l 1
 111 26 l 1
 287 26 l 2
 328 26 356 36 374 55 c 0
 385 67 395 89 405 120 c 1
 421 120 l 1
EndSplineSet
EndChar
StartChar: bracketleft
Encoding: 91 91
Width: 257
Flags: HW
HStem: -87 21<84 231 231 231> 463 20<84 231 84 84>
VStem: 84 53<-33 435 435 445.5>
Fore
231 -87 m 1
 231 -70 l 1
 171 -70 l 2
 148 -70 137 -58 137 -33 c 2
 137 435 l 2
 137 456 147 466 168 466 c 2
 231 466 l 1
 231 483 l 1
 84 483 l 1
 84 -87 l 1
 231 -87 l 1
EndSplineSet
Back
231 -87 m 1
 84 -87 l 1
 84 483 l 1
 231 483 l 1
 231 466 l 1
 168 466 l 2
 147 466 137 456 137 435 c 2
 137 -33 l 2
 137 -58 148 -70 171 -70 c 2
 231 -70 l 1
 231 -87 l 1
EndSplineSet
EndChar
StartChar: backslash
Encoding: 92 92
Width: 249
Flags: HW
HStem: -121 21<215 253 253 253> 453 20<18 55 18 18>
Fore
253 -121 m 1
 55 473 l 1
 18 473 l 1
 215 -121 l 1
 253 -121 l 1
EndSplineSet
Back
253 -121 m 1
 215 -121 l 1
 18 473 l 1
 55 473 l 1
 253 -121 l 1
EndSplineSet
EndChar
StartChar: bracketright
Encoding: 93 93
Width: 257
Flags: HW
HStem: -87 21<46 193 193 193> 463 20<46 193 46 46>
VStem: 140 53<-49.5 -39 -39 429>
Fore
193 -87 m 1
 193 483 l 1
 46 483 l 1
 46 466 l 1
 106 466 l 2
 129 466 140 454 140 429 c 2
 140 -39 l 2
 140 -60 130 -70 109 -70 c 2
 46 -70 l 1
 46 -87 l 1
 193 -87 l 1
EndSplineSet
Back
193 -87 m 1
 46 -87 l 1
 46 -70 l 1
 109 -70 l 2
 130 -70 140 -60 140 -39 c 2
 140 429 l 2
 140 454 129 466 106 466 c 2
 46 466 l 1
 46 483 l 1
 193 483 l 1
 193 -87 l 1
EndSplineSet
EndChar
StartChar: asciicircum
Encoding: 94 94
Width: 361
Flags: HW
HStem: 208 21<39 79 79 79 294 334 334 334> 443 20<165 207 165 165>
Fore
334 208 m 1
 207 463 l 1
 165 463 l 1
 39 208 l 1
 79 208 l 1
 179 410 l 1
 186 426 l 1
 294 208 l 1
 334 208 l 1
EndSplineSet
Back
334 208 m 1
 294 208 l 1
 186 426 l 1
 179 410 l 1
 79 208 l 1
 39 208 l 1
 165 463 l 1
 207 463 l 1
 334 208 l 1
EndSplineSet
EndChar
StartChar: underscore
Encoding: 95 95
Width: 386
Flags: HW
HStem: -85 35<22 372>
Fore
372 -85 m 1
 372 -50 l 1
 22 -50 l 1
 22 -85 l 1
 372 -85 l 1
EndSplineSet
Back
372 -85 m 1
 22 -85 l 1
 22 -50 l 1
 372 -50 l 1
 372 -85 l 1
EndSplineSet
EndChar
StartChar: grave
Encoding: 96 96
Width: 180
Flags: HW
HStem: 248 21<127 146 146 146> 312 20<47.5 56.5>
Fore
146 248 m 1
 74 321 l 2
 67 328 60 332 53 332 c 0
 42 332 37 327 37 317 c 0
 38 308 43 301 51 296 c 2
 127 248 l 1
 146 248 l 1
EndSplineSet
Back
146 248 m 1
 127 248 l 1
 51 296 l 2
 43 301 39 308 37 317 c 0
 37 327 42 332 53 332 c 0
 60 332 67 328 74 321 c 2
 146 248 l 1
EndSplineSet
EndChar
StartChar: a
Encoding: 97 97
Width: 340
Flags: HMW
HStem: -5 43 327 20<147.5 205>
VStem: 26 66 215 61<93 93 93 203 221 226 226 267 221 221>
Fore
330 31 m 1
 330 51 l 1
 320 42 309 37 298 37 c 0
 283 38 276 52 276 79 c 2
 276 226 l 2
 276 310 247 347 163 347 c 0
 132 347 106 340 83 327 c 0
 54 310 40 289 40 263 c 0
 40 242 53 230 72 230 c 0
 80 230 89 233 98 240 c 1
 104 248 107 256 107 263 c 0
 107 267 102 282 102 290 c 2
 102 292 l 1
 105 317 124 329 157 329 c 0
 196 329 215 308 215 267 c 2
 215 221 l 1
 136 189 91 168 75 157 c 0
 42 135 26 106 26 71 c 0
 26 24 59 -5 106 -5 c 0
 137 -5 174 13 216 48 c 1
 216 13 232 -5 264 -5 c 0
 288 -5 310 7 330 31 c 1
215 93 m 1
 212 81 212 71 209 66 c 0
 193 47 171 38 143 38 c 0
 126 38 114 43 107 54 c 0
 97 67 92 82 92 98 c 0
 92 141 133 176 215 203 c 1
 215 93 l 1
EndSplineSet
Back
330 31 m 1
 310 7 288 -5 264 -5 c 0
 232 -5 216 13 216 48 c 1
 174 13 137 -5 106 -5 c 0
 83 -5 63 2 48 16 c 0
 34 29 26 48 26 71 c 0
 26 106 42 135 75 157 c 0
 83 162 99 170 122 181 c 0
 145 192 176 205 215 221 c 1
 215 267 l 2
 215 308 196 329 157 329 c 0
 124 329 105 317 102 292 c 1
 102 290 l 2
 102 286 103 281 104 275 c 0
 106 269 107 265 107 263 c 0
 107 256 104 248 98 240 c 1
 89 233 80 230 72 230 c 0
 62 230 55 233 49 238 c 0
 43 244 40 252 40 263 c 0
 40 289 54 311 83 327 c 0
 105 340 132 347 163 347 c 0
 205 347 234 337 251 318 c 0
 268 299 276 268 276 226 c 2
 276 79 l 2
 276 52 283 38 298 37 c 0
 310 37 320 42 330 51 c 1
 330 31 l 1
215 93 m 1
 215 203 l 1
 133 176 92 141 92 98 c 0
 92 82 97 67 107 54 c 0
 114 43 126 38 143 38 c 0
 171 38 193 47 209 66 c 0
 210 69 211 72 212 77 c 0
 213 82 214 87 215 93 c 1
EndSplineSet
EndChar
StartChar: b
Encoding: 98 98
Width: 392
Flags: HW
HStem: -5 22<186.5 213> 301 46<210.5 218.5> 496 20<125 125>
VStem: 64 64<54 242 242 250.5 286 433> 297 68<158.5 172.5>
Fore
365 180 m 0
 365 223 354 261 333 294 c 1
 308 329 274 347 230 347 c 0
 191 347 136 322 128 286 c 1
 128 515 l 1
 125 516 l 1
 74 500 38 490 14 483 c 1
 14 471 l 1
 31 472 l 1
 35 472 l 2
 48 472 56 469 61 462 c 0
 63 459 64 450 64 433 c 2
 64 42 l 2
 64 29 79 17 110 7 c 0
 134 -1 158 -5 182 -5 c 0
 244 -5 291 17 324 61 c 0
 351 98 365 137 365 180 c 0
297 153 m 0
 297 62 264 17 199 17 c 0
 174 17 128 30 128 54 c 2
 128 242 l 2
 128 259 137 274 154 286 c 0
 168 296 184 301 202 301 c 0
 235 301 261 284 279 250 c 0
 292 223 297 192 297 153 c 0
EndSplineSet
Back
365 180 m 0
 365 137 352 98 324 61 c 0
 292 17 244 -5 182 -5 c 0
 158 -5 134 -1 110 7 c 0
 79 17 64 29 64 42 c 2
 64 433 l 2
 64 450 63 459 61 462 c 0
 56 469 48 472 35 472 c 2
 31 472 l 1
 14 471 l 1
 14 483 l 1
 26 486 41 491 60 496 c 0
 78 501 100 508 125 516 c 1
 128 515 l 1
 128 286 l 1
 130 295 135 304 142 311 c 0
 149 318 158 325 167 330 c 0
 177 335 188 339 199 342 c 0
 209 346 220 347 230 347 c 0
 274 347 308 329 333 294 c 0
 354 261 365 223 365 180 c 0
297 153 m 0
 297 172 296 190 293 206 c 0
 291 222 286 237 279 250 c 0
 261 284 235 301 202 301 c 0
 184 301 168 296 154 286 c 0
 137 274 128 259 128 242 c 2
 128 54 l 2
 128 48 130 42 136 38 c 0
 141 33 146 29 154 26 c 0
 161 23 169 21 178 20 c 0
 186 18 193 17 199 17 c 0
 264 17 297 62 297 153 c 0
EndSplineSet
EndChar
StartChar: c
Encoding: 99 99
Width: 337
Flags: HW
HStem: -5 52<183.5 200.5> 238 109 326 21<171.5 199.5>
VStem: 28 58<172 187.5>
Fore
319 112 m 1
 309 118 l 1
 294 94 279 80 266 69 c 0
 247 54 228 47 201 47 c 0
 166 47 137 62 115 93 c 0
 96 119 86 152 86 192 c 0
 86 224 94 254 109 281 c 0
 127 311 152 326 184 326 c 0
 215 326 222 320 233 289 c 1
 237 273 l 1
 244 250 256 238 274 238 c 0
 297 238 309 249 309 270 c 0
 309 295 296 315 270 329 c 0
 249 341 225 347 197 347 c 0
 146 347 105 329 74 292 c 0
 43 257 28 213 28 162 c 0
 28 116 40 77 64 46 c 0
 90 12 125 -5 169 -5 c 0
 232 -5 282 34 319 112 c 1
EndSplineSet
Back
319 112 m 1
 282 34 232 -5 169 -5 c 0
 125 -5 90 12 64 46 c 0
 40 77 28 116 28 162 c 0
 28 213 43 257 74 292 c 0
 105 329 146 347 197 347 c 0
 225 347 250 341 270 329 c 0
 296 315 309 295 309 270 c 0
 309 249 297 238 274 238 c 0
 256 238 244 250 237 273 c 1
 233 289 l 1
 228 304 222 314 216 319 c 0
 210 324 199 326 184 326 c 0
 152 326 127 311 109 281 c 0
 94 254 86 224 86 192 c 0
 86 152 96 119 115 93 c 0
 137 62 166 47 201 47 c 0
 214 47 226 49 236 53 c 0
 247 56 257 62 266 69 c 0
 272 74 280 81 287 88 c 0
 294 96 302 106 309 118 c 1
 319 112 l 1
EndSplineSet
EndChar
StartChar: d
Encoding: 100 100
Width: 380
Flags: HW
HStem: -5 37<180.5 188.5> 327 20<170.5 197> 496 20<325 325>
VStem: 30 63<167.5 187.5> 263 67
Fore
380 32 m 1
 380 44 l 1
 367 43 l 2
 335 43 330 51 330 86 c 2
 330 515 l 1
 325 516 l 1
 261 494 l 1
 216 483 l 1
 216 470 l 1
 234 471 l 1
 238 471 l 2
 249 471 259 468 263 461 c 0
 266 456 266 448 266 433 c 2
 266 316 l 1
 241 337 215 347 186 347 c 0
 139 347 101 328 71 289 c 0
 44 253 30 213 30 162 c 0
 30 95 49 47 86 20 c 0
 109 3 136 -5 167 -5 c 0
 210 -5 243 10 266 41 c 1
 266 -3 l 1
 270 -5 l 1
 380 32 l 1
266 77 m 1
 258 47 236 32 199 32 c 0
 162 32 134 50 115 85 c 0
 100 112 93 146 93 189 c 0
 93 224 100 255 113 280 c 0
 129 311 154 327 187 327 c 0
 207 327 225 322 240 309 c 0
 255 295 264 276 266 252 c 1
 266 77 l 1
EndSplineSet
Back
380 32 m 1
 270 -5 l 1
 266 -3 l 1
 266 41 l 1
 243 10 210 -5 167 -5 c 0
 136 -5 109 3 86 20 c 0
 49 47 30 95 30 162 c 0
 30 188 34 210 41 231 c 0
 47 251 58 271 71 289 c 0
 101 328 139 347 186 347 c 0
 215 347 241 336 266 316 c 1
 266 433 l 2
 266 440 266 446 266 451 c 0
 265 455 264 458 263 461 c 0
 261 464 258 467 253 468 c 0
 249 470 243 471 238 471 c 2
 234 471 l 1
 216 470 l 1
 216 483 l 1
 261 494 l 1
 325 516 l 1
 330 515 l 1
 330 86 l 2
 330 69 332 57 336 51 c 0
 341 46 351 43 367 43 c 2
 380 44 l 1
 380 32 l 1
266 77 m 1
 266 252 l 1
 264 276 255 295 240 309 c 0
 233 315 225 320 215 323 c 0
 207 326 197 327 187 327 c 0
 154 327 129 312 113 280 c 0
 100 255 93 224 93 189 c 0
 93 167 95 148 99 131 c 0
 102 114 108 98 115 85 c 0
 134 50 162 32 199 32 c 0
 236 32 258 47 266 77 c 1
EndSplineSet
EndChar
StartChar: e
Encoding: 101 101
Width: 338
Flags: HW
HStem: -5 50<160.5 191.5> 209 25<82 238> 321 26<157.5 187>
VStem: 28 52<154.5 187.5>
Fore
329 119 m 1
 318 125 l 1
 283 72 244 45 201 45 c 0
 120 45 80 100 80 209 c 1
 314 209 l 1
 314 294 266 347 182 347 c 0
 133 347 95 328 66 289 c 0
 41 256 28 213 28 162 c 0
 28 147 29 135 30 124 c 0
 41 44 90 -5 169 -5 c 0
 214 -5 254 12 288 47 c 0
 309 70 322 95 329 119 c 1
238 234 m 1
 82 234 l 1
 94 292 122 321 166 321 c 0
 208 321 232 292 238 234 c 1
EndSplineSet
Back
329 119 m 1
 326 107 321 95 314 83 c 0
 307 70 299 58 288 47 c 0
 254 12 214 -5 169 -5 c 0
 130 -5 98 6 74 29 c 0
 50 53 35 84 30 124 c 0
 29 129 29 135 28 142 c 0
 28 148 28 155 28 162 c 0
 28 213 41 256 66 289 c 0
 95 328 133 347 182 347 c 0
 224 347 256 334 279 310 c 0
 303 285 314 251 314 209 c 1
 80 209 l 1
 80 100 120 45 201 45 c 0
 244 45 283 72 318 125 c 1
 329 119 l 1
238 234 m 1
 232 292 208 321 166 321 c 0
 122 321 94 292 82 234 c 1
 238 234 l 1
EndSplineSet
EndChar
StartChar: f
Encoding: 102 102
Width: 250
Flags: HW
HStem: 0 21<25 221 221 221> 317 23<26 88 151 243> 495 22<180.5 201.5>
VStem: 88 62<340 399> 88 63<78 317>
Fore
300 470 m 0
 300 485 290 498 271 507 c 0
 257 514 241 517 223 517 c 0
 133 517 88 458 88 340 c 1
 26 340 l 1
 26 317 l 1
 88 317 l 1
 88 78 l 2
 88 51 84 32 77 23 c 0
 72 18 57 12 42 12 c 0
 36 12 30 12 25 11 c 1
 25 0 l 1
 221 0 l 1
 221 11 l 1
 188 11 168 17 160 28 c 0
 154 37 151 53 151 78 c 2
 151 317 l 1
 243 317 l 1
 243 340 l 1
 150 340 l 1
 150 427 l 2
 150 472 165 495 196 495 c 0
 207 495 218 486 231 467 c 1
 246 448 258 439 266 439 c 0
 289 439 300 449 300 470 c 0
EndSplineSet
Back
300 470 m 0
 300 449 289 439 266 439 c 0
 258 439 246 448 231 467 c 1
 218 486 207 495 196 495 c 0
 166 495 150 472 150 427 c 2
 150 340 l 1
 243 340 l 1
 243 317 l 1
 151 317 l 1
 151 78 l 2
 151 53 154 37 160 28 c 0
 168 17 188 11 221 11 c 1
 221 0 l 1
 25 0 l 1
 25 11 l 1
 30 12 36 12 42 12 c 0
 49 12 54 13 57 14 c 0
 61 15 64 17 68 19 c 0
 73 20 76 21 77 23 c 0
 84 32 88 51 88 78 c 2
 88 317 l 1
 26 317 l 1
 26 340 l 1
 88 340 l 1
 88 458 133 517 223 517 c 0
 241 517 257 514 271 507 c 0
 291 498 300 485 300 470 c 0
EndSplineSet
EndChar
StartChar: g
Encoding: 103 103
Width: 359
Flags: HW
HStem: -140 21<123.5 181> -99 109 10 131 57 67 62 62 141 186<159.5 177.5> 327 20<146 177.5>
VStem: 21 50<-65 -58.5> 50 60<221.5 263> 237 56<197 221.5>
Fore
339 296 m 1
 339 324 l 1
 284 324 l 2
 273 324 257 326 244 331 c 0
 216 342 193 347 174 347 c 0
 102 347 50 299 50 227 c 0
 50 184 72 153 116 133 c 1
 73 96 52 70 52 54 c 0
 52 43 65 30 91 16 c 1
 44 -18 21 -47 21 -70 c 0
 21 -123 100 -140 147 -140 c 0
 215 -140 333 -97 333 -18 c 0
 333 26 296 54 245 57 c 2
 153 62 l 2
 114 64 95 71 95 82 c 0
 95 87 101 97 112 110 c 0
 123 121 131 126 137 126 c 2
 140 126 l 2
 153 123 166 123 179 123 c 0
 246 123 293 165 293 229 c 0
 293 251 288 273 279 296 c 1
 339 296 l 1
237 211 m 0
 237 164 219 141 184 141 c 0
 135 141 110 181 110 262 c 0
 110 305 128 327 164 327 c 0
 191 327 211 310 224 276 c 0
 233 254 237 232 237 211 c 0
313 -29 m 0
 313 -52 296 -70 261 -83 c 0
 233 -94 207 -99 180 -99 c 0
 107 -99 71 -82 71 -48 c 0
 71 -33 83 -12 106 15 c 1
 121 12 136 13 224 8 c 0
 255 5 273 5 278 4 c 0
 299 0 313 -12 313 -29 c 0
EndSplineSet
Back
339 296 m 1
 279 296 l 1
 289 273 293 251 293 229 c 0
 293 197 282 171 261 152 c 0
 240 133 212 123 179 123 c 0
 172 123 166 123 160 124 c 0
 153 124 146 125 140 126 c 2
 137 126 l 2
 131 126 123 121 112 110 c 0
 101 97 95 87 95 82 c 0
 95 71 114 64 153 62 c 2
 245 57 l 2
 271 56 292 48 308 35 c 0
 325 21 333 4 333 -18 c 0
 333 -38 327 -56 313 -70 c 0
 300 -85 285 -98 266 -108 c 0
 247 -119 227 -126 205 -132 c 0
 184 -137 165 -140 147 -140 c 0
 135 -140 122 -139 107 -137 c 0
 93 -134 80 -130 66 -125 c 0
 54 -120 42 -112 34 -104 c 0
 25 -95 21 -83 21 -70 c 0
 21 -47 44 -18 91 16 c 1
 65 30 52 42 52 54 c 0
 52 70 73 96 116 133 c 1
 72 153 50 185 50 227 c 0
 50 263 62 292 85 314 c 0
 108 336 138 347 174 347 c 0
 183 347 194 346 206 343 c 0
 217 340 230 336 244 331 c 0
 250 328 258 327 265 326 c 0
 272 325 279 324 284 324 c 2
 339 324 l 1
 339 296 l 1
237 211 m 0
 237 232 233 254 224 276 c 0
 211 310 191 327 164 327 c 0
 128 327 110 305 110 262 c 0
 110 181 135 141 184 141 c 0
 219 141 237 165 237 211 c 0
313 -29 m 0
 313 -21 310 -13 304 -7 c 0
 297 -2 289 2 278 4 c 0
 275 5 270 5 261 5 c 0
 251 6 239 7 224 8 c 0
 202 9 184 10 170 11 c 0
 157 12 146 12 138 13 c 0
 129 13 123 13 119 14 c 0
 114 14 110 14 106 15 c 1
 83 -12 71 -33 71 -48 c 0
 71 -82 107 -99 180 -99 c 0
 193 -99 207 -98 220 -95 c 0
 233 -92 247 -88 261 -83 c 0
 296 -70 313 -52 313 -29 c 0
EndSplineSet
EndChar
StartChar: h
Encoding: 104 104
Width: 381
Flags: HW
HStem: 0 21<18 180 180 180 219 378 378 378> 307 40<217.5 231.5> 496 20<126 126>
VStem: 66 63<77 259 286 460> 270 64<77 227>
Fore
378 0 m 1
 378 10 l 1
 359 17 346 23 339 31 c 1
 336 38 334 53 334 77 c 2
 334 228 l 2
 334 307 303 347 240 347 c 0
 195 347 158 327 129 286 c 1
 129 514 l 1
 126 516 l 1
 19 482 l 1
 19 469 l 1
 38 470 l 2
 49 470 59 467 66 460 c 1
 66 77 l 2
 66 53 64 37 59 30 c 0
 54 21 41 13 18 10 c 1
 18 0 l 1
 180 0 l 1
 180 10 l 1
 158 15 145 19 141 23 c 0
 132 32 129 50 129 77 c 2
 129 259 l 1
 159 291 187 307 212 307 c 0
 251 307 270 280 270 227 c 2
 270 77 l 2
 270 50 269 31 258 23 c 0
 250 16 237 12 219 10 c 1
 219 0 l 1
 378 0 l 1
EndSplineSet
Back
378 0 m 1
 219 0 l 1
 219 10 l 1
 237 12 250 16 258 23 c 0
 263 27 267 34 268 43 c 0
 270 52 270 63 270 77 c 2
 270 227 l 2
 270 280 250 307 212 307 c 0
 187 307 159 291 129 259 c 1
 129 77 l 2
 129 63 130 53 131 43 c 0
 133 35 136 28 141 23 c 0
 145 19 158 15 180 10 c 1
 180 0 l 1
 18 0 l 1
 18 10 l 1
 29 11 39 14 45 18 c 0
 52 21 56 25 59 30 c 0
 63 37 66 53 66 77 c 2
 66 460 l 1
 62 463 59 466 54 467 c 0
 48 469 43 470 38 470 c 2
 19 469 l 1
 19 482 l 1
 126 516 l 1
 129 514 l 1
 129 286 l 1
 158 327 195 347 240 347 c 0
 303 347 334 307 334 228 c 2
 334 77 l 2
 334 53 335 38 339 31 c 0
 342 27 347 23 354 20 c 0
 361 17 369 13 378 10 c 1
 378 0 l 1
EndSplineSet
EndChar
StartChar: i
Encoding: 105 105
Width: 197
Flags: HW
HStem: 0 21<16 196 16 16> 498 20<91.5 114.5>
VStem: 75 64<76 253 253 268.5>
Fore
196 0 m 1
 16 0 l 1
 16 10 l 1
 67 10 75 24 75 76 c 2
 75 253 l 2
 75 284 66 299 49 299 c 1
 19 295 l 1
 19 306 l 1
 136 348 l 1
 139 347 l 1
 139 76 l 2
 139 53 142 36 149 25 c 0
 153 19 169 14 196 10 c 1
 196 0 l 1
64 479 m 0
 64 502 80 518 103 518 c 0
 126 518 142 502 142 479 c 0
 142 456 126 440 103 440 c 0
 80 440 64 456 64 479 c 0
EndSplineSet
Back
196 0 m 1
 196 10 l 1
 168 14 153 19 149 25 c 0
 142 36 139 53 139 76 c 2
 139 347 l 1
 136 348 l 1
 19 306 l 1
 19 295 l 1
 49 299 l 1
 66 299 75 284 75 253 c 2
 75 76 l 2
 75 63 74 53 73 44 c 0
 72 35 69 28 64 23 c 0
 60 19 54 15 46 13 c 0
 39 11 29 10 16 10 c 1
 16 0 l 1
 196 0 l 1
64 479 m 0
 64 468 68 458 75 451 c 0
 83 444 92 440 103 440 c 0
 114 440 124 444 131 451 c 0
 138 458 142 468 142 479 c 0
 142 490 138 500 131 507 c 0
 124 514 114 518 103 518 c 0
 92 518 83 514 75 507 c 0
 68 500 64 490 64 479 c 0
EndSplineSet
EndChar
StartChar: j
Encoding: 106 106
Width: 189
Flags: HW
HStem: -163 21<-6.5 58.5> 0 21<82 83 83 83> 498 20<99.5 122.5>
VStem: -52 199 82 65<-32 -7 -7 0 0 0> 83 64<0 253 253 268.5>
Fore
147 347 m 1
 147 -7 l 2
 147 -111 101 -163 16 -163 c 0
 -29 -163 -52 -149 -52 -120 c 0
 -52 -112 -49 -105 -43 -99 c 1
 -33 -94 -27 -92 -24 -92 c 0
 -14 -92 -2 -99 12 -114 c 1
 28 -129 39 -137 44 -138 c 0
 59 -138 71 -128 78 -108 c 0
 81 -100 82 -75 82 -32 c 2
 82 0 l 1
 83 0 l 1
 83 253 l 2
 83 284 74 299 57 299 c 1
 27 295 l 1
 27 306 l 1
 144 348 l 1
 147 347 l 1
72 479 m 0
 72 502 88 518 111 518 c 0
 134 518 150 502 150 479 c 0
 150 456 134 440 111 440 c 0
 88 440 72 456 72 479 c 0
EndSplineSet
Back
147 347 m 1
 144 348 l 1
 27 306 l 1
 27 295 l 1
 57 299 l 1
 74 299 83 284 83 253 c 2
 83 0 l 1
 82 0 l 1
 82 -32 l 2
 82 -75 81 -100 78 -108 c 0
 71 -128 60 -138 44 -138 c 0
 39 -137 28 -129 12 -114 c 0
 -2 -99 -14 -92 -24 -92 c 0
 -27 -92 -33 -94 -43 -99 c 1
 -49 -105 -52 -112 -52 -120 c 0
 -52 -148 -29 -163 16 -163 c 0
 59 -163 91 -150 113 -124 c 0
 136 -98 147 -59 147 -7 c 2
 147 347 l 1
72 479 m 0
 72 468 76 458 83 451 c 0
 90 444 100 440 111 440 c 0
 123 440 132 444 139 451 c 0
 146 458 150 468 150 479 c 0
 150 490 146 500 139 507 c 0
 132 514 123 518 111 518 c 0
 100 518 90 514 83 507 c 0
 76 500 72 490 72 479 c 0
EndSplineSet
EndChar
StartChar: k
Encoding: 107 107
Width: 386
Flags: HW
HStem: 0 21<17 193 193 193 229 392 392 392> 320 20<219 372 219 219> 494 20<133 133>
VStem: 72 65<51.5 62 62 187 198 426>
Fore
392 0 m 1
 392 12 l 1
 360 13 331 33 304 66 c 2
 187 212 l 1
 257 273 l 2
 282 294 305 308 316 315 c 1
 331 322 348 327 372 327 c 1
 372 340 l 1
 219 340 l 1
 219 328 l 1
 245 328 258 324 258 315 c 0
 258 308 252 300 239 289 c 2
 137 198 l 1
 137 513 l 1
 133 514 l 1
 17 480 l 1
 17 469 l 1
 38 471 l 1
 42 471 l 2
 57 471 64 466 68 459 c 0
 71 454 72 443 72 426 c 2
 72 62 l 2
 72 41 66 30 58 21 c 0
 55 18 42 15 17 12 c 1
 17 0 l 1
 193 0 l 1
 193 12 l 1
 178 13 l 2
 151 13 137 25 137 50 c 2
 137 187 l 1
 260 23 l 1
 259 15 252 12 241 12 c 2
 229 12 l 1
 229 0 l 1
 392 0 l 1
EndSplineSet
Back
392 0 m 1
 229 0 l 1
 229 12 l 1
 241 12 l 2
 246 12 250 13 254 15 c 0
 257 16 259 19 260 23 c 1
 137 187 l 1
 137 50 l 2
 137 25 151 13 178 13 c 2
 193 12 l 1
 193 0 l 1
 17 0 l 1
 17 12 l 1
 42 15 55 19 58 21 c 0
 62 26 65 31 68 37 c 0
 71 43 72 51 72 62 c 2
 72 426 l 2
 72 443 71 454 68 459 c 0
 66 462 63 465 59 467 c 0
 55 470 49 471 42 471 c 2
 38 471 l 1
 17 469 l 1
 17 480 l 1
 133 514 l 1
 137 513 l 1
 137 198 l 1
 239 289 l 2
 251 300 258 308 258 315 c 0
 258 324 245 328 219 328 c 1
 219 340 l 1
 372 340 l 1
 372 327 l 1
 360 327 350 326 340 324 c 0
 332 321 323 318 316 315 c 0
 311 312 303 307 292 299 c 0
 281 292 270 284 257 273 c 2
 187 212 l 1
 304 66 l 2
 317 49 332 36 346 27 c 0
 361 18 376 13 392 12 c 1
 392 0 l 1
EndSplineSet
EndChar
StartChar: l
Encoding: 108 108
Width: 198
Flags: HW
HStem: 0 21<16 194 194 194> 497 20<137 137>
VStem: 74 63<64 66 66 426>
Fore
194 0 m 1
 194 10 l 1
 156 10 137 28 137 64 c 2
 137 517 l 1
 66 496 l 2
 58 493 31 487 14 483 c 1
 14 470 l 1
 44 472 l 2
 55 472 64 468 70 460 c 0
 73 455 74 443 74 426 c 2
 74 66 l 2
 74 26 59 15 16 10 c 1
 16 0 l 1
 194 0 l 1
EndSplineSet
Back
194 0 m 1
 16 0 l 1
 16 10 l 1
 37 13 52 18 61 25 c 0
 70 32 74 46 74 66 c 2
 74 426 l 2
 74 443 73 455 70 460 c 0
 64 468 55 472 44 472 c 2
 14 470 l 1
 14 483 l 1
 22 485 33 487 43 490 c 0
 55 493 62 495 66 496 c 2
 137 517 l 1
 137 64 l 2
 137 28 156 10 194 10 c 1
 194 0 l 1
EndSplineSet
EndChar
StartChar: m
Encoding: 109 109
Width: 598
Flags: HW
HStem: 0 21<22 190 190 190 226 395 395 395 430 595 595 595> 309 38<433 436.5>
VStem: 75 64<51 64 64 263> 278 64<70 229> 480 63<66 212 212 225 66 66>
Fore
595 0 m 1
 595 10 l 1
 576 13 l 2
 554 15 543 30 543 57 c 2
 543 212 l 2
 543 302 514 347 455 347 c 0
 411 347 370 326 333 285 c 1
 320 326 293 347 252 347 c 0
 242 347 231 345 219 340 c 0
 212 337 190 326 135 289 c 1
 135 347 l 1
 130 347 l 1
 65 325 l 2
 54 322 37 316 24 313 c 1
 24 301 l 1
 31 302 38 303 49 303 c 0
 58 303 64 301 66 298 c 0
 72 290 75 280 75 268 c 2
 75 64 l 2
 75 28 57 10 22 10 c 1
 22 0 l 1
 190 0 l 1
 190 10 l 1
 156 10 139 24 139 51 c 2
 139 263 l 1
 140 270 148 276 163 287 c 0
 182 302 202 309 225 309 c 0
 260 309 278 282 278 229 c 2
 278 65 l 2
 278 23 269 15 226 10 c 1
 226 0 l 1
 395 0 l 1
 395 10 l 1
 360 10 342 30 342 70 c 2
 342 262 l 1
 361 293 389 309 425 309 c 0
 448 309 464 300 472 282 c 0
 477 272 480 253 480 225 c 2
 480 66 l 1
 478 39 l 1
 476 27 470 19 461 16 c 0
 454 15 445 13 430 10 c 1
 430 0 l 1
 595 0 l 1
EndSplineSet
Back
595 0 m 1
 430 0 l 1
 430 10 l 1
 438 11 443 13 449 14 c 0
 454 15 458 15 461 16 c 0
 470 20 476 27 478 39 c 1
 480 66 l 1
 480 225 l 2
 480 253 478 272 472 282 c 0
 464 300 448 309 425 309 c 0
 389 309 361 293 342 262 c 1
 342 70 l 2
 342 30 360 10 395 10 c 1
 395 0 l 1
 226 0 l 1
 226 10 l 1
 237 11 245 13 252 15 c 0
 259 17 264 20 268 24 c 0
 272 28 275 33 276 40 c 0
 277 46 278 54 278 65 c 2
 278 229 l 2
 278 282 260 309 225 309 c 0
 202 309 182 302 163 287 c 0
 156 282 150 277 146 273 c 0
 142 270 140 266 139 263 c 1
 139 51 l 2
 139 23 156 10 190 10 c 1
 190 0 l 1
 22 0 l 1
 22 10 l 1
 57 10 75 28 75 64 c 2
 75 268 l 2
 75 280 72 290 66 298 c 0
 64 301 58 303 49 303 c 0
 43 303 39 303 35 303 c 0
 31 302 27 302 24 301 c 1
 24 313 l 1
 31 314 38 316 45 319 c 0
 53 322 60 324 65 325 c 2
 130 347 l 1
 135 347 l 1
 135 289 l 1
 162 308 182 320 195 328 c 0
 208 334 216 339 219 340 c 0
 231 345 242 347 252 347 c 0
 292 347 320 326 333 285 c 1
 370 326 411 347 455 347 c 0
 514 347 543 302 543 212 c 2
 543 57 l 2
 543 30 554 15 576 13 c 2
 595 10 l 1
 595 0 l 1
EndSplineSet
EndChar
StartChar: n
Encoding: 110 110
Width: 379
Flags: HW
HStem: 0 21<24 183 183 183 219 374 374 374> 304 42
VStem: 71 63<54 68 68 255> 266 63<61 74 74 232>
Fore
374 0 m 1
 374 10 l 1
 355 14 345 16 338 23 c 0
 332 31 329 44 329 61 c 2
 329 233 l 2
 329 308 300 346 242 346 c 0
 223 346 203 341 183 330 c 0
 170 322 153 307 132 284 c 1
 132 346 l 1
 125 346 l 1
 104 338 82 331 63 324 c 0
 56 321 38 315 22 312 c 1
 22 299 l 1
 26 300 33 301 44 301 c 0
 51 301 60 300 63 297 c 0
 68 290 71 276 71 255 c 2
 71 68 l 2
 71 40 63 21 46 14 c 1
 24 10 l 1
 24 0 l 1
 183 0 l 1
 183 10 l 1
 150 15 134 28 134 51 c 2
 134 263 l 1
 165 290 190 304 209 304 c 0
 247 304 266 280 266 232 c 2
 266 74 l 2
 266 47 261 30 252 23 c 1
 249 16 238 12 219 10 c 1
 219 0 l 1
 374 0 l 1
EndSplineSet
Back
374 0 m 1
 219 0 l 1
 219 10 l 1
 238 12 249 16 252 23 c 1
 261 30 266 47 266 74 c 2
 266 232 l 2
 266 280 247 304 209 304 c 0
 189 304 165 291 134 263 c 1
 134 51 l 2
 134 28 150 15 183 10 c 1
 183 0 l 1
 24 0 l 1
 24 10 l 1
 46 14 l 1
 55 17 61 23 65 33 c 0
 69 42 71 54 71 68 c 2
 71 255 l 2
 71 276 68 290 63 297 c 0
 62 298 59 299 55 300 c 0
 51 301 47 301 44 301 c 0
 33 301 26 300 22 299 c 1
 22 312 l 1
 30 313 38 315 46 318 c 0
 54 321 60 323 63 324 c 0
 72 327 83 331 93 334 c 0
 104 338 114 342 125 346 c 1
 132 346 l 1
 132 284 l 1
 143 295 152 305 161 312 c 0
 169 320 176 326 183 330 c 0
 203 341 223 346 242 346 c 0
 300 346 329 308 329 233 c 2
 329 61 l 2
 329 43 332 31 338 23 c 0
 341 20 346 17 352 16 c 0
 357 14 365 12 374 10 c 1
 374 0 l 1
EndSplineSet
EndChar
StartChar: o
Encoding: 111 111
Width: 383
Flags: HW
HStem: -5 21<147 245> 327 20<147 245>
VStem: 31 67<127.5 212.5> 294 69<127.5 212.5>
Fore
31 171 m 0
 31 267 98 347 196 347 c 0
 294 347 363 267 363 171 c 0
 363 75 294 -5 196 -5 c 0
 98 -5 31 75 31 171 c 0
98 170 m 0
 98 85 129 13 196 13 c 0
 265 13 294 85 294 170 c 0
 294 255 265 326 196 326 c 0
 129 326 98 255 98 170 c 0
EndSplineSet
Back
31 171 m 0
 31 147 35 125 43 103 c 0
 51 82 62 63 77 47 c 0
 92 31 109 19 129 9 c 0
 149 -0 171 -5 196 -5 c 0
 221 -5 243 -0 264 9 c 0
 284 19 301 31 316 47 c 0
 331 63 342 82 351 103 c 0
 359 125 363 147 363 171 c 0
 363 195 359 218 351 239 c 0
 342 260 331 279 316 295 c 0
 301 311 284 324 264 333 c 0
 243 342 221 347 196 347 c 0
 171 347 149 342 129 333 c 0
 109 324 92 311 77 295 c 0
 62 279 51 260 43 239 c 0
 35 218 31 195 31 171 c 0
98 170 m 0
 98 191 100 211 104 230 c 0
 108 250 114 266 122 280 c 0
 130 294 140 305 152 313 c 0
 165 322 179 326 196 326 c 0
 213 326 228 322 241 313 c 0
 253 305 263 294 271 280 c 0
 279 266 285 250 289 230 c 0
 292 211 294 191 294 170 c 0
 294 148 292 128 289 109 c 0
 285 90 279 74 271 60 c 0
 263 45 253 34 241 25 c 0
 228 17 213 13 196 13 c 0
 179 13 165 17 152 25 c 0
 140 34 130 45 122 60 c 0
 114 74 108 90 104 109 c 0
 100 128 98 148 98 170 c 0
EndSplineSet
EndChar
StartChar: p
Encoding: 112 112
Width: 378
Flags: HW
HStem: -151 168 -5 22<200.5 224.5> 327 20<127 127 219 283>
VStem: 67 63<-92 -86 -86 26 60 67 67 253> 301 64<141.5 193>
Fore
130 -86 m 2
 130 -107 135 -121 144 -128 c 0
 152 -134 169 -137 195 -137 c 1
 195 -151 l 1
 16 -151 l 1
 16 -139 l 1
 56 -139 67 -127 67 -92 c 2
 67 254 l 2
 67 271 66 281 64 286 c 0
 61 294 54 298 42 298 c 2
 18 297 l 1
 18 309 l 1
 127 347 l 1
 130 290 l 1
 160 328 197 347 241 347 c 0
 325 347 365 262 365 185 c 0
 365 88 308 -5 207 -5 c 0
 179 -5 153 5 130 26 c 1
 130 -86 l 2
301 161 m 0
 301 225 275 302 205 302 c 0
 175 302 135 280 130 253 c 1
 130 67 l 2
 130 53 140 41 160 31 c 0
 177 22 193 17 208 17 c 0
 241 17 266 33 282 66 c 0
 295 91 301 122 301 161 c 0
EndSplineSet
Back
130 -86 m 2
 130 26 l 1
 153 5 179 -5 207 -5 c 0
 232 -5 255 0 274 11 c 0
 294 21 311 36 324 54 c 0
 337 71 348 91 354 114 c 0
 361 138 365 161 365 185 c 0
 365 204 362 224 357 243 c 0
 353 262 345 280 334 295 c 0
 324 311 312 323 296 333 c 0
 281 342 262 347 241 347 c 0
 197 347 160 328 130 290 c 1
 127 347 l 1
 18 309 l 1
 18 297 l 1
 42 298 l 2
 54 298 62 294 64 286 c 0
 66 281 67 271 67 254 c 2
 67 -92 l 2
 67 -109 63 -122 57 -128 c 0
 49 -136 36 -139 16 -139 c 1
 16 -151 l 1
 195 -151 l 1
 195 -137 l 1
 169 -137 152 -134 144 -128 c 0
 135 -121 130 -107 130 -86 c 2
301 161 m 0
 301 123 294 91 282 66 c 0
 266 33 241 17 208 17 c 0
 193 17 177 21 160 31 c 0
 140 41 130 53 130 67 c 2
 130 253 l 1
 131 260 135 266 140 272 c 0
 146 278 151 283 159 288 c 0
 166 292 173 295 181 298 c 0
 189 301 197 302 205 302 c 0
 222 302 237 298 250 289 c 0
 262 280 272 269 279 255 c 0
 287 242 292 227 296 210 c 0
 299 193 301 177 301 161 c 0
EndSplineSet
EndChar
StartChar: q
Encoding: 113 113
Width: 338
Flags: HW
HStem: -160 199<198 206.5 198 198> -5 21<106.5 161.5> 326 21<155 208.5>
VStem: 267 62<-89 47 47 47 97 252 252 276.5>
Fore
377 -160 m 1
 198 -160 l 1
 198 -146 l 1
 245 -146 267 -129 267 -89 c 2
 267 47 l 1
 247 29 l 1
 219 11 l 1
 199 0 171 -5 152 -5 c 0
 61 -5 28 76 28 160 c 0
 28 260 93 347 196 347 c 0
 221 347 249 338 281 320 c 1
 323 346 l 1
 327 347 l 1
 329 345 l 1
 329 -105 l 2
 329 -128 345 -142 377 -148 c 1
 377 -160 l 1
267 97 m 1
 267 252 l 2
 267 301 242 326 193 326 c 0
 117 326 93 249 93 181 c 0
 93 117 119 39 189 39 c 0
 224 39 249 49 262 68 c 1
 267 97 l 1
EndSplineSet
Back
377 -160 m 1
 377 -148 l 1
 345 -142 329 -127 329 -105 c 2
 329 345 l 1
 327 347 l 1
 323 346 l 1
 281 320 l 1
 249 338 221 347 196 347 c 0
 170 347 146 342 126 332 c 0
 105 322 88 308 74 291 c 0
 59 273 48 254 40 231 c 0
 32 209 28 186 28 160 c 0
 28 139 30 119 35 99 c 0
 39 79 46 62 56 46 c 0
 66 31 79 19 95 9 c 0
 110 -0 129 -5 152 -5 c 0
 161 -5 172 -4 185 -1 c 0
 198 1 209 6 219 11 c 2
 247 29 l 1
 267 47 l 1
 267 -89 l 2
 267 -109 261 -124 250 -132 c 0
 239 -142 221 -146 198 -146 c 1
 198 -160 l 1
 377 -160 l 1
267 97 m 1
 262 68 l 1
 249 49 224 39 189 39 c 0
 172 39 157 43 145 52 c 0
 132 61 122 72 114 86 c 0
 107 100 102 115 98 132 c 0
 95 148 93 165 93 181 c 0
 93 198 95 215 98 232 c 0
 102 250 107 265 114 279 c 0
 122 293 132 304 146 313 c 0
 159 322 174 326 193 326 c 0
 242 326 267 301 267 252 c 2
 267 97 l 1
EndSplineSet
EndChar
StartChar: r
Encoding: 114 114
Width: 255
Flags: HW
HStem: 0 21<15 196 196 196> 327 20<128 132 128 128 208.5 237.5>
VStem: 68 64<69 238 238 243.5>
Fore
265 307 m 0
 265 334 251 347 224 347 c 0
 193 347 162 324 132 279 c 1
 132 347 l 1
 128 347 l 1
 101 336 65 324 17 307 c 1
 17 295 l 1
 43 298 l 2
 59 301 68 284 68 253 c 2
 68 64 l 2
 68 45 65 27 58 23 c 0
 51 19 38 15 15 10 c 1
 15 0 l 1
 196 0 l 1
 196 10 l 1
 153 10 132 30 132 69 c 2
 132 238 l 2
 132 249 138 262 150 278 c 0
 162 293 174 301 185 301 c 0
 201 301 214 273 236 273 c 0
 252 273 265 284 265 307 c 0
EndSplineSet
Back
265 307 m 0
 265 296 262 287 256 282 c 0
 251 276 244 273 236 273 c 0
 230 273 226 274 221 277 c 0
 216 280 212 284 208 287 c 0
 204 291 200 293 196 296 c 0
 193 299 189 301 185 301 c 0
 174 301 162 293 150 278 c 0
 138 262 132 249 132 238 c 2
 132 69 l 2
 132 30 153 10 196 10 c 1
 196 0 l 1
 15 0 l 1
 15 10 l 1
 26 13 36 15 42 17 c 0
 49 19 55 21 58 23 c 0
 62 25 64 30 65 38 c 0
 67 46 68 55 68 64 c 2
 68 253 l 2
 68 269 66 280 62 288 c 0
 57 296 51 299 43 298 c 2
 17 295 l 1
 17 307 l 1
 41 315 62 323 81 330 c 0
 99 336 115 342 128 347 c 1
 132 347 l 1
 132 279 l 1
 162 324 193 347 224 347 c 0
 251 347 265 333 265 307 c 0
EndSplineSet
EndChar
StartChar: s
Encoding: 115 115
Width: 289
Flags: HW
HStem: -5 21<145 180.5> 0 21<36 46 46 46> 321 20<224 233 224 224> 327 20<114.5 155.5>
VStem: 36 201 207 53<60 74.5>
Fore
260 90 m 0
 260 112 254 130 242 144 c 0
 233 155 218 166 197 179 c 2
 115 227 l 2
 93 240 82 257 82 280 c 1
 86 313 105 330 140 330 c 0
 182 330 210 299 224 238 c 1
 237 238 l 1
 233 341 l 1
 224 341 l 1
 220 334 216 331 211 331 c 1
 184 340 l 2
 176 343 169 347 142 347 c 0
 87 347 36 311 36 255 c 0
 36 226 45 204 62 190 c 2
 86 169 l 1
 168 120 l 2
 194 104 207 85 207 64 c 0
 207 27 186 9 145 9 c 0
 112 9 88 21 73 46 c 1
 60 77 l 1
 55 86 52 99 50 116 c 1
 36 116 l 1
 36 0 l 1
 46 0 l 1
 51 5 57 8 63 8 c 2
 102 1 l 2
 124 -3 140 -5 150 -5 c 0
 211 -5 260 30 260 90 c 0
EndSplineSet
Back
260 90 m 0
 260 60 250 37 228 20 c 0
 207 3 181 -5 150 -5 c 0
 140 -5 124 -3 102 1 c 2
 63 8 l 2
 57 8 51 5 46 0 c 1
 36 0 l 1
 36 116 l 1
 50 116 l 1
 52 99 55 86 60 77 c 1
 73 46 l 1
 88 21 112 9 145 9 c 0
 187 9 207 27 207 64 c 0
 207 85 194 104 168 120 c 2
 86 169 l 1
 62 190 l 2
 44 204 36 226 36 255 c 0
 36 269 39 282 45 293 c 0
 51 304 59 314 68 322 c 0
 78 330 89 336 102 340 c 0
 115 345 128 347 142 347 c 0
 155 347 165 346 170 345 c 0
 175 343 180 341 184 340 c 2
 211 331 l 1
 216 331 220 334 224 341 c 1
 233 341 l 1
 237 238 l 1
 224 238 l 1
 210 299 182 330 140 330 c 0
 105 330 86 313 82 280 c 1
 82 257 93 240 115 227 c 2
 197 179 l 2
 218 167 233 155 242 144 c 0
 254 130 260 112 260 90 c 0
EndSplineSet
EndChar
StartChar: t
Encoding: 116 116
Width: 208
Flags: HW
HStem: -5 37 315 25<121 198> 417 20<117 117>
VStem: 59 62<100 315>
Fore
215 50 m 1
 206 58 l 1
 191 41 175 32 159 32 c 0
 134 32 121 55 121 100 c 2
 121 315 l 1
 198 315 l 1
 198 340 l 1
 121 340 l 1
 121 426 l 1
 117 437 l 1
 93 401 75 376 50 351 c 0
 40 341 28 331 15 321 c 1
 18 315 l 1
 59 315 l 1
 59 89 l 2
 59 26 82 -5 127 -5 c 0
 161 -5 199 18 215 50 c 1
EndSplineSet
Back
215 50 m 1
 211 42 206 35 200 28 c 0
 193 21 186 16 178 11 c 0
 170 5 162 1 152 -1 c 0
 144 -4 135 -5 127 -5 c 0
 82 -5 59 26 59 89 c 2
 59 315 l 1
 18 315 l 1
 15 321 l 1
 28 331 40 341 50 351 c 0
 62 364 74 376 84 390 c 0
 94 403 105 419 117 437 c 1
 121 426 l 1
 121 340 l 1
 198 340 l 1
 198 315 l 1
 121 315 l 1
 121 100 l 2
 121 55 134 32 159 32 c 0
 175 32 190 41 206 58 c 1
 215 50 l 1
EndSplineSet
EndChar
StartChar: u
Encoding: 117 117
Width: 386
Flags: HW
HStem: -5 21<144.5 170> 320 20<18 127 18 18 206 326 206 206>
VStem: 64 63<95 281> 262 64<91.5 101 101 280>
Fore
372 27 m 1
 372 39 l 1
 333 39 326 45 326 82 c 2
 326 340 l 1
 206 340 l 1
 206 327 l 1
 249 327 262 320 262 280 c 2
 262 101 l 2
 262 82 258 69 250 64 c 1
 229 47 208 38 185 38 c 1
 160 41 l 1
 152 45 146 47 143 54 c 1
 132 65 127 78 127 95 c 2
 127 340 l 1
 18 340 l 1
 18 330 l 1
 33 330 43 327 49 321 c 1
 59 314 64 301 64 281 c 2
 64 91 l 2
 64 58 75 31 97 11 c 1
 115 0 134 -5 155 -5 c 0
 185 -5 211 5 233 25 c 1
 266 58 l 1
 267 -4 l 1
 327 15 l 2
 350 23 364 26 372 27 c 1
EndSplineSet
Back
372 27 m 1
 368 26 362 25 355 23 c 0
 348 22 338 19 327 15 c 2
 267 -4 l 1
 266 58 l 1
 233 25 l 1
 211 5 185 -5 155 -5 c 0
 134 -5 115 0 97 11 c 1
 75 31 64 58 64 91 c 2
 64 281 l 2
 64 301 59 314 49 321 c 1
 43 327 33 330 18 330 c 1
 18 340 l 1
 127 340 l 1
 127 95 l 2
 127 78 132 64 143 54 c 1
 145 51 146 48 149 46 c 0
 152 45 156 43 160 41 c 1
 185 38 l 1
 208 38 229 47 250 64 c 0
 258 69 262 82 262 101 c 2
 262 280 l 2
 262 300 258 313 250 318 c 0
 242 324 228 327 206 327 c 1
 206 340 l 1
 326 340 l 1
 326 82 l 2
 326 63 329 51 334 46 c 0
 340 42 353 39 372 39 c 1
 372 27 l 1
EndSplineSet
EndChar
StartChar: v
Encoding: 118 118
Width: 362
Flags: HW
HStem: -7 21<186 186> 320 20<7 154 7 7 247 352 247 247>
Fore
352 328 m 1
 352 340 l 1
 247 340 l 1
 247 328 l 1
 268 328 282 320 282 307 c 2
 282 303 l 1
 278 284 271 260 252 212 c 2
 203 87 l 1
 127 279 l 1
 123 291 120 298 120 305 c 0
 120 318 131 326 154 328 c 1
 154 340 l 1
 7 340 l 1
 7 328 l 1
 20 328 30 324 37 316 c 2
 49 300 l 1
 166 25 l 1
 179 1 l 1
 186 -7 l 1
 190 -2 l 1
 207 28 l 1
 303 269 l 1
 310 284 313 294 320 307 c 0
 328 321 339 328 352 328 c 1
EndSplineSet
Back
352 328 m 1
 339 328 328 321 320 307 c 0
 317 300 314 294 312 289 c 0
 309 283 306 276 303 269 c 1
 207 28 l 1
 190 -2 l 1
 186 -7 l 1
 179 1 l 1
 166 25 l 1
 49 300 l 1
 37 316 l 1
 30 324 20 328 7 328 c 1
 7 340 l 1
 154 340 l 1
 154 328 l 1
 131 326 120 318 120 305 c 0
 120 302 121 298 122 294 c 0
 124 290 125 285 127 279 c 2
 203 87 l 1
 252 212 l 2
 261 236 268 255 272 269 c 0
 277 282 280 293 282 303 c 1
 282 307 l 2
 282 313 279 319 272 322 c 0
 266 326 258 328 247 328 c 1
 247 340 l 1
 352 340 l 1
 352 328 l 1
EndSplineSet
EndChar
StartChar: w
Encoding: 119 119
Width: 524
Flags: HW
HStem: -7 21<168 168 355 357> 320 20<7 142 7 7 187 340 187 187 421 513 421 421>
Fore
513 328 m 1
 513 340 l 1
 421 340 l 1
 421 328 l 1
 442 322 453 314 453 303 c 0
 453 290 447 267 442 255 c 2
 373 88 l 1
 313 250 l 2
 302 279 297 296 297 300 c 0
 297 310 301 317 310 321 c 1
 340 328 l 1
 340 340 l 1
 187 340 l 1
 187 328 l 1
 204 325 216 319 223 312 c 1
 237 284 l 1
 255 235 l 1
 186 85 l 1
 134 221 l 2
 115 270 106 297 106 303 c 0
 106 318 118 326 142 328 c 1
 142 340 l 1
 7 340 l 1
 7 328 l 1
 20 327 29 322 32 312 c 1
 148 24 l 1
 151 13 158 3 168 -7 c 1
 173 0 l 1
 178 4 183 11 186 20 c 1
 271 200 l 1
 339 23 l 2
 347 3 353 -7 357 -7 c 1
 364 1 l 1
 378 27 l 1
 482 288 l 2
 492 313 502 326 513 328 c 1
EndSplineSet
Back
513 328 m 1
 502 326 492 312 482 288 c 2
 378 27 l 1
 364 1 l 1
 357 -7 l 1
 353 -7 347 3 339 23 c 2
 271 200 l 1
 186 20 l 1
 183 11 178 4 173 0 c 1
 168 -7 l 1
 158 3 151 13 148 24 c 1
 32 312 l 1
 29 322 21 327 7 328 c 1
 7 340 l 1
 142 340 l 1
 142 328 l 1
 118 326 106 318 106 303 c 0
 106 297 115 270 134 221 c 2
 186 85 l 1
 255 235 l 1
 237 284 l 1
 223 312 l 1
 216 319 204 325 187 328 c 1
 187 340 l 1
 340 340 l 1
 340 328 l 1
 310 321 l 1
 301 317 297 310 297 300 c 0
 297 296 302 279 313 250 c 2
 373 88 l 1
 442 255 l 2
 445 261 447 269 450 278 c 0
 452 288 453 296 453 303 c 0
 453 313 442 322 421 328 c 1
 421 340 l 1
 513 340 l 1
 513 328 l 1
EndSplineSet
EndChar
StartChar: x
Encoding: 120 120
Width: 376
Flags: HW
HStem: 0 21<14 123 123 123 211 363 363 363> 320 20<20 176 20 20 209 328 209 209>
Fore
363 0 m 1
 363 10 l 1
 339 13 321 29 302 56 c 1
 204 205 l 1
 267 296 l 2
 282 317 302 328 328 328 c 1
 328 340 l 1
 209 340 l 1
 209 328 l 1
 229 328 239 322 239 311 c 0
 238 303 221 277 189 230 c 1
 159 276 144 303 144 311 c 0
 144 322 155 328 176 328 c 1
 176 340 l 1
 20 340 l 1
 20 328 l 1
 50 324 l 1
 63 313 74 299 85 283 c 2
 156 175 l 1
 70 50 l 2
 59 35 51 24 40 19 c 1
 37 16 29 13 14 10 c 1
 14 0 l 1
 123 0 l 1
 123 10 l 1
 104 10 94 15 93 24 c 1
 94 32 100 43 108 56 c 2
 168 148 l 1
 229 55 l 2
 236 44 240 36 240 31 c 0
 240 22 237 16 231 14 c 2
 211 10 l 1
 211 0 l 1
 363 0 l 1
EndSplineSet
Back
363 0 m 1
 211 0 l 1
 211 10 l 1
 231 14 l 2
 237 16 240 21 240 31 c 0
 240 34 239 37 237 41 c 0
 235 45 232 50 229 55 c 2
 168 148 l 1
 108 56 l 2
 104 49 101 43 98 38 c 0
 95 33 94 28 93 24 c 0
 94 15 104 10 123 10 c 1
 123 0 l 1
 14 0 l 1
 14 10 l 1
 29 13 37 16 40 19 c 0
 45 21 50 26 55 31 c 0
 60 36 64 42 70 50 c 2
 156 175 l 1
 85 283 l 2
 74 299 62 312 50 324 c 1
 20 328 l 1
 20 340 l 1
 176 340 l 1
 176 328 l 1
 155 328 144 322 144 311 c 0
 144 303 159 276 189 230 c 1
 205 253 217 271 226 285 c 0
 234 298 238 307 239 311 c 0
 239 322 229 328 209 328 c 1
 209 340 l 1
 328 340 l 1
 328 328 l 1
 302 328 282 317 267 296 c 2
 204 205 l 1
 302 56 l 2
 312 42 321 32 331 24 c 0
 340 16 351 11 363 10 c 1
 363 0 l 1
EndSplineSet
EndChar
StartChar: y
Encoding: 121 121
Width: 370
Flags: HW
HStem: -169 80<54.5 65.5> 320 20<11 167 167 167 257 359 359 359>
Fore
206 -13 m 2
 167 -117 122 -169 73 -169 c 0
 36 -169 17 -154 17 -124 c 0
 17 -101 29 -89 54 -89 c 0
 77 -89 96 -104 109 -104 c 0
 126 -104 143 -85 160 -48 c 1
 184 9 l 1
 184 12 184 14 183 15 c 1
 49 305 l 1
 45 318 32 326 11 330 c 1
 11 340 l 1
 167 340 l 1
 167 329 l 1
 137 329 122 322 122 307 c 0
 122 299 125 290 131 280 c 1
 218 88 l 1
 294 308 l 1
 294 322 282 329 257 329 c 1
 257 340 l 1
 359 340 l 1
 359 329 l 1
 343 329 331 318 323 295 c 1
 206 -13 l 2
EndSplineSet
Back
206 -13 m 2
 323 295 l 1
 331 318 343 329 359 329 c 1
 359 340 l 1
 257 340 l 1
 257 329 l 1
 282 329 294 322 294 308 c 1
 218 88 l 1
 131 280 l 1
 125 290 122 299 122 307 c 0
 122 322 137 329 167 329 c 1
 167 340 l 1
 11 340 l 1
 11 330 l 1
 32 326 45 318 49 305 c 1
 183 15 l 2
 184 14 184 12 184 9 c 1
 160 -48 l 1
 144 -85 126 -104 109 -104 c 0
 103 -104 94 -102 85 -97 c 0
 76 -91 65 -89 54 -89 c 0
 29 -89 17 -101 17 -124 c 0
 17 -154 36 -169 73 -169 c 0
 123 -169 167 -117 206 -13 c 2
EndSplineSet
EndChar
StartChar: z
Encoding: 122 122
Width: 332
Flags: HW
HStem: 0 23<92 196> 316 24<107 213 213 213>
Fore
306 100 m 1
 293 104 l 1
 282 43 262 23 196 23 c 2
 92 23 l 1
 296 328 l 1
 296 340 l 1
 32 340 l 1
 29 250 l 1
 45 250 l 1
 48 287 59 316 107 316 c 2
 213 316 l 1
 12 10 l 1
 12 0 l 1
 297 0 l 1
 306 100 l 1
EndSplineSet
Back
306 100 m 1
 297 0 l 1
 12 0 l 1
 12 10 l 1
 213 316 l 1
 107 316 l 2
 95 316 85 314 78 311 c 0
 70 308 63 303 59 297 c 0
 54 291 51 284 49 276 c 0
 47 268 46 259 45 250 c 1
 29 250 l 1
 32 340 l 1
 296 340 l 1
 296 328 l 1
 92 23 l 1
 196 23 l 2
 213 23 227 24 237 27 c 0
 249 30 258 34 265 41 c 0
 272 47 278 55 283 65 c 0
 287 76 291 89 293 104 c 1
 306 100 l 1
EndSplineSet
EndChar
StartChar: braceleft
Encoding: 123 123
Width: 240
Flags: HW
HStem: -125 21<197.5 217> 456 20<197.5 217>
VStem: 101 52<-31 -27 -27 85 85 95 265 379>
Fore
217 -125 m 1
 217 -117 l 1
 169 -104 153 -82 153 -31 c 2
 153 85 l 2
 153 141 142 159 90 175 c 1
 115 182 132 192 141 203 c 1
 149 217 153 238 153 265 c 2
 153 382 l 2
 153 434 168 457 217 468 c 1
 217 476 l 1
 178 476 149 470 132 458 c 0
 111 443 101 417 101 379 c 2
 101 254 l 2
 101 207 86 187 42 175 c 1
 87 163 101 143 101 95 c 2
 101 -27 l 2
 101 -66 111 -92 132 -107 c 0
 149 -119 178 -125 217 -125 c 1
EndSplineSet
Back
217 -125 m 1
 178 -125 149 -119 132 -107 c 0
 111 -92 101 -65 101 -27 c 2
 101 95 l 2
 101 119 97 137 88 148 c 0
 80 160 64 169 42 175 c 1
 64 181 79 190 88 202 c 0
 97 213 101 230 101 254 c 2
 101 379 l 2
 101 417 111 443 132 458 c 0
 149 470 178 476 217 476 c 1
 217 468 l 1
 192 463 175 454 167 440 c 0
 158 428 153 408 153 382 c 2
 153 265 l 2
 153 238 149 217 141 203 c 1
 132 192 115 182 90 175 c 1
 104 171 114 167 122 162 c 0
 130 157 136 152 141 145 c 0
 146 138 149 130 150 121 c 0
 152 111 153 99 153 85 c 2
 153 -31 l 2
 153 -56 158 -75 167 -88 c 0
 176 -101 193 -110 217 -117 c 1
 217 -125 l 1
EndSplineSet
EndChar
StartChar: bar
Encoding: 124 124
Width: 155
Flags: HW
HStem: -121 21<62 97 97 97> 453 20<62 97 62 62>
VStem: 62 35<-121 473>
Fore
97 -121 m 1
 97 473 l 1
 62 473 l 1
 62 -121 l 1
 97 -121 l 1
EndSplineSet
Back
97 -121 m 1
 62 -121 l 1
 62 473 l 1
 97 473 l 1
 97 -121 l 1
EndSplineSet
EndChar
StartChar: braceright
Encoding: 125 125
Width: 240
Flags: HW
HStem: -125 21<26 46> 456 20<26 46.5>
VStem: 90 51<-27 85 254 265 265 378 378 382>
Fore
201 175 m 1
 161 186 141 213 141 254 c 2
 141 378 l 2
 141 417 131 444 112 458 c 0
 95 470 67 476 26 476 c 1
 26 468 l 1
 74 456 90 433 90 382 c 2
 90 265 l 2
 90 209 102 189 153 174 c 1
 126 167 109 157 101 143 c 0
 94 132 90 112 90 85 c 2
 90 -31 l 2
 90 -78 69 -106 26 -117 c 1
 26 -125 l 1
 66 -125 94 -119 111 -107 c 0
 131 -92 141 -66 141 -27 c 2
 141 95 l 2
 141 142 156 163 201 175 c 1
EndSplineSet
Back
201 175 m 1
 178 169 163 160 154 148 c 0
 146 136 141 118 141 95 c 2
 141 -27 l 2
 141 -65 131 -92 111 -107 c 0
 94 -119 66 -125 26 -125 c 1
 26 -117 l 1
 69 -106 90 -78 90 -31 c 2
 90 85 l 2
 90 112 94 132 101 143 c 0
 109 157 126 167 153 174 c 1
 127 181 111 191 103 204 c 0
 94 217 90 237 90 265 c 2
 90 382 l 2
 90 407 85 426 76 439 c 0
 67 453 50 462 26 468 c 1
 26 476 l 1
 67 476 95 470 112 458 c 0
 131 444 141 417 141 378 c 2
 141 254 l 2
 141 213 161 187 201 175 c 1
EndSplineSet
EndChar
StartChar: asciitilde
Encoding: 126 126
Width: 418
Flags: HW
HStem: 128 21<75 75> 178 45<123 143.5> 206 20<348 348>
Fore
373 191 m 1
 348 226 l 1
 327 193 306 176 287 176 c 0
 272 177 247 185 213 200 c 0
 178 215 153 223 137 223 c 0
 100 223 71 203 50 163 c 1
 75 128 l 1
 92 161 112 178 134 178 c 0
 153 178 178 170 211 154 c 0
 246 139 271 131 286 131 c 0
 308 131 325 137 338 150 c 2
 353 165 l 1
 373 191 l 1
EndSplineSet
Back
373 191 m 1
 353 165 l 1
 338 150 l 2
 325 137 308 131 286 131 c 0
 271 131 246 139 211 154 c 0
 178 170 153 178 134 178 c 0
 112 178 92 161 75 128 c 1
 50 163 l 1
 71 203 100 223 137 223 c 0
 153 223 178 215 213 200 c 0
 247 186 271 177 287 176 c 0
 306 176 327 193 348 226 c 1
 373 191 l 1
EndSplineSet
EndChar
StartChar: uniF700
Encoding: 128 63232
Width: 355
Flags: HW
HStem: 0 21<193 245 193 193> 220 59 299 42 325 20<237 254.5> 365 20<99 136.5> 380 21<284 305 305 305>
VStem: 193 52<0 48 161 196 196 196>
Fore
245 197 m 1
 245 0 l 1
 193 0 l 1
 193 96 172 158 140 186 c 1
 143 179 145 171 145 160 c 0
 145 132 128 106 101 106 c 0
 77 106 58 135 58 162 c 0
 58 195 76 220 113 220 c 0
 148 220 178 200 193 161 c 1
 193 196 l 1
 192 233 170 257 128 268 c 0
 102 275 66 279 20 279 c 1
 28 337 71 385 127 385 c 0
 146 385 164 382 183 373 c 0
 199 365 231 345 243 345 c 0
 266 345 275 360 284 380 c 1
 305 380 l 1
 293 337 268 316 231 316 c 0
 220 316 203 319 179 327 c 0
 156 334 137 341 125 341 c 0
 86 341 62 327 53 298 c 1
 60 299 68 300 92 300 c 0
 132 300 166 293 193 278 c 0
 227 259 244 232 245 197 c 1
126 162 m 0
 126 178 117 197 101 197 c 0
 86 197 77 182 77 162 c 0
 77 138 86 125 101 125 c 0
 114 125 126 138 126 162 c 0
EndSplineSet
Back
245 197 m 1
 244 231 227 259 193 278 c 0
 166 292 132 300 92 300 c 0
 80 300 71 300 66 299 c 0
 61 299 56 299 53 298 c 1
 62 327 85 341 125 341 c 0
 131 341 139 339 148 336 c 0
 157 333 167 331 179 327 c 0
 191 323 201 320 210 318 c 0
 219 317 226 316 231 316 c 0
 269 316 293 337 305 380 c 1
 284 380 l 1
 279 370 274 362 269 355 c 0
 263 348 254 345 243 345 c 0
 240 345 235 346 230 349 c 0
 226 351 220 354 214 356 c 0
 209 359 203 362 197 366 c 0
 192 369 187 371 183 373 c 0
 174 377 165 381 155 382 c 0
 146 384 136 385 127 385 c 0
 113 385 100 382 88 376 c 0
 76 371 65 363 56 354 c 0
 46 344 38 333 32 320 c 0
 26 307 22 293 20 279 c 1
 66 279 102 275 128 268 c 0
 170 257 192 233 193 196 c 1
 193 161 l 1
 186 180 175 195 161 205 c 0
 146 215 130 220 113 220 c 0
 94 220 81 214 71 204 c 0
 62 192 58 179 58 162 c 0
 58 148 62 136 70 124 c 0
 79 112 89 106 101 106 c 0
 114 106 125 111 133 123 c 0
 141 133 145 146 145 160 c 0
 145 171 144 179 140 186 c 1
 156 172 169 149 179 119 c 0
 188 87 193 48 193 0 c 1
 245 0 l 1
 245 197 l 1
126 162 m 0
 126 150 124 141 119 134 c 0
 113 128 108 125 101 125 c 0
 94 125 88 128 83 134 c 0
 79 141 77 150 77 162 c 0
 77 172 79 180 83 187 c 0
 88 194 94 197 101 197 c 0
 109 197 115 193 120 186 c 0
 124 178 126 170 126 162 c 0
EndSplineSet
EndChar
StartChar: uniF701
Encoding: 129 63233
Width: 0
Flags: HW
HStem: 422 21 560 20<-303.5 -255.5>
Fore
-160 456 m 1
 -185 472 -210 484 -241 491 c 0
 -264 496 -280 499 -307 499 c 0
 -324 499 -346 500 -346 515 c 0
 -346 539 -310 545 -285 545 c 0
 -227 545 -171 488 -160 456 c 1
-135 422 m 1
 -135 513 -221 580 -290 580 c 0
 -317 580 -340 574 -359 563 c 0
 -376 552 -400 528 -400 505 c 0
 -400 498 -395 487 -388 482 c 0
 -379 475 -363 472 -342 472 c 0
 -337 473 -330 473 -323 473 c 2
 -304 473 l 2
 -277 473 -250 469 -229 462 c 1
 -194 453 -160 439 -135 422 c 1
EndSplineSet
Back
-160 456 m 1
 -163 464 -168 473 -175 483 c 0
 -183 494 -193 503 -205 513 c 0
 -216 521 -229 529 -243 536 c 0
 -256 542 -271 545 -285 545 c 0
 -291 545 -298 544 -305 543 c 0
 -312 542 -319 541 -325 539 c 0
 -331 537 -336 534 -340 530 c 0
 -344 526 -346 521 -346 515 c 0
 -346 508 -342 503 -333 501 c 0
 -324 500 -315 499 -307 499 c 0
 -293 499 -282 499 -272 497 c 0
 -263 496 -252 494 -241 491 c 0
 -226 488 -211 483 -199 477 c 0
 -186 471 -173 464 -160 456 c 1
-135 422 m 1
 -147 431 -162 438 -179 445 c 0
 -195 452 -211 458 -229 462 c 0
 -240 465 -251 468 -265 470 c 0
 -277 472 -291 473 -304 473 c 0
 -310 473 -315 473 -323 473 c 0
 -331 473 -336 473 -342 472 c 0
 -363 472 -379 475 -388 482 c 0
 -391 485 -394 488 -396 493 c 0
 -399 498 -400 501 -400 505 c 0
 -400 516 -396 527 -386 539 c 0
 -376 549 -368 558 -359 563 c 0
 -340 574 -317 580 -290 580 c 0
 -272 580 -255 576 -236 568 c 0
 -218 560 -202 549 -187 535 c 0
 -171 521 -159 504 -149 485 c 0
 -140 466 -135 445 -135 422 c 1
EndSplineSet
EndChar
StartChar: uniF702
Encoding: 130 63234
Width: 0
Flags: HW
HStem: 422 21 595 20<-189 -150 -150 -150>
VStem: -189 39<537 615>
Fore
-150 615 m 1
 -150 486 l 1
 -140 466 -135 445 -135 422 c 1
 -160 439 -194 453 -229 462 c 1
 -250 469 -277 473 -304 473 c 2
 -323 473 l 2
 -330 473 -337 473 -342 472 c 0
 -363 472 -379 475 -388 482 c 0
 -395 487 -400 498 -400 505 c 0
 -400 528 -376 552 -359 563 c 0
 -340 574 -317 580 -290 580 c 0
 -255 580 -220 564 -189 537 c 1
 -189 615 l 1
 -150 615 l 1
-160 456 m 1
 -171 488 -227 545 -285 545 c 0
 -310 545 -346 539 -346 515 c 0
 -346 500 -324 499 -307 499 c 0
 -280 499 -264 496 -241 491 c 0
 -210 484 -185 472 -160 456 c 1
EndSplineSet
Back
-150 615 m 1
 -189 615 l 1
 -189 537 l 1
 -204 550 -221 561 -238 568 c 0
 -255 576 -272 580 -290 580 c 0
 -317 580 -340 574 -359 563 c 0
 -368 558 -376 549 -386 539 c 0
 -396 527 -400 516 -400 505 c 0
 -400 501 -399 498 -396 493 c 0
 -394 488 -391 485 -388 482 c 0
 -379 475 -363 472 -342 472 c 0
 -336 473 -331 473 -323 473 c 0
 -315 473 -310 473 -304 473 c 0
 -291 473 -277 472 -265 470 c 0
 -251 468 -240 465 -229 462 c 0
 -211 458 -195 452 -179 445 c 0
 -162 438 -147 431 -135 422 c 1
 -135 445 -140 466 -150 486 c 1
 -150 615 l 1
-160 456 m 1
 -173 464 -186 471 -199 477 c 0
 -211 483 -226 488 -241 491 c 0
 -252 494 -263 496 -272 497 c 0
 -282 499 -293 499 -307 499 c 0
 -315 499 -324 500 -333 501 c 0
 -342 503 -346 508 -346 515 c 0
 -346 521 -344 526 -340 530 c 0
 -336 534 -331 537 -325 539 c 0
 -319 541 -312 542 -305 543 c 0
 -298 544 -291 545 -285 545 c 0
 -271 545 -256 542 -243 536 c 0
 -229 529 -216 521 -205 513 c 0
 -193 503 -183 494 -175 483 c 0
 -168 473 -163 464 -160 456 c 1
EndSplineSet
EndChar
StartChar: uniF703
Encoding: 131 63235
Width: 0
Flags: HW
HStem: 422 21 595 20<-203.5 -174.5>
Fore
-135 422 m 1
 -160 439 -194 453 -229 462 c 1
 -250 469 -277 473 -304 473 c 2
 -323 473 l 2
 -330 473 -337 473 -342 472 c 0
 -363 472 -379 475 -388 482 c 0
 -395 487 -400 498 -400 505 c 0
 -400 528 -376 552 -359 563 c 0
 -340 574 -317 580 -290 580 c 0
 -275 580 -259 577 -244 571 c 1
 -239 596 -217 615 -190 615 c 0
 -159 615 -135 591 -135 560 c 0
 -135 539 -146 520 -165 511 c 1
 -145 485 -135 455 -135 422 c 1
-160 456 m 1
 -171 488 -227 545 -285 545 c 0
 -310 545 -346 539 -346 515 c 0
 -346 500 -324 499 -307 499 c 0
 -280 499 -264 496 -241 491 c 0
 -210 484 -185 472 -160 456 c 1
-220 560 m 0
 -220 543 -207 530 -190 530 c 0
 -173 530 -160 543 -160 560 c 0
 -160 577 -173 590 -190 590 c 0
 -207 590 -220 577 -220 560 c 0
EndSplineSet
Back
-135 422 m 1
 -135 456 -145 485 -165 511 c 1
 -156 516 -148 522 -143 531 c 0
 -138 540 -135 549 -135 560 c 0
 -135 575 -140 588 -151 599 c 0
 -162 610 -175 615 -190 615 c 0
 -203 615 -215 611 -225 603 c 0
 -235 594 -241 583 -244 571 c 1
 -259 577 -275 580 -290 580 c 0
 -317 580 -340 574 -359 563 c 0
 -368 558 -376 549 -386 539 c 0
 -396 527 -400 516 -400 505 c 0
 -400 501 -399 498 -396 493 c 0
 -394 488 -391 485 -388 482 c 0
 -379 475 -363 472 -342 472 c 0
 -336 473 -331 473 -323 473 c 0
 -315 473 -310 473 -304 473 c 0
 -291 473 -277 472 -265 470 c 0
 -251 468 -240 465 -229 462 c 0
 -211 458 -195 452 -179 445 c 0
 -162 438 -147 431 -135 422 c 1
-160 456 m 1
 -173 464 -186 471 -199 477 c 0
 -211 483 -226 488 -241 491 c 0
 -252 494 -263 496 -272 497 c 0
 -282 499 -293 499 -307 499 c 0
 -315 499 -324 500 -333 501 c 0
 -342 503 -346 508 -346 515 c 0
 -346 521 -344 526 -340 530 c 0
 -336 534 -331 537 -325 539 c 0
 -319 541 -312 542 -305 543 c 0
 -298 544 -291 545 -285 545 c 0
 -271 545 -256 542 -243 536 c 0
 -229 529 -216 521 -205 513 c 0
 -193 503 -183 494 -175 483 c 0
 -168 473 -163 464 -160 456 c 1
-220 560 m 0
 -220 569 -217 576 -211 582 c 0
 -206 587 -199 590 -190 590 c 0
 -181 590 -174 587 -168 582 c 0
 -163 576 -160 569 -160 560 c 0
 -160 551 -163 544 -168 539 c 0
 -174 533 -181 530 -190 530 c 0
 -199 530 -206 533 -211 539 c 0
 -217 544 -220 551 -220 560 c 0
EndSplineSet
EndChar
StartChar: uniF704
Encoding: 132 63236
Width: 0
Flags: HW
HStem: 422 21 595 20<-245 -210 -210 -210 -185 -150 -150 -150>
VStem: -185 35<534 615>
Fore
-150 615 m 1
 -150 486 l 1
 -140 466 -135 445 -135 422 c 1
 -160 439 -194 453 -229 462 c 1
 -250 469 -277 473 -304 473 c 2
 -323 473 l 2
 -330 473 -337 473 -342 472 c 0
 -363 472 -379 475 -388 482 c 0
 -395 487 -400 498 -400 505 c 0
 -400 528 -376 552 -359 563 c 0
 -340 574 -317 580 -290 580 c 0
 -275 580 -260 577 -245 571 c 1
 -245 615 l 1
 -210 615 l 1
 -210 553 l 1
 -201 547 -192 541 -185 534 c 1
 -185 615 l 1
 -150 615 l 1
-160 456 m 1
 -171 488 -227 545 -285 545 c 0
 -310 545 -346 539 -346 515 c 0
 -346 500 -324 499 -307 499 c 0
 -280 499 -264 496 -241 491 c 0
 -210 484 -185 472 -160 456 c 1
EndSplineSet
Back
-150 615 m 1
 -185 615 l 1
 -185 534 l 1
 -192 541 -201 547 -210 553 c 1
 -210 615 l 1
 -245 615 l 1
 -245 571 l 1
 -260 577 -275 580 -290 580 c 0
 -317 580 -340 574 -359 563 c 0
 -368 558 -376 549 -386 539 c 0
 -396 527 -400 516 -400 505 c 0
 -400 501 -399 498 -396 493 c 0
 -394 488 -391 485 -388 482 c 0
 -379 475 -363 472 -342 472 c 0
 -336 473 -331 473 -323 473 c 0
 -315 473 -310 473 -304 473 c 0
 -291 473 -277 472 -265 470 c 0
 -251 468 -240 465 -229 462 c 0
 -211 458 -195 452 -179 445 c 0
 -162 438 -147 431 -135 422 c 1
 -135 445 -140 466 -150 486 c 1
 -150 615 l 1
-160 456 m 1
 -173 464 -186 471 -199 477 c 0
 -211 483 -226 488 -241 491 c 0
 -252 494 -263 496 -272 497 c 0
 -282 499 -293 499 -307 499 c 0
 -315 499 -324 500 -333 501 c 0
 -342 503 -346 508 -346 515 c 0
 -346 521 -344 526 -340 530 c 0
 -336 534 -331 537 -325 539 c 0
 -319 541 -312 542 -305 543 c 0
 -298 544 -291 545 -285 545 c 0
 -271 545 -256 542 -243 536 c 0
 -229 529 -216 521 -205 513 c 0
 -193 503 -183 494 -175 483 c 0
 -168 473 -163 464 -160 456 c 1
EndSplineSet
EndChar
StartChar: ellipsis
Encoding: 133 8230
Width: 531
Flags: HW
HStem: -7 77<97 123 251.5 263 404.5 416>
VStem: 71 78<17.5 43.5>
Fore
455 30 m 0
 454 41 450 51 444 58 c 0
 436 66 427 70 416 70 c 0
 390 70 377 57 377 30 c 1
 380 5 393 -7 416 -7 c 1
 442 -4 455 8 455 30 c 0
302 30 m 0
 301 41 297 51 291 58 c 0
 283 66 274 70 263 70 c 0
 237 70 224 57 224 30 c 1
 227 5 240 -7 263 -7 c 1
 289 -4 302 8 302 30 c 0
149 30 m 0
 149 57 136 70 110 70 c 0
 84 70 71 57 71 30 c 0
 71 5 84 -7 110 -7 c 0
 136 -7 149 5 149 30 c 0
EndSplineSet
Back
455 30 m 0
 455 8 442 -4 416 -7 c 1
 393 -7 380 5 377 30 c 1
 377 57 390 70 416 70 c 0
 427 70 436 66 444 58 c 0
 450 51 454 42 455 30 c 0
302 30 m 0
 302 8 289 -4 263 -7 c 1
 240 -7 227 5 224 30 c 1
 224 57 237 70 263 70 c 0
 273 70 283 66 291 58 c 0
 297 51 301 42 302 30 c 0
149 30 m 0
 149 5 136 -7 110 -7 c 0
 84 -7 71 5 71 30 c 0
 71 57 84 70 110 70 c 0
 136 70 149 57 149 30 c 0
EndSplineSet
EndChar
StartChar: uniF705
Encoding: 134 63237
Width: 0
Flags: HW
HStem: 445 21<-192 -186> 577 20<-213 -163 -213 -213>
Fore
-163 597 m 1
 -213 597 l 1
 -210 537 l 1
 -200 454 l 1
 -199 448 -195 445 -189 445 c 0
 -183 445 -179 448 -178 454 c 1
 -167 537 l 1
 -163 597 l 1
EndSplineSet
Back
-163 597 m 1
 -167 537 l 1
 -178 454 l 1
 -179 448 -183 445 -189 445 c 0
 -195 445 -199 448 -200 454 c 1
 -210 537 l 1
 -213 597 l 1
 -163 597 l 1
EndSplineSet
EndChar
StartChar: uniF706
Encoding: 135 63238
Width: 0
Flags: HW
HStem: 445 23<-305 -303 -303 -285.5> 445 158<-323.5 -303 -303 -299>
VStem: -353 84<532 563.5>
Fore
-145 603 m 1
 -193 603 l 1
 -193 563 -203 532 -220 508 c 0
 -238 481 -266 468 -305 468 c 1
 -281 485 -269 513 -269 551 c 0
 -269 578 -287 603 -311 603 c 0
 -336 603 -353 577 -353 550 c 0
 -353 514 -339 496 -311 496 c 2
 -304 497 l 1
 -317 476 -334 465 -357 463 c 1
 -357 445 l 1
 -303 445 l 2
 -260 445 -229 460 -198 484 c 0
 -163 513 -145 552 -145 603 c 1
-289 550 m 0
 -289 527 -296 515 -311 515 c 0
 -326 515 -334 527 -334 550 c 0
 -334 572 -326 583 -311 583 c 0
 -296 583 -289 569 -289 550 c 0
EndSplineSet
Back
-145 603 m 1
 -145 552 -163 513 -198 484 c 0
 -213 472 -229 462 -246 456 c 0
 -263 449 -282 445 -303 445 c 2
 -357 445 l 1
 -357 463 l 1
 -334 465 -317 477 -304 497 c 1
 -311 496 l 2
 -339 496 -353 514 -353 550 c 0
 -353 563 -349 576 -341 586 c 0
 -334 598 -324 603 -311 603 c 0
 -299 603 -289 598 -281 587 c 0
 -273 576 -269 564 -269 551 c 0
 -269 513 -281 485 -305 468 c 1
 -266 468 -238 481 -220 508 c 0
 -211 520 -205 534 -200 549 c 0
 -195 565 -193 583 -193 603 c 1
 -145 603 l 1
-289 550 m 0
 -289 560 -291 567 -294 574 c 0
 -298 580 -304 583 -311 583 c 0
 -326 583 -334 572 -334 550 c 0
 -334 527 -326 515 -311 515 c 0
 -296 515 -289 527 -289 550 c 0
EndSplineSet
EndChar
StartChar: uniF707
Encoding: 136 63239
Width: 0
Flags: HW
HStem: 443 136<-266.5 -240.5> 445 134<-348.5 -345> 557 22<-335.5 -323.5 -265.5 -247.5> 562 20<-183 -183>
VStem: -317 88<506.5 511.5> -229 25<507.5 531.5> -204 21<524 539.5> -183 42<535.5 545 545 562>
Fore
-141 582 m 1
 -185 582 l 1
 -183 562 l 1
 -183 545 l 2
 -183 503 -198 476 -229 464 c 1
 -212 477 -204 495 -204 520 c 0
 -204 559 -222 579 -259 579 c 0
 -274 579 -289 567 -293 551 c 1
 -302 570 -315 579 -332 579 c 0
 -365 579 -381 559 -392 539 c 0
 -398 526 -401 512 -401 497 c 0
 -401 472 -382 445 -359 445 c 0
 -331 445 -317 462 -317 497 c 0
 -317 526 -328 548 -351 548 c 1
 -345 554 -339 557 -332 557 c 0
 -312 557 -302 543 -302 514 c 1
 -283 514 l 1
 -283 543 -274 557 -257 557 c 0
 -238 557 -229 544 -229 519 c 0
 -229 494 -249 468 -272 463 c 1
 -272 443 l 1
 -185 443 -141 489 -141 582 c 1
-335 497 m 0
 -335 474 -343 462 -359 462 c 0
 -374 462 -382 477 -382 497 c 0
 -382 514 -374 532 -359 532 c 0
 -343 532 -335 518 -335 497 c 0
EndSplineSet
Back
-141 582 m 1
 -141 489 -185 443 -272 443 c 1
 -272 463 l 1
 -261 466 -250 473 -242 483 c 0
 -233 495 -229 506 -229 519 c 0
 -229 544 -238 557 -257 557 c 0
 -274 557 -283 542 -283 514 c 1
 -302 514 l 1
 -302 542 -312 557 -332 557 c 0
 -339 557 -345 554 -351 548 c 1
 -340 548 -331 543 -326 534 c 0
 -320 524 -317 512 -317 497 c 0
 -317 462 -331 445 -359 445 c 0
 -370 445 -380 451 -389 461 c 0
 -397 473 -401 484 -401 497 c 0
 -401 512 -398 526 -392 539 c 0
 -387 549 -379 558 -371 566 c 0
 -361 575 -349 579 -332 579 c 0
 -314 579 -302 570 -293 551 c 1
 -291 559 -287 565 -280 571 c 0
 -273 576 -266 579 -259 579 c 0
 -222 579 -204 560 -204 520 c 0
 -204 495 -212 477 -229 464 c 1
 -198 476 -183 503 -183 545 c 2
 -183 562 l 1
 -185 582 l 1
 -141 582 l 1
-335 497 m 0
 -335 508 -337 516 -341 522 c 0
 -345 529 -351 532 -359 532 c 0
 -366 532 -372 528 -376 521 c 0
 -380 514 -382 506 -382 497 c 0
 -382 487 -380 479 -376 472 c 0
 -372 465 -366 462 -359 462 c 0
 -343 462 -335 474 -335 497 c 0
EndSplineSet
EndChar
StartChar: uniF708
Encoding: 137 63240
Width: 0
Flags: HW
HStem: 445 21<-259 -216 -259 -259> 508 32<-322 -263 -212 -153> 583 20<-266 -209 -209 -209>
Fore
-266 603 m 1
 -209 603 l 1
 -212 540 l 1
 -153 540 l 1
 -153 508 l 1
 -213 508 l 1
 -216 445 l 1
 -259 445 l 1
 -262 508 l 1
 -322 508 l 1
 -322 540 l 1
 -263 540 l 1
 -266 603 l 1
EndSplineSet
Back
-266 603 m 1
 -263 540 l 1
 -322 540 l 1
 -322 508 l 1
 -262 508 l 1
 -259 445 l 1
 -216 445 l 1
 -213 508 l 1
 -153 508 l 1
 -153 540 l 1
 -212 540 l 1
 -209 603 l 1
 -266 603 l 1
EndSplineSet
EndChar
StartChar: uniF709
Encoding: 138 63241
Width: 0
Flags: HW
HStem: 445 21<-242.5 -210.5> 640 20<-103 -103>
VStem: -287 40<494 519> -287 112<490 522.5>
Fore
-198 507 m 1
 -198 499 -199 487 -203 479 c 1
 -210 472 -218 468 -223 468 c 0
 -239 468 -247 481 -247 507 c 0
 -247 531 -236 543 -223 543 c 0
 -214 543 -207 538 -202 529 c 1
 -199 520 -198 507 -198 507 c 1
-210 564 m 1
 -199 575 -173 587 -150 595 c 0
 -113 608 -102 624 -102 645 c 0
 -102 652 -102 657 -103 660 c 1
 -146 650 l 1
 -139 622 -154 612 -189 601 c 0
 -254 582 -287 554 -287 507 c 0
 -287 472 -260 445 -225 445 c 0
 -196 445 -175 474 -175 506 c 0
 -175 539 -187 558 -210 564 c 1
EndSplineSet
Back
-198 507 m 1
 -198 507 -198 509 -199 515 c 0
 -200 520 -201 524 -202 529 c 0
 -208 539 -214 543 -223 543 c 0
 -229 543 -235 540 -240 534 c 0
 -245 528 -247 519 -247 507 c 0
 -247 481 -239 468 -223 468 c 0
 -220 468 -217 469 -213 471 c 0
 -210 473 -207 476 -203 479 c 0
 -201 483 -200 488 -199 493 c 0
 -198 499 -198 503 -198 507 c 1
-210 564 m 1
 -187 558 -175 539 -175 506 c 0
 -175 490 -180 476 -189 463 c 0
 -198 451 -210 445 -225 445 c 0
 -242 445 -257 451 -269 463 c 0
 -281 475 -287 490 -287 507 c 0
 -287 530 -279 549 -263 564 c 0
 -246 580 -222 592 -189 601 c 0
 -172 606 -159 612 -152 619 c 0
 -145 625 -143 636 -146 650 c 1
 -103 660 l 1
 -103 657 -102 652 -102 645 c 0
 -102 634 -105 625 -112 617 c 0
 -119 609 -131 602 -150 595 c 0
 -161 591 -173 586 -185 581 c 0
 -196 575 -205 569 -210 564 c 1
EndSplineSet
EndChar
StartChar: uniF70A
Encoding: 139 63242
Width: 0
Flags: HW
HStem: 445 21<-112 -106> 577 20<-133 -83 -133 -133>
Fore
-83 597 m 1
 -133 597 l 1
 -130 537 l 1
 -120 454 l 1
 -119 448 -115 445 -109 445 c 0
 -103 445 -99 448 -98 454 c 1
 -87 537 l 1
 -83 597 l 1
EndSplineSet
Back
-83 597 m 1
 -87 537 l 1
 -98 454 l 1
 -99 448 -103 445 -109 445 c 0
 -115 445 -119 448 -120 454 c 1
 -130 537 l 1
 -133 597 l 1
 -83 597 l 1
EndSplineSet
EndChar
StartChar: uniF70B
Encoding: 140 63243
Width: 0
Flags: HW
HStem: 445 23<-197 -195 -195 -177.5> 445 158<-215.5 -195 -195 -191>
VStem: -245 84<532 563.5>
Fore
-37 603 m 1
 -85 603 l 1
 -85 563 -95 532 -112 508 c 0
 -130 481 -158 468 -197 468 c 1
 -173 485 -161 513 -161 551 c 0
 -161 578 -179 603 -203 603 c 0
 -228 603 -245 577 -245 550 c 0
 -245 514 -231 496 -203 496 c 2
 -196 497 l 1
 -209 476 -226 465 -249 463 c 1
 -249 445 l 1
 -195 445 l 2
 -152 445 -121 460 -90 484 c 0
 -55 513 -37 552 -37 603 c 1
-181 550 m 0
 -181 527 -188 515 -203 515 c 0
 -218 515 -226 527 -226 550 c 0
 -226 572 -218 583 -203 583 c 0
 -188 583 -181 569 -181 550 c 0
EndSplineSet
Back
-37 603 m 1
 -37 552 -55 513 -90 484 c 0
 -105 472 -121 462 -138 456 c 0
 -155 449 -174 445 -195 445 c 2
 -249 445 l 1
 -249 463 l 1
 -227 465 -208 477 -196 497 c 1
 -203 496 l 2
 -231 496 -245 514 -245 550 c 0
 -245 563 -241 576 -233 586 c 0
 -226 598 -216 603 -203 603 c 0
 -191 603 -181 598 -173 587 c 0
 -165 576 -161 564 -161 551 c 0
 -161 513 -173 485 -197 468 c 1
 -158 468 -130 481 -112 508 c 0
 -104 520 -97 534 -92 549 c 0
 -87 565 -85 583 -85 603 c 1
 -37 603 l 1
-181 550 m 0
 -181 560 -183 567 -187 574 c 0
 -190 580 -196 583 -203 583 c 0
 -218 583 -226 572 -226 550 c 0
 -226 527 -218 515 -203 515 c 0
 -188 515 -181 527 -181 550 c 0
EndSplineSet
EndChar
StartChar: uniF70C
Encoding: 141 63244
Width: 0
Flags: HW
HStem: 443 136<-156.5 -128.5> 557 22<-153.5 -135.5> 562 20<-71 -71>
VStem: -205 88<506.5 511.5> -117 25<507.5 531.5> -92 21<524 539.5> -71 42<535.5 545 545 562>
Fore
-29 582 m 1
 -73 582 l 1
 -71 562 l 1
 -71 545 l 2
 -71 503 -86 476 -117 464 c 1
 -100 477 -92 495 -92 520 c 0
 -92 559 -110 579 -147 579 c 0
 -166 579 -177 567 -181 551 c 1
 -190 570 -203 580 -220 580 c 0
 -253 580 -269 562 -280 539 c 0
 -287 526 -289 512 -289 497 c 0
 -289 472 -270 445 -247 445 c 0
 -219 445 -205 462 -205 497 c 0
 -205 526 -216 548 -239 548 c 1
 -233 554 -227 557 -220 557 c 0
 -200 557 -190 543 -190 514 c 1
 -171 514 l 1
 -171 543 -162 557 -145 557 c 0
 -126 557 -117 544 -117 519 c 0
 -117 494 -137 468 -160 463 c 1
 -160 443 l 1
 -73 443 -29 489 -29 582 c 1
-223 497 m 0
 -223 474 -231 462 -247 462 c 0
 -262 462 -270 477 -270 497 c 0
 -270 514 -262 532 -247 532 c 0
 -231 532 -223 518 -223 497 c 0
EndSplineSet
Back
-29 582 m 1
 -29 489 -73 443 -160 443 c 1
 -160 463 l 1
 -148 466 -139 473 -130 483 c 0
 -121 495 -117 506 -117 519 c 0
 -117 544 -126 557 -145 557 c 0
 -162 557 -171 542 -171 514 c 1
 -190 514 l 1
 -190 542 -200 557 -220 557 c 0
 -227 557 -233 554 -239 548 c 1
 -228 548 -219 543 -213 534 c 0
 -208 524 -205 512 -205 497 c 0
 -205 462 -219 445 -247 445 c 0
 -258 445 -268 451 -276 461 c 0
 -285 473 -289 484 -289 497 c 0
 -289 504 -289 512 -287 519 c 0
 -286 525 -283 532 -280 539 c 0
 -275 550 -268 560 -258 568 c 0
 -250 576 -237 580 -220 580 c 0
 -203 580 -190 570 -181 551 c 1
 -179 559 -175 565 -169 571 c 0
 -164 576 -156 579 -147 579 c 0
 -110 579 -92 560 -92 520 c 0
 -92 495 -100 477 -117 464 c 1
 -86 476 -71 503 -71 545 c 2
 -71 562 l 1
 -73 582 l 1
 -29 582 l 1
-223 497 m 0
 -223 508 -225 516 -229 522 c 0
 -233 529 -239 532 -247 532 c 0
 -254 532 -260 528 -264 521 c 0
 -268 514 -270 506 -270 497 c 0
 -270 487 -268 479 -264 472 c 0
 -260 465 -254 462 -247 462 c 0
 -231 462 -223 474 -223 497 c 0
EndSplineSet
EndChar
StartChar: uniF70D
Encoding: 142 63245
Width: 0
Flags: HW
HStem: 485 21<-157 -114 -157 -157> 548 32<-220 -161 -110 -51> 623 20<-164 -107 -107 -107>
Fore
-164 643 m 1
 -107 643 l 1
 -110 580 l 1
 -51 580 l 1
 -51 548 l 1
 -111 548 l 1
 -114 485 l 1
 -157 485 l 1
 -160 548 l 1
 -220 548 l 1
 -220 580 l 1
 -161 580 l 1
 -164 643 l 1
EndSplineSet
Back
-164 643 m 1
 -161 580 l 1
 -220 580 l 1
 -220 548 l 1
 -160 548 l 1
 -157 485 l 1
 -114 485 l 1
 -111 548 l 1
 -51 548 l 1
 -51 580 l 1
 -110 580 l 1
 -107 643 l 1
 -164 643 l 1
EndSplineSet
EndChar
StartChar: uniF70E
Encoding: 143 63246
Width: 0
Flags: HW
HStem: 445 21<-220.5 -184.5> 662 20<-66 -66>
VStem: -269 43<499 526.5> -269 124<494.5 530.5>
Fore
-171 513 m 1
 -171 505 -172 491 -177 483 c 1
 -184 475 -192 471 -199 471 c 0
 -217 471 -226 485 -226 513 c 0
 -226 540 -214 553 -199 553 c 0
 -190 553 -182 548 -176 537 c 0
 -172 528 -171 513 -171 513 c 1
-184 576 m 1
 -172 588 -143 602 -119 610 c 0
 -76 625 -65 643 -65 666 c 2
 -65 674 l 2
 -65 677 -65 679 -66 682 c 1
 -114 671 l 1
 -106 640 -122 629 -161 618 c 0
 -233 599 -269 564 -269 513 c 0
 -269 474 -240 445 -201 445 c 0
 -168 445 -145 477 -145 512 c 0
 -145 549 -158 570 -184 576 c 1
EndSplineSet
Back
-171 513 m 1
 -171 513 -171 516 -172 521 c 0
 -173 527 -174 532 -176 537 c 0
 -182 548 -189 553 -199 553 c 0
 -207 553 -213 550 -218 543 c 0
 -223 536 -226 526 -226 513 c 0
 -226 485 -217 471 -199 471 c 0
 -196 471 -192 472 -188 474 c 0
 -184 476 -180 479 -177 483 c 0
 -174 487 -173 492 -172 498 c 0
 -171 504 -171 509 -171 513 c 1
-184 576 m 1
 -158 570 -145 549 -145 512 c 0
 -145 495 -150 479 -161 465 c 0
 -171 452 -185 445 -201 445 c 0
 -220 445 -236 452 -250 464 c 0
 -263 478 -269 494 -269 513 c 0
 -269 564 -233 599 -161 618 c 0
 -142 624 -128 630 -120 637 c 0
 -112 645 -110 656 -114 671 c 1
 -66 682 l 1
 -65 679 -65 677 -65 674 c 0
 -65 671 -65 668 -65 666 c 0
 -65 655 -69 645 -76 635 c 0
 -83 625 -98 617 -119 610 c 0
 -131 606 -144 601 -156 595 c 0
 -168 588 -178 582 -184 576 c 1
EndSplineSet
EndChar
StartChar: uniF70F
Encoding: 144 63247
Width: 545
Flags: HW
HStem: -6 21<96.5 137.5> 0 21<274 431 431 445.5> 352 33<160.5 203> 378 21<423 475 423 423>
VStem: 53 52<94 194> 53 126<40.5 62 62 70.5> 274 52<19 257> 423 52<55 378>
Fore
475 55 m 2
 475 378 l 1
 423 378 l 1
 423 55 l 2
 423 31 407 19 387 19 c 2
 326 19 l 1
 326 257 l 2
 326 342 276 385 176 385 c 0
 145 385 116 377 89 360 c 0
 57 342 37 320 30 293 c 1
 67 293 95 286 112 273 c 1
 73 261 53 235 53 194 c 2
 53 62 l 2
 53 19 76 -6 117 -6 c 0
 158 -6 179 13 179 51 c 0
 179 90 160 110 137 110 c 0
 122 110 113 105 105 94 c 1
 105 207 l 2
 105 239 122 258 149 266 c 1
 127 295 99 310 65 310 c 1
 91 338 128 352 175 352 c 0
 231 352 274 313 274 257 c 2
 274 0 l 1
 431 0 l 2
 460 0 475 18 475 55 c 2
163 51 m 0
 163 27 150 13 137 13 c 0
 117 13 108 35 108 50 c 0
 108 74 124 90 137 90 c 0
 150 90 163 74 163 51 c 0
EndSplineSet
Back
475 55 m 2
 475 19 460 0 431 0 c 2
 274 0 l 1
 274 257 l 2
 274 285 265 308 246 326 c 0
 227 343 203 352 175 352 c 0
 127 352 91 338 65 310 c 1
 99 310 127 295 149 266 c 1
 136 262 125 255 117 246 c 0
 109 236 105 223 105 207 c 2
 105 94 l 1
 109 99 113 104 119 106 c 0
 124 109 130 110 137 110 c 0
 148 110 158 105 167 95 c 0
 175 85 179 70 179 51 c 0
 179 13 158 -6 117 -6 c 0
 96 -6 81 0 69 12 c 0
 59 24 53 41 53 62 c 2
 53 194 l 2
 53 235 73 261 112 273 c 1
 95 286 67 293 30 293 c 1
 37 320 57 342 89 360 c 0
 116 376 146 385 176 385 c 0
 276 385 326 342 326 257 c 2
 326 19 l 1
 387 19 l 2
 397 19 405 22 413 28 c 0
 419 34 423 43 423 55 c 2
 423 378 l 1
 475 378 l 1
 475 55 l 2
163 51 m 0
 163 62 160 72 155 79 c 0
 150 86 144 90 137 90 c 0
 130 90 124 86 118 79 c 0
 111 72 108 62 108 50 c 0
 108 42 110 35 115 26 c 0
 120 17 127 13 137 13 c 0
 144 13 150 16 155 23 c 0
 160 30 163 39 163 51 c 0
EndSplineSet
EndChar
StartChar: quoteleft
Encoding: 145 8216
Width: 163
Flags: HW
HStem: 303 21<85 91> 379 21<88 102.5> 453 20<112 112>
Fore
131 344 m 0
 131 367 117 379 88 379 c 1
 80 377 l 1
 71 376 l 1
 64 377 61 380 61 386 c 0
 61 411 80 435 119 460 c 1
 112 473 l 1
 99 468 83 456 66 437 c 0
 45 414 34 391 34 370 c 0
 34 346 41 328 56 315 c 0
 67 307 79 303 91 303 c 0
 102 304 111 308 118 313 c 0
 127 321 131 331 131 344 c 0
EndSplineSet
Back
131 344 m 0
 131 332 126 321 118 313 c 0
 111 308 102 304 91 303 c 0
 79 303 67 307 56 315 c 1
 42 328 34 346 34 370 c 0
 34 391 44 414 66 437 c 0
 83 457 99 468 112 473 c 1
 119 460 l 1
 81 436 61 411 61 386 c 0
 61 380 64 376 71 376 c 2
 80 377 l 1
 88 379 l 1
 117 379 131 367 131 344 c 0
EndSplineSet
EndChar
StartChar: quoteright
Encoding: 146 8217
Width: 163
Flags: HW
HStem: 303 21<53 53> 453 20<75 81>
VStem: 34 97
Fore
131 406 m 0
 131 430 124 448 109 461 c 0
 98 469 87 473 75 473 c 0
 48 470 34 456 34 433 c 0
 34 410 48 398 77 398 c 2
 86 399 l 1
 94 400 l 2
 101 400 104 397 104 391 c 0
 104 366 85 341 47 316 c 1
 53 303 l 1
 72 312 89 326 105 345 c 1
 122 368 131 389 131 406 c 0
EndSplineSet
Back
131 406 m 0
 131 389 123 368 105 345 c 0
 89 326 72 312 53 303 c 1
 47 316 l 1
 85 341 104 366 104 391 c 0
 104 397 101 400 94 400 c 2
 86 399 l 1
 77 398 l 2
 48 398 34 410 34 433 c 0
 34 457 48 470 75 473 c 1
 87 473 98 469 109 461 c 0
 124 448 131 430 131 406 c 0
EndSplineSet
EndChar
StartChar: quotedblleft
Encoding: 147 8220
Width: 331
Flags: HW
HStem: 299 91 453 20<116 116 261 261>
VStem: 38 94<341.5 360> 183 94<341.5 360>
Fore
277 345 m 0
 277 375 265 390 240 389 c 0
 230 389 222 385 217 378 c 1
 213 379 211 382 211 386 c 0
 211 411 230 436 268 460 c 1
 261 473 l 1
 209 444 183 408 183 363 c 0
 183 320 202 299 239 299 c 0
 264 299 277 314 277 345 c 0
132 345 m 0
 132 375 120 390 95 389 c 0
 85 389 77 385 72 378 c 1
 68 379 66 382 66 386 c 0
 66 411 85 436 123 460 c 1
 116 473 l 1
 64 444 38 408 38 363 c 0
 38 320 57 299 94 299 c 0
 119 299 132 314 132 345 c 0
EndSplineSet
Back
277 345 m 0
 277 314 264 299 239 299 c 0
 202 299 183 320 183 363 c 0
 183 408 209 444 261 473 c 1
 268 460 l 1
 230 436 211 411 211 386 c 0
 211 382 213 379 217 378 c 1
 222 385 230 389 240 389 c 0
 265 390 277 375 277 345 c 0
132 345 m 0
 132 314 119 299 94 299 c 0
 57 299 38 320 38 363 c 0
 38 408 64 444 116 473 c 1
 123 460 l 1
 85 436 66 411 66 386 c 0
 66 382 68 379 72 378 c 1
 77 385 85 389 95 389 c 0
 120 390 132 375 132 345 c 0
EndSplineSet
EndChar
StartChar: quotedblright
Encoding: 148 8221
Width: 331
Flags: HW
HStem: 303 21<54 54 199 199> 386 91
VStem: 38 94<416 434.5> 183 94<416 434.5>
Fore
277 413 m 0
 277 456 258 477 221 477 c 0
 196 477 183 462 183 431 c 0
 183 401 195 386 220 387 c 0
 230 387 238 391 243 398 c 1
 247 397 249 395 249 390 c 0
 249 365 230 340 192 316 c 1
 199 303 l 1
 251 332 277 369 277 413 c 0
132 413 m 0
 132 456 113 477 76 477 c 0
 51 477 38 462 38 431 c 0
 38 401 50 386 75 387 c 0
 85 387 93 391 98 398 c 1
 102 397 104 395 104 390 c 0
 104 365 85 340 47 316 c 1
 54 303 l 1
 106 332 132 369 132 413 c 0
EndSplineSet
Back
277 413 m 0
 277 369 251 333 199 303 c 1
 192 316 l 1
 230 340 249 365 249 390 c 0
 249 395 247 397 243 398 c 1
 238 391 230 387 220 387 c 0
 195 386 183 401 183 431 c 0
 183 461 196 477 221 477 c 0
 258 477 277 456 277 413 c 0
132 413 m 0
 132 369 106 333 54 303 c 1
 47 316 l 1
 85 340 104 365 104 390 c 0
 104 395 102 397 98 398 c 1
 93 391 85 387 75 387 c 0
 50 386 38 401 38 431 c 0
 38 461 51 477 76 477 c 0
 113 477 132 456 132 413 c 0
EndSplineSet
EndChar
StartChar: bullet
Encoding: 149 8226
Width: 270
Flags: HW
HStem: 137 21<108 160> 306 20<108 160>
Fore
229 232 m 0
 229 284 186 326 134 326 c 0
 82 326 40 284 40 232 c 0
 40 180 82 137 134 137 c 0
 186 137 229 180 229 232 c 0
EndSplineSet
Back
229 232 m 0
 229 219 227 207 222 195 c 0
 216 184 209 174 201 165 c 0
 192 156 182 149 171 145 c 0
 160 140 147 137 134 137 c 0
 121 137 109 140 98 145 c 0
 86 149 76 156 67 165 c 0
 59 174 53 184 47 195 c 0
 42 207 40 219 40 232 c 0
 40 245 42 258 47 269 c 0
 53 280 59 290 67 298 c 0
 76 307 86 313 98 318 c 0
 109 324 121 326 134 326 c 0
 147 326 160 324 171 318 c 0
 182 313 192 307 201 298 c 0
 209 290 216 280 222 269 c 0
 227 258 229 245 229 232 c 0
EndSplineSet
EndChar
StartChar: endash
Encoding: 150 8211
Width: 551
Flags: HW
HStem: 171 34<42 501>
Fore
501 171 m 1
 501 205 l 1
 42 205 l 1
 42 171 l 1
 501 171 l 1
EndSplineSet
Back
501 171 m 1
 42 171 l 1
 42 205 l 1
 501 205 l 1
 501 171 l 1
EndSplineSet
EndChar
StartChar: emdash
Encoding: 151 8212
Width: 1102
Flags: HW
HStem: 171 34<42 1002>
Fore
1002 171 m 1
 1002 205 l 1
 42 205 l 1
 42 171 l 1
 1002 171 l 1
EndSplineSet
Back
1002 171 m 1
 42 171 l 1
 42 205 l 1
 1002 205 l 1
 1002 171 l 1
EndSplineSet
EndChar
StartChar: uniF710
Encoding: 152 63248
Width: 0
Flags: HW
HStem: 413 21<-153.5 -117> 435 20<-202 -188> 550 20<-223.5 -187.5 -22 28 -22 -22>
VStem: -265 39<501 524.5> -265 108<498.5 526.5>
Fore
28 570 m 1
 -22 570 l 1
 -22 537 -29 508 -44 483 c 0
 -61 452 -105 436 -136 436 c 0
 -163 436 -198 442 -211 457 c 1
 -202 455 l 1
 -174 455 -157 484 -157 513 c 0
 -157 551 -172 570 -203 570 c 0
 -244 570 -265 548 -265 505 c 0
 -265 476 -253 453 -230 436 c 0
 -209 421 -168 413 -139 413 c 0
 -95 413 -38 429 -11 458 c 0
 15 487 28 525 28 570 c 1
-178 513 m 0
 -179 504 -181 495 -185 488 c 0
 -190 481 -196 477 -202 477 c 0
 -218 477 -226 489 -226 513 c 0
 -226 536 -218 547 -202 547 c 0
 -186 547 -178 533 -178 513 c 0
EndSplineSet
Back
28 570 m 1
 28 525 15 487 -11 458 c 0
 -18 451 -26 444 -36 438 c 0
 -46 433 -57 428 -68 424 c 0
 -80 421 -92 418 -104 416 c 0
 -117 414 -128 413 -139 413 c 0
 -154 413 -170 415 -188 419 c 0
 -205 423 -219 429 -230 436 c 0
 -253 453 -265 477 -265 505 c 0
 -265 548 -244 570 -203 570 c 0
 -172 570 -157 551 -157 513 c 0
 -157 499 -161 485 -169 473 c 0
 -177 461 -188 455 -202 455 c 1
 -211 457 l 1
 -204 450 -193 444 -179 441 c 0
 -164 438 -149 436 -136 436 c 0
 -121 436 -104 440 -85 448 c 0
 -66 456 -53 468 -44 483 c 0
 -29 508 -22 537 -22 570 c 1
 28 570 l 1
-178 513 m 0
 -178 523 -180 531 -184 538 c 0
 -188 544 -194 547 -202 547 c 0
 -218 547 -226 536 -226 513 c 0
 -226 489 -218 477 -202 477 c 0
 -196 477 -190 480 -185 488 c 0
 -183 491 -182 495 -181 500 c 0
 -180 504 -179 508 -178 513 c 0
EndSplineSet
EndChar
StartChar: uniF711
Encoding: 153 63249
Width: 0
Flags: HW
HStem: 440 21<-217.5 -186.5> 535 20<-217.5 -186.5>
Fore
-260 497 m 0
 -260 529 -233 555 -202 555 c 0
 -171 555 -145 529 -145 497 c 0
 -145 465 -171 440 -202 440 c 0
 -233 440 -260 465 -260 497 c 0
-235 497 m 0
 -235 478 -221 465 -202 465 c 0
 -183 465 -170 478 -170 497 c 0
 -170 516 -183 530 -202 530 c 0
 -221 530 -235 516 -235 497 c 0
EndSplineSet
Back
-260 497 m 0
 -260 481 -254 467 -243 457 c 0
 -231 445 -217 440 -202 440 c 0
 -187 440 -173 445 -162 457 c 0
 -151 467 -145 481 -145 497 c 0
 -145 513 -151 527 -162 538 c 0
 -173 549 -187 555 -202 555 c 0
 -217 555 -231 549 -243 538 c 0
 -254 527 -260 513 -260 497 c 0
-235 497 m 0
 -235 506 -232 514 -226 521 c 0
 -219 527 -211 530 -202 530 c 0
 -193 530 -185 527 -179 521 c 0
 -173 514 -170 506 -170 497 c 0
 -170 488 -173 480 -179 474 c 0
 -185 468 -193 465 -202 465 c 0
 -211 465 -219 468 -226 474 c 0
 -232 480 -235 488 -235 497 c 0
EndSplineSet
EndChar
StartChar: uniF712
Encoding: 154 63250
Width: 0
Flags: HW
HStem: 424 21<-223.5 -218.5> 590 20<-137 -137>
Fore
-137 610 m 1
 -169 606 l 1
 -169 583 -179 571 -200 571 c 0
 -209 571 -244 574 -263 575 c 2
 -269 575 l 2
 -313 575 -346 548 -346 500 c 0
 -346 463 -320 430 -287 425 c 1
 -288 430 -290 436 -290 443 c 0
 -290 456 -286 463 -279 464 c 2
 -276 464 l 2
 -265 464 -257 443 -249 436 c 0
 -240 429 -231 424 -216 424 c 0
 -196 424 -185 431 -174 446 c 0
 -164 460 -159 477 -159 496 c 0
 -159 519 -177 536 -200 536 c 0
 -224 536 -239 521 -239 492 c 0
 -239 464 -225 450 -210 450 c 1
 -214 445 -217 445 -220 445 c 0
 -229 445 -239 454 -246 463 c 0
 -254 474 -266 482 -277 482 c 2
 -279 482 l 2
 -286 481 -289 479 -293 476 c 0
 -298 472 -301 466 -301 458 c 1
 -308 469 -314 482 -314 498 c 0
 -314 533 -298 543 -275 547 c 0
 -272 548 -268 548 -265 548 c 2
 -254 548 l 2
 -235 548 -217 547 -206 547 c 0
 -195 547 -185 550 -178 551 c 1
 -151 561 -137 581 -137 610 c 1
-187 492 m 0
 -187 474 -193 465 -206 465 c 0
 -219 465 -224 481 -224 492 c 0
 -224 507 -218 518 -206 518 c 0
 -193 518 -187 509 -187 492 c 0
EndSplineSet
Back
-137 610 m 1
 -137 581 -151 561 -178 551 c 0
 -181 550 -186 549 -190 548 c 0
 -195 547 -201 547 -206 547 c 0
 -211 547 -218 547 -227 547 c 0
 -236 548 -245 548 -254 548 c 0
 -259 548 -262 548 -265 548 c 0
 -269 548 -271 548 -275 547 c 0
 -286 545 -296 541 -303 534 c 0
 -311 527 -314 515 -314 498 c 0
 -314 490 -312 483 -310 476 c 0
 -307 469 -304 463 -301 458 c 1
 -301 466 -298 472 -293 476 c 0
 -291 478 -289 479 -287 479 c 0
 -285 480 -282 481 -279 482 c 2
 -277 482 l 2
 -271 482 -266 480 -261 477 c 0
 -255 473 -250 468 -246 463 c 0
 -243 458 -239 454 -234 451 c 0
 -229 447 -225 445 -220 445 c 0
 -219 445 -217 445 -215 445 c 0
 -214 446 -212 447 -210 450 c 1
 -217 450 -224 454 -230 460 c 0
 -236 467 -239 478 -239 492 c 0
 -239 507 -235 518 -229 525 c 0
 -222 532 -212 536 -200 536 c 0
 -188 536 -179 532 -171 524 c 0
 -163 517 -159 507 -159 496 c 0
 -159 477 -164 460 -174 446 c 0
 -179 438 -185 433 -191 430 c 0
 -198 426 -206 424 -216 424 c 0
 -223 424 -229 425 -234 428 c 0
 -239 430 -244 433 -249 436 c 0
 -253 439 -257 445 -262 453 c 0
 -266 460 -271 464 -276 464 c 2
 -279 464 l 2
 -286 463 -290 457 -290 443 c 0
 -290 439 -290 437 -289 434 c 0
 -289 431 -288 428 -287 425 c 1
 -304 428 -318 436 -329 451 c 0
 -340 465 -346 481 -346 500 c 0
 -346 524 -339 542 -324 556 c 0
 -310 568 -291 575 -269 575 c 2
 -263 575 l 2
 -254 574 -242 574 -228 572 c 0
 -214 571 -205 571 -200 571 c 0
 -179 571 -169 583 -169 606 c 1
 -137 610 l 1
-187 492 m 0
 -187 509 -193 518 -206 518 c 0
 -212 518 -216 516 -220 511 c 0
 -223 505 -224 500 -224 492 c 0
 -224 487 -223 481 -220 475 c 0
 -217 468 -213 465 -206 465 c 0
 -193 465 -187 474 -187 492 c 0
EndSplineSet
EndChar
StartChar: uniF713
Encoding: 155 63251
Width: 0
Flags: HW
HStem: 647 21<-166.5 -161.5> 765 20<-186 -140 -186 -186>
Fore
-140 785 m 1
 -186 785 l 1
 -183 730 l 1
 -174 655 l 1
 -173 650 -169 647 -164 647 c 0
 -159 647 -155 650 -154 655 c 1
 -144 730 l 1
 -140 785 l 1
EndSplineSet
Back
-140 785 m 1
 -144 730 l 1
 -154 655 l 1
 -155 650 -159 647 -164 647 c 0
 -169 647 -173 650 -174 655 c 1
 -183 730 l 1
 -186 785 l 1
 -140 785 l 1
EndSplineSet
EndChar
StartChar: uniF714
Encoding: 156 63252
Width: 0
Flags: HW
HStem: 640 21<-230 -199 -199 -190> 763 20<-91 -50 -91 -91>
Fore
-50 783 m 1
 -91 783 l 1
 -91 711 -121 664 -184 660 c 1
 -161 672 -145 699 -145 731 c 0
 -145 754 -161 776 -182 776 c 0
 -205 776 -219 753 -219 730 c 0
 -219 699 -203 683 -182 683 c 2
 -179 683 l 1
 -190 668 -211 660 -230 657 c 1
 -230 640 l 1
 -199 640 l 2
 -181 640 -161 644 -139 651 c 0
 -90 667 -50 725 -50 783 c 1
-162 730 m 0
 -162 710 -171 699 -182 699 c 0
 -197 699 -204 709 -204 730 c 0
 -204 749 -197 760 -182 760 c 0
 -171 760 -162 746 -162 730 c 0
EndSplineSet
Back
-50 783 m 1
 -50 769 -52 755 -57 741 c 0
 -62 726 -68 713 -76 701 c 0
 -84 689 -93 679 -104 670 c 0
 -116 661 -127 655 -139 651 c 0
 -161 644 -181 640 -199 640 c 2
 -230 640 l 1
 -230 657 l 1
 -221 658 -211 661 -202 666 c 0
 -192 670 -185 676 -179 683 c 1
 -182 683 l 2
 -193 683 -202 687 -208 695 c 0
 -215 703 -219 715 -219 730 c 0
 -219 741 -216 752 -209 762 c 0
 -202 771 -193 776 -182 776 c 0
 -171 776 -163 771 -155 762 c 0
 -148 752 -145 742 -145 731 c 0
 -145 715 -148 701 -156 688 c 0
 -164 675 -173 666 -184 660 c 1
 -153 662 -129 674 -114 696 c 0
 -99 718 -91 747 -91 783 c 1
 -50 783 l 1
-162 730 m 0
 -162 738 -164 745 -168 751 c 0
 -172 757 -177 760 -182 760 c 0
 -189 760 -195 757 -199 752 c 0
 -202 747 -204 739 -204 730 c 0
 -204 709 -197 699 -182 699 c 0
 -177 699 -172 702 -168 707 c 0
 -164 712 -162 720 -162 730 c 0
EndSplineSet
EndChar
StartChar: uniF715
Encoding: 157 63253
Width: 0
Flags: HW
HStem: 639 123<-155.5 -130.5> 640 21<-248.5 -225.5> 742 20<-153 -136.5> 745 20<-80 -40 -80 -80>
VStem: -200 122 -78 38<723 731 731 747>
Fore
-40 765 m 1
 -80 765 l 1
 -78 747 l 1
 -78 731 l 2
 -78 694 -92 669 -120 658 c 1
 -105 669 -97 686 -97 709 c 0
 -97 744 -114 762 -147 762 c 0
 -164 762 -174 752 -178 737 c 1
 -186 754 -198 763 -213 763 c 0
 -254 763 -276 729 -276 688 c 0
 -276 665 -259 640 -238 640 c 0
 -213 640 -200 656 -200 688 c 0
 -200 715 -211 734 -231 734 c 1
 -226 739 -220 742 -213 742 c 0
 -195 742 -186 729 -186 703 c 1
 -169 703 l 1
 -169 729 -161 742 -145 742 c 0
 -128 742 -120 731 -120 708 c 0
 -120 685 -138 661 -159 657 c 1
 -159 639 l 1
 -80 639 -40 681 -40 765 c 1
-216 688 m 0
 -216 667 -223 656 -238 656 c 0
 -251 656 -259 669 -259 688 c 0
 -259 703 -253 720 -238 720 c 0
 -223 720 -216 707 -216 688 c 0
EndSplineSet
Back
-40 765 m 1
 -40 681 -80 639 -159 639 c 1
 -159 657 l 1
 -148 659 -139 665 -131 675 c 0
 -124 686 -120 697 -120 708 c 0
 -120 730 -128 742 -145 742 c 0
 -161 742 -169 729 -169 703 c 1
 -186 703 l 1
 -186 729 -195 742 -213 742 c 0
 -220 742 -226 739 -231 734 c 1
 -221 734 -213 729 -208 721 c 0
 -203 712 -200 701 -200 688 c 0
 -200 656 -213 640 -238 640 c 0
 -249 640 -258 645 -265 655 c 0
 -272 666 -276 677 -276 688 c 0
 -276 703 -273 715 -268 726 c 0
 -263 737 -256 746 -248 752 c 0
 -240 759 -229 763 -213 763 c 0
 -198 763 -186 754 -178 737 c 1
 -176 744 -172 750 -167 755 c 0
 -163 760 -156 762 -147 762 c 0
 -114 762 -97 744 -97 709 c 0
 -97 687 -104 669 -120 658 c 1
 -92 669 -78 694 -78 731 c 2
 -78 747 l 1
 -80 765 l 1
 -40 765 l 1
-216 688 m 0
 -216 697 -218 705 -222 711 c 0
 -225 717 -230 720 -238 720 c 0
 -245 720 -250 716 -254 709 c 0
 -257 703 -259 695 -259 688 c 0
 -259 679 -257 671 -253 665 c 0
 -250 659 -245 656 -238 656 c 0
 -223 656 -216 667 -216 688 c 0
EndSplineSet
EndChar
StartChar: uniF716
Encoding: 158 63254
Width: 0
Flags: HW
HStem: 640 21<-190 -150 -190 -190> 698 29<-247 -193 -147 -93> 764 20<-195 -145 -145 -145>
Fore
-195 784 m 1
 -145 784 l 1
 -147 727 l 1
 -93 727 l 1
 -93 698 l 1
 -148 698 l 1
 -150 640 l 1
 -190 640 l 1
 -192 698 l 1
 -247 698 l 1
 -247 727 l 1
 -193 727 l 1
 -195 784 l 1
EndSplineSet
Back
-195 784 m 1
 -193 727 l 1
 -247 727 l 1
 -247 698 l 1
 -192 698 l 1
 -190 640 l 1
 -150 640 l 1
 -148 698 l 1
 -93 698 l 1
 -93 727 l 1
 -147 727 l 1
 -145 784 l 1
 -195 784 l 1
EndSplineSet
EndChar
StartChar: uniF717
Encoding: 159 63255
Width: 0
Flags: HW
HStem: 640 21<-174.5 -145.5> 810 20<-51 -51>
VStem: -214 100<679.5 708.5>
Fore
-135 695 m 1
 -135 687 -136 677 -140 670 c 0
 -145 663 -150 660 -157 660 c 0
 -172 660 -179 672 -179 695 c 0
 -179 716 -169 727 -157 727 c 0
 -149 727 -143 723 -139 714 c 0
 -136 706 -135 695 -135 695 c 1
-145 745 m 1
 -136 756 -112 765 -93 772 c 0
 -60 784 -50 798 -50 817 c 0
 -50 822 -50 827 -51 830 c 1
 -89 821 l 1
 -82 797 -96 787 -127 778 c 0
 -185 763 -214 736 -214 695 c 0
 -214 664 -190 640 -159 640 c 0
 -132 640 -114 665 -114 694 c 0
 -114 723 -124 740 -145 745 c 1
EndSplineSet
Back
-135 695 m 1
 -135 695 -135 697 -136 702 c 0
 -139 714 l 0
 -143 723 -149 727 -157 727 c 0
 -163 727 -168 724 -172 719 c 0
 -177 714 -179 706 -179 695 c 0
 -179 672 -172 660 -157 660 c 0
 -150 660 -145 664 -140 670 c 0
 -138 673 -137 677 -136 682 c 0
 -135 687 -135 691 -135 695 c 1
-145 745 m 1
 -125 740 -114 723 -114 694 c 0
 -114 679 -118 667 -126 656 c 0
 -135 646 -146 640 -159 640 c 0
 -174 640 -188 646 -198 656 c 0
 -208 667 -214 680 -214 695 c 0
 -214 736 -185 763 -127 778 c 0
 -112 783 -101 788 -94 794 c 0
 -87 800 -85 809 -89 821 c 1
 -51 830 l 1
 -50 827 -50 822 -50 817 c 0
 -50 808 -53 799 -59 792 c 0
 -65 785 -76 778 -93 772 c 0
 -103 769 -112 765 -123 760 c 0
 -133 755 -140 750 -145 745 c 1
EndSplineSet
EndChar
StartChar: uni0E01
Encoding: 161 3585
Width: 404
Flags: HW
HStem: 0 21<58 110 110 110 284 336 336 336> 266 119 352 33<167 204.5>
VStem: 30 41 58 52<0 193> 115 39 284 52<0 259>
Fore
58 0 m 1
 110 0 l 1
 110 207 l 2
 110 238 129 258 154 266 c 1
 133 295 105 310 71 310 c 1
 97 338 134 352 181 352 c 0
 238 352 284 316 284 259 c 2
 284 0 l 1
 336 0 l 1
 336 259 l 2
 336 301 320 333 289 355 c 0
 262 375 227 385 182 385 c 0
 152 385 123 377 94 360 c 0
 62 341 38 320 30 293 c 1
 66 293 94 286 115 273 c 1
 77 262 58 236 58 193 c 2
 58 0 l 1
EndSplineSet
Back
58 0 m 1
 58 193 l 2
 58 236 77 262 115 273 c 1
 94 286 66 293 30 293 c 1
 34 306 42 318 53 330 c 0
 64 340 78 351 94 360 c 0
 123 376 152 385 182 385 c 0
 227 385 262 375 289 355 c 0
 320 333 336 301 336 259 c 2
 336 0 l 1
 284 0 l 1
 284 259 l 2
 284 288 274 311 254 327 c 0
 234 344 209 352 181 352 c 0
 134 352 97 338 71 310 c 1
 105 310 133 295 154 266 c 1
 141 262 131 255 123 245 c 0
 114 235 110 222 110 207 c 2
 110 0 l 1
 58 0 l 1
EndSplineSet
EndChar
StartChar: uni0E02
Encoding: 162 3586
Width: 352
Flags: HW
HStem: 0 21<48 240 240 254.5> 365 20<78.5 130.5>
VStem: 87 51<19 175> 232 52<55 376>
Fore
284 55 m 2
 284 376 l 1
 232 376 l 1
 232 55 l 2
 232 31 218 19 197 19 c 2
 138 19 l 1
 138 176 l 2
 138 193 150 213 169 244 c 0
 188 273 194 291 194 306 c 0
 194 355 157 385 104 385 c 0
 53 385 20 347 20 296 c 0
 20 269 40 237 65 237 c 0
 92 237 108 268 108 296 c 0
 108 313 105 326 98 337 c 0
 90 349 80 355 69 355 c 1
 78 361 89 364 104 364 c 0
 131 364 154 349 154 326 c 0
 154 317 148 293 124 261 c 0
 99 228 87 200 87 175 c 2
 87 19 l 1
 48 19 l 1
 48 0 l 1
 240 0 l 2
 269 0 284 18 284 55 c 2
91 296 m 0
 91 277 78 255 65 255 c 0
 50 255 39 277 39 296 c 0
 39 320 49 335 64 335 c 2
 65 335 l 2
 80 335 91 317 91 296 c 0
EndSplineSet
Back
284 55 m 2
 284 19 270 0 240 0 c 2
 48 0 l 1
 48 19 l 1
 87 19 l 1
 87 175 l 2
 87 200 99 229 124 261 c 0
 136 277 144 291 148 302 c 0
 152 313 154 321 154 326 c 0
 154 337 149 347 139 354 c 0
 129 360 117 364 104 364 c 0
 89 364 78 361 69 355 c 1
 81 355 90 349 98 337 c 0
 104 326 108 312 108 296 c 0
 108 282 104 269 97 256 c 0
 89 243 78 237 65 237 c 0
 59 237 53 239 47 243 c 0
 42 246 37 251 33 256 c 0
 29 262 26 269 23 275 c 0
 21 283 20 290 20 296 c 0
 20 321 28 342 43 359 c 0
 58 376 79 385 104 385 c 0
 131 385 152 378 169 364 c 0
 186 350 194 331 194 306 c 0
 194 299 192 290 188 280 c 0
 185 271 178 259 169 244 c 0
 160 229 152 216 146 205 c 0
 141 194 138 185 138 176 c 2
 138 19 l 1
 197 19 l 2
 208 19 216 22 223 28 c 0
 229 34 232 43 232 55 c 2
 232 376 l 1
 284 376 l 1
 284 55 l 2
91 296 m 0
 91 307 88 316 83 324 c 0
 79 331 72 335 65 335 c 2
 64 335 l 2
 57 335 51 332 46 325 c 0
 42 317 39 308 39 296 c 0
 39 287 42 277 46 269 c 0
 51 259 58 255 65 255 c 0
 72 255 78 259 83 269 c 0
 88 277 91 287 91 296 c 0
EndSplineSet
EndChar
StartChar: uni0E03
Encoding: 163 3587
Width: 392
Flags: HW
HStem: 0 21<88 281 281 287.5> 364 21<81.5 91.5 159.5 178> 377 21<272 324 272 272>
VStem: 109 121 124 52<19 174> 197 33<321 337.5> 272 52<55 377>
Fore
324 55 m 2
 324 377 l 1
 272 377 l 1
 272 55 l 2
 272 38 251 19 235 19 c 2
 176 19 l 1
 176 175 l 2
 176 193 184 217 201 247 c 1
 220 275 230 305 230 316 c 0
 230 359 204 385 168 385 c 0
 151 385 138 377 129 360 c 1
 120 376 103 385 87 385 c 0
 42 385 18 336 18 292 c 0
 18 259 41 233 64 233 c 0
 92 233 109 265 109 292 c 0
 109 309 105 323 98 336 c 1
 89 349 77 355 62 355 c 1
 65 362 76 364 87 364 c 0
 96 364 122 350 122 319 c 1
 137 319 l 1
 137 349 147 364 168 364 c 0
 188 364 197 350 197 329 c 0
 197 313 184 298 159 266 c 1
 136 230 124 201 124 174 c 2
 124 19 l 1
 88 19 l 1
 88 0 l 1
 281 0 l 2
 294 0 305 6 313 18 c 0
 320 29 324 41 324 55 c 2
91 292 m 0
 91 269 79 254 66 254 c 0
 51 254 37 269 37 292 c 0
 37 315 47 335 62 335 c 0
 82 335 91 312 91 292 c 0
EndSplineSet
Back
324 55 m 2
 324 41 320 29 313 18 c 0
 305 6 294 0 281 0 c 2
 88 0 l 1
 88 19 l 1
 124 19 l 1
 124 174 l 2
 124 188 127 202 133 216 c 0
 139 231 147 248 159 266 c 1
 172 282 181 294 188 304 c 0
 194 312 197 321 197 329 c 0
 197 340 195 348 190 354 c 0
 186 361 178 364 168 364 c 0
 147 364 137 349 137 319 c 1
 122 319 l 1
 122 334 117 346 108 353 c 0
 99 360 92 364 87 364 c 0
 82 364 77 363 71 362 c 0
 66 361 63 358 62 355 c 1
 77 355 89 349 98 336 c 0
 105 323 109 309 109 292 c 0
 109 279 105 266 97 252 c 0
 89 239 78 233 64 233 c 0
 53 233 42 239 33 250 c 0
 23 261 18 275 18 292 c 0
 18 303 20 314 22 326 c 0
 25 336 30 346 36 355 c 0
 41 364 48 371 57 376 c 0
 65 382 76 385 87 385 c 0
 95 385 103 383 110 378 c 0
 118 374 125 368 129 360 c 1
 138 376 151 385 168 385 c 0
 186 385 201 379 212 367 c 0
 224 354 230 337 230 316 c 0
 230 311 228 301 223 288 c 0
 217 275 210 261 201 247 c 1
 185 217 176 193 176 175 c 2
 176 19 l 1
 235 19 l 2
 243 19 251 23 259 30 c 0
 268 38 272 46 272 55 c 2
 272 377 l 1
 324 377 l 1
 324 55 l 2
91 292 m 0
 91 302 89 312 84 321 c 0
 79 331 72 335 62 335 c 0
 55 335 49 331 44 322 c 0
 40 313 37 303 37 292 c 0
 37 281 40 271 46 265 c 0
 52 257 59 254 66 254 c 0
 73 254 79 257 83 265 c 0
 88 271 91 281 91 292 c 0
EndSplineSet
EndChar
StartChar: uni0E04
Encoding: 164 3588
Width: 388
Flags: HW
HStem: 0 21<80 132 80 80 268 268 268 320> 352 33<153.5 197.5>
VStem: 20 36<242.5 273.5> 82 52 82 54<43.5 58.5> 268 52<0 276>
Fore
165 154 m 0
 154 154 145 162 138 167 c 1
 135 159 134 142 134 127 c 0
 134 106 136 80 136 53 c 0
 136 34 135 16 132 0 c 1
 80 0 l 1
 82 30 l 1
 82 41 l 2
 82 76 71 115 50 160 c 0
 27 207 20 234 20 251 c 0
 20 296 36 331 67 354 c 0
 94 375 130 385 177 385 c 0
 218 385 250 377 275 361 c 0
 305 342 320 314 320 276 c 2
 320 0 l 1
 268 0 l 1
 268 276 l 2
 268 323 228 352 176 352 c 0
 96 352 56 319 56 253 c 0
 56 221 72 199 91 168 c 1
 91 250 122 276 161 276 c 0
 194 276 215 249 215 214 c 0
 215 186 196 154 165 154 c 0
142 214 m 0
 142 183 156 174 167 174 c 0
 183 174 194 193 194 214 c 0
 194 239 181 252 169 252 c 0
 154 252 142 239 142 214 c 0
EndSplineSet
Back
165 154 m 0
 180 154 192 161 202 173 c 0
 210 187 215 200 215 214 c 0
 215 231 210 246 201 258 c 0
 191 270 178 276 161 276 c 0
 151 276 142 274 133 271 c 0
 125 267 118 261 111 252 c 0
 105 244 100 233 97 220 c 0
 93 206 91 188 91 168 c 1
 82 183 74 197 66 210 c 0
 60 223 56 237 56 253 c 0
 56 319 96 352 176 352 c 0
 202 352 224 345 242 332 c 0
 259 318 268 299 268 276 c 2
 268 0 l 1
 320 0 l 1
 320 276 l 2
 320 314 305 342 275 361 c 0
 250 377 218 385 177 385 c 0
 130 385 94 375 67 354 c 0
 36 331 20 296 20 251 c 0
 20 242 22 231 26 216 c 0
 31 202 39 183 50 160 c 0
 71 115 82 76 82 41 c 2
 82 30 l 1
 80 0 l 1
 132 0 l 1
 133 8 134 17 135 25 c 0
 136 35 136 43 136 53 c 0
 136 66 136 79 135 92 c 0
 134 104 134 116 134 127 c 0
 134 134 134 142 135 149 c 0
 136 157 137 163 138 167 c 1
 141 165 146 162 150 159 c 0
 155 155 160 154 165 154 c 0
142 214 m 0
 142 227 145 236 150 243 c 0
 155 249 162 252 169 252 c 0
 175 252 181 249 186 243 c 0
 191 236 194 227 194 214 c 0
 194 203 191 194 187 186 c 0
 182 178 175 174 167 174 c 0
 162 174 156 177 150 183 c 0
 145 188 142 199 142 214 c 0
EndSplineSet
EndChar
StartChar: uni0E05
Encoding: 165 3589
Width: 396
Flags: HW
HStem: 309 43 352 33<97.5 127.5 215.5 242.5>
VStem: 20 34<271 298.5> 84 52 84 54<43.5 57.5> 93 47 276 52<0 295>
Fore
51 160 m 1
 27 222 25 233 20 271 c 1
 20 333 53 385 112 385 c 0
 143 385 162 374 171 352 c 1
 182 374 201 385 230 385 c 0
 286 385 328 351 328 295 c 2
 328 0 l 1
 276 0 l 1
 276 297 l 2
 276 325 258 352 227 352 c 0
 200 352 185 340 178 309 c 1
 164 309 l 1
 157 340 143 352 119 352 c 0
 76 352 54 325 54 272 c 0
 54 236 70 207 93 168 c 1
 93 250 124 276 163 276 c 0
 196 276 217 249 217 214 c 0
 217 186 198 154 167 154 c 0
 156 154 147 162 140 167 c 1
 137 159 136 142 136 127 c 0
 136 106 138 80 138 53 c 0
 138 34 137 16 134 0 c 1
 82 0 l 1
 84 30 l 1
 84 41 l 2
 84 74 74 116 51 160 c 1
144 214 m 0
 144 183 158 174 169 174 c 0
 185 174 196 193 196 214 c 0
 196 239 183 252 171 252 c 0
 156 252 144 239 144 214 c 0
EndSplineSet
Back
51 160 m 1
 62 138 71 117 76 97 c 0
 82 76 84 58 84 41 c 2
 84 30 l 1
 82 0 l 1
 134 0 l 1
 135 8 136 17 137 25 c 0
 138 35 138 43 138 53 c 0
 138 66 138 79 137 92 c 0
 136 104 136 116 136 127 c 0
 136 134 136 142 137 149 c 0
 138 157 139 163 140 167 c 1
 144 165 147 162 152 159 c 0
 157 155 162 154 167 154 c 0
 182 154 194 161 204 173 c 0
 212 187 217 200 217 214 c 0
 217 231 212 246 203 258 c 0
 193 270 180 276 163 276 c 0
 153 276 144 274 136 271 c 0
 127 267 120 261 113 252 c 0
 107 244 102 233 99 220 c 0
 95 206 93 188 93 168 c 1
 82 188 72 205 65 221 c 0
 58 237 54 254 54 272 c 0
 54 325 76 352 119 352 c 0
 131 352 141 349 148 342 c 0
 155 335 161 324 164 309 c 1
 178 309 l 1
 181 324 187 335 195 342 c 0
 203 349 214 352 227 352 c 0
 242 352 254 346 263 335 c 0
 271 324 276 311 276 297 c 2
 276 0 l 1
 328 0 l 1
 328 295 l 2
 328 323 319 345 300 361 c 0
 281 377 258 385 230 385 c 0
 201 385 182 374 171 352 c 1
 162 374 143 385 112 385 c 0
 97 385 84 382 73 376 c 0
 62 370 52 362 44 352 c 0
 36 341 30 329 26 315 c 0
 22 301 20 286 20 271 c 0
 21 262 22 253 23 247 c 0
 24 239 26 232 28 225 c 0
 30 217 33 208 37 198 c 0
 40 188 45 175 51 160 c 1
144 214 m 0
 144 227 146 236 152 243 c 0
 157 249 164 252 171 252 c 0
 177 252 183 249 188 243 c 0
 193 236 196 227 196 214 c 0
 196 203 193 194 188 186 c 0
 184 178 177 174 169 174 c 0
 164 174 158 177 152 183 c 0
 147 188 144 199 144 214 c 0
EndSplineSet
EndChar
StartChar: uni0E06
Encoding: 166 3590
Width: 440
Flags: HW
HStem: -3 21<118 157> 0 21<316 372 372 372> 0 79 132 28<191 191> 365 20<96 100 100 100> 377 21<320 372 320 320>
VStem: 66 27<63.5 88.5> 139 52<55.5 62 62 130 160 174> 205 38<322.5 337.5> 320 52<79 377 79 79>
Fore
372 0 m 1
 372 377 l 1
 320 377 l 1
 320 79 l 1
 297 126 241 160 191 160 c 1
 191 175 l 2
 191 194 196 222 215 250 c 0
 234 281 243 300 243 316 c 0
 243 359 227 385 180 385 c 1
 157 382 144 373 140 358 c 1
 133 376 120 385 100 385 c 0
 56 385 25 342 25 298 c 0
 25 261 46 236 70 236 c 0
 97 236 115 270 115 298 c 0
 115 334 100 356 73 356 c 1
 79 362 87 365 96 365 c 2
 100 365 l 2
 121 364 132 348 132 319 c 1
 146 319 l 1
 146 340 158 364 177 364 c 0
 198 364 205 351 205 326 c 0
 205 319 196 300 172 265 c 0
 147 230 139 201 139 174 c 2
 139 159 l 1
 96 152 66 118 66 75 c 0
 66 30 96 -3 140 -3 c 0
 174 -3 191 16 191 55 c 2
 191 132 l 1
 247 119 293 75 316 0 c 1
 372 0 l 1
94 298 m 0
 94 274 85 256 70 256 c 0
 54 256 46 274 46 298 c 0
 46 322 55 337 70 337 c 0
 85 337 94 321 94 298 c 0
139 62 m 2
 139 49 131 42 116 42 c 0
 101 42 93 53 93 74 c 0
 93 103 108 125 139 130 c 1
 139 62 l 2
EndSplineSet
Back
372 0 m 1
 316 0 l 1
 305 37 288 67 266 89 c 0
 244 111 219 125 191 132 c 1
 191 55 l 2
 191 16 174 -3 140 -3 c 0
 118 -3 100 4 86 19 c 0
 73 34 66 52 66 75 c 0
 66 96 73 115 86 130 c 0
 100 146 118 156 139 159 c 1
 139 174 l 2
 139 188 141 202 146 216 c 0
 151 231 159 248 172 265 c 0
 184 282 192 296 197 306 c 0
 203 316 205 323 205 326 c 0
 205 339 203 348 199 354 c 0
 195 361 188 364 177 364 c 0
 167 364 160 359 154 350 c 0
 149 340 146 330 146 319 c 1
 132 319 l 1
 132 348 121 364 100 365 c 2
 96 365 l 2
 86 365 79 362 73 356 c 1
 86 356 97 351 104 340 c 0
 111 330 115 316 115 298 c 0
 115 284 111 270 103 256 c 0
 94 243 83 236 70 236 c 0
 58 236 47 242 39 253 c 0
 29 264 25 279 25 298 c 0
 25 310 27 320 30 331 c 0
 34 341 40 350 46 358 c 0
 53 366 61 373 70 377 c 0
 79 382 89 385 100 385 c 0
 120 385 133 376 140 358 c 1
 144 374 157 382 180 385 c 1
 203 385 220 379 229 367 c 0
 238 354 243 337 243 316 c 0
 243 308 241 299 236 289 c 0
 231 278 224 265 215 250 c 0
 206 236 199 222 196 209 c 0
 193 196 191 185 191 175 c 2
 191 160 l 1
 204 160 216 158 229 154 c 0
 242 150 254 145 266 137 c 0
 277 130 288 121 297 111 c 0
 306 102 314 91 320 79 c 1
 320 377 l 1
 372 377 l 1
 372 0 l 1
94 298 m 0
 94 310 92 319 87 326 c 0
 83 333 77 337 70 337 c 0
 62 337 57 333 53 327 c 0
 48 319 46 310 46 298 c 0
 46 286 48 276 52 268 c 0
 56 260 62 256 70 256 c 0
 77 256 83 260 87 268 c 0
 92 276 94 286 94 298 c 0
139 62 m 2
 139 130 l 1
 124 127 112 121 104 111 c 0
 97 101 93 89 93 74 c 0
 93 53 101 42 116 42 c 0
 131 42 139 49 139 62 c 2
EndSplineSet
EndChar
StartChar: uni0E07
Encoding: 167 3591
Width: 305
Flags: HW
HStem: 0 21<185 237 237 237> 0 67<185 185> 365 20<151.5 191.5>
VStem: 12 98 185 52<67 284 67 67>
Fore
237 0 m 1
 237 315 l 2
 237 358 213 385 170 385 c 0
 133 385 110 360 110 321 c 0
 110 292 132 262 156 262 c 0
 165 262 181 269 185 284 c 1
 185 67 l 1
 12 264 l 1
 0 252 l 1
 185 0 l 1
 237 0 l 1
183 321 m 2
 183 327 l 2
 183 295 169 281 156 281 c 0
 143 281 129 300 129 321 c 0
 129 342 141 364 156 364 c 0
 172 364 183 345 183 321 c 2
EndSplineSet
Back
237 0 m 1
 185 0 l 1
 0 252 l 1
 12 264 l 1
 185 67 l 1
 185 284 l 1
 183 277 179 271 172 268 c 0
 166 264 161 262 156 262 c 0
 144 262 133 268 124 280 c 0
 115 293 110 306 110 321 c 0
 110 340 115 356 126 368 c 0
 137 379 151 385 170 385 c 0
 191 385 208 379 220 366 c 0
 231 354 237 336 237 315 c 2
 237 0 l 1
183 321 m 2
 183 333 181 343 175 352 c 0
 170 360 164 364 156 364 c 0
 148 364 142 359 137 351 c 0
 132 341 129 332 129 321 c 0
 129 311 132 301 138 293 c 0
 143 285 149 281 156 281 c 0
 163 281 169 285 174 292 c 0
 180 299 183 311 183 327 c 2
 183 321 l 2
EndSplineSet
EndChar
StartChar: uni0E08
Encoding: 168 3592
Width: 319
Flags: HW
HStem: 0 21<201 251 251 251> 265 87<92.5 129> 352 33<101.5 137.5>
VStem: 201 50<0 39.5> 202 49<179 269 179 179>
Fore
251 0 m 1
 251 280 l 2
 251 311 241 337 214 357 c 0
 189 376 161 385 130 385 c 0
 73 385 28 356 -3 298 c 1
 9 291 l 1
 38 332 72 352 112 352 c 0
 163 352 202 320 202 269 c 2
 202 179 l 1
 179 236 148 265 110 265 c 0
 75 265 55 235 55 200 c 0
 55 167 74 141 98 141 c 0
 125 141 141 167 141 200 c 0
 141 207 141 220 138 228 c 1
 151 217 160 199 165 187 c 0
 182 140 201 79 201 0 c 1
 251 0 l 1
123 200 m 0
 123 175 111 159 98 159 c 0
 87 159 74 175 74 200 c 0
 74 225 85 242 98 242 c 0
 115 242 123 225 123 200 c 0
EndSplineSet
Back
251 0 m 1
 201 0 l 1
 201 40 197 75 189 105 c 0
 182 137 174 164 165 187 c 0
 162 193 159 200 154 208 c 0
 150 216 145 223 138 228 c 1
 139 224 140 219 141 213 c 0
 141 208 141 203 141 200 c 0
 141 183 137 169 129 158 c 0
 122 146 111 141 98 141 c 0
 86 141 76 146 67 158 c 0
 59 169 55 183 55 200 c 0
 55 217 60 232 69 246 c 0
 79 258 93 265 110 265 c 0
 148 265 179 236 202 179 c 1
 202 269 l 2
 202 294 193 314 176 330 c 0
 159 345 137 352 112 352 c 0
 72 352 38 332 9 291 c 1
 -3 298 l 1
 28 356 73 385 130 385 c 0
 161 385 189 375 214 357 c 0
 228 347 237 335 243 322 c 0
 248 310 251 295 251 280 c 2
 251 0 l 1
123 200 m 0
 123 213 121 223 117 230 c 0
 113 238 106 242 98 242 c 0
 91 242 85 238 81 230 c 0
 76 223 74 213 74 200 c 0
 74 188 77 177 82 170 c 0
 87 163 93 159 98 159 c 0
 104 159 110 163 116 170 c 0
 121 177 123 188 123 200 c 0
EndSplineSet
EndChar
StartChar: uni0E09
Encoding: 169 3593
Width: 458
Flags: HW
HStem: -3 21<310 348> 0 21<99 153 153 153> 133 28<276 276> 352 33<146.5 197>
VStem: 99 52<80 156> 276 52<62 132 161 257 161 161> 276 114<49.5 55 55 100>
Fore
390 76 m 0
 390 124 369 152 328 159 c 1
 328 267 l 2
 328 308 317 339 282 359 c 0
 253 376 218 385 176 385 c 0
 113 385 56 349 33 294 c 1
 45 288 l 1
 78 331 120 352 173 352 c 0
 236 352 276 320 276 257 c 2
 276 161 l 1
 219 152 174 125 151 80 c 1
 151 193 l 2
 151 236 125 264 82 264 c 0
 43 264 25 236 25 197 c 0
 25 170 39 140 70 140 c 0
 81 140 92 145 99 156 c 1
 99 0 l 1
 153 0 l 1
 176 77 221 124 276 133 c 1
 276 55 l 2
 276 16 293 -3 327 -3 c 0
 369 -3 390 23 390 76 c 0
97 198 m 1
 97 206 l 1
 100 175 89 155 72 155 c 0
 53 155 45 173 45 197 c 0
 45 226 58 240 70 240 c 0
 90 240 98 223 97 198 c 1
364 75 m 0
 364 53 357 42 343 42 c 0
 333 42 328 49 328 62 c 2
 328 132 l 1
 351 125 364 106 364 75 c 0
EndSplineSet
Back
390 76 m 0
 390 23 369 -3 327 -3 c 0
 293 -3 276 16 276 55 c 2
 276 133 l 1
 249 128 224 115 203 92 c 0
 181 69 165 39 153 0 c 1
 99 0 l 1
 99 156 l 1
 96 151 91 146 86 144 c 0
 81 141 75 140 70 140 c 0
 55 140 43 146 36 159 c 0
 29 171 25 184 25 197 c 0
 25 216 30 232 39 245 c 0
 48 258 62 264 82 264 c 0
 104 264 120 257 132 245 c 0
 145 231 151 214 151 193 c 2
 151 80 l 1
 162 103 179 121 201 134 c 0
 222 147 248 156 276 161 c 1
 276 257 l 2
 276 289 267 312 248 328 c 0
 229 344 204 352 173 352 c 0
 120 352 78 331 45 288 c 1
 33 294 l 1
 44 321 63 343 89 360 c 0
 116 376 145 385 176 385 c 0
 218 385 253 376 282 359 c 0
 299 349 312 336 318 321 c 0
 325 306 328 288 328 267 c 2
 328 159 l 1
 369 152 390 124 390 76 c 0
97 198 m 1
 98 210 96 221 91 229 c 0
 87 236 80 240 70 240 c 0
 64 240 58 236 53 229 c 0
 48 223 45 211 45 197 c 0
 45 185 47 175 51 167 c 0
 56 159 62 155 72 155 c 0
 81 155 87 160 92 169 c 0
 97 178 98 190 97 206 c 1
 97 198 l 1
364 75 m 0
 364 90 361 103 354 112 c 0
 348 122 339 129 328 132 c 1
 328 62 l 2
 328 49 333 42 343 42 c 0
 357 42 364 53 364 75 c 0
EndSplineSet
EndChar
StartChar: uni0E0A
Encoding: 170 3594
Width: 355
Flags: HW
HStem: 0 20<51 89 141 199> 364 21<102 124.5> 388 20<231 287 231 231>
VStem: 89 52<20 173> 141 90 235 52<54 210>
Fore
287 54 m 2
 287 210 l 2
 287 233 281 252 269 269 c 0
 255 292 239 303 220 303 c 1
 271 314 287 341 287 396 c 2
 287 408 l 1
 231 408 l 1
 231 396 l 2
 231 355 220 328 198 317 c 1
 189 362 159 385 109 385 c 0
 57 385 20 346 20 294 c 0
 20 254 41 233 65 233 c 0
 92 233 109 265 109 294 c 0
 109 305 107 322 100 334 c 0
 92 348 83 355 73 355 c 1
 83 361 95 364 109 364 c 0
 140 364 156 350 156 322 c 0
 156 307 147 294 132 275 c 0
 103 240 89 206 89 173 c 2
 89 20 l 1
 51 20 l 1
 51 0 l 1
 243 0 l 2
 256 0 267 6 276 19 c 0
 283 30 287 42 287 54 c 2
89 294 m 0
 89 267 82 249 65 249 c 0
 49 249 39 266 39 294 c 0
 39 317 53 334 65 334 c 0
 81 334 89 314 89 294 c 0
235 53 m 2
 235 36 216 20 199 20 c 2
 141 20 l 1
 141 175 l 2
 141 197 146 215 156 230 c 0
 179 262 193 279 193 286 c 1
 217 275 235 253 235 210 c 2
 235 53 l 2
EndSplineSet
Back
287 54 m 2
 287 42 283 30 276 19 c 0
 267 6 256 0 243 0 c 2
 51 0 l 1
 51 20 l 1
 89 20 l 1
 89 173 l 2
 89 207 104 240 132 275 c 0
 139 284 145 292 149 300 c 0
 154 307 156 314 156 322 c 0
 156 350 140 364 109 364 c 0
 95 364 83 361 73 355 c 1
 83 355 92 348 100 334 c 0
 104 328 105 321 107 313 c 0
 108 306 109 299 109 294 c 0
 109 279 105 266 97 252 c 0
 89 239 78 233 65 233 c 0
 53 233 42 238 34 249 c 0
 24 259 20 274 20 294 c 0
 20 320 28 342 45 359 c 0
 62 376 83 385 109 385 c 0
 159 385 188 362 198 317 c 1
 220 328 231 354 231 396 c 2
 231 408 l 1
 287 408 l 1
 287 396 l 2
 287 369 282 348 272 333 c 0
 263 318 245 308 220 303 c 1
 239 303 255 292 269 269 c 0
 281 252 287 233 287 210 c 2
 287 54 l 2
89 294 m 0
 89 304 87 313 83 321 c 0
 79 330 73 334 65 334 c 0
 59 334 53 330 47 322 c 0
 42 315 39 305 39 294 c 0
 39 280 42 269 46 261 c 0
 51 253 57 249 65 249 c 0
 74 249 80 253 83 262 c 0
 87 270 89 281 89 294 c 0
235 53 m 2
 235 210 l 2
 235 231 231 248 223 260 c 0
 215 272 205 281 193 286 c 1
 193 283 189 276 183 268 c 0
 176 258 167 246 156 230 c 0
 146 215 141 197 141 175 c 2
 141 20 l 1
 199 20 l 2
 208 20 216 23 224 30 c 0
 231 37 235 44 235 53 c 2
EndSplineSet
EndChar
StartChar: uni0E0B
Encoding: 171 3595
Width: 392
Flags: HW
HStem: 0 19<88 124 176 236 236 243.5> 0 21<88 280 88 88> 364 21<81.5 91.5 159.5 178> 389 20<267 324 324 324>
VStem: 124 52<19 174 174 175> 267 57<398 409> 272 52<55 212>
Fore
168 385 m 0
 203 385 229 360 230 317 c 1
 231 317 l 2
 254 317 267 354 267 398 c 2
 267 409 l 1
 324 409 l 1
 324 398 l 2
 324 343 302 313 257 307 c 1
 301 307 324 273 324 212 c 2
 324 55 l 2
 324 40 321 30 314 19 c 0
 305 6 293 0 280 0 c 2
 88 0 l 1
 88 19 l 1
 124 19 l 1
 124 174 l 2
 124 201 135 231 160 266 c 0
 184 299 197 313 197 329 c 0
 197 350 188 364 168 364 c 0
 147 364 137 349 137 319 c 1
 122 319 l 1
 122 350 96 364 87 364 c 0
 76 364 65 362 62 355 c 1
 77 355 89 349 98 336 c 1
 105 323 109 309 109 292 c 0
 109 265 92 233 64 233 c 0
 41 233 18 259 18 292 c 0
 18 336 42 385 87 385 c 0
 103 385 120 376 129 360 c 1
 138 377 151 385 168 385 c 0
272 55 m 2
 272 212 l 1
 271 256 257 289 225 293 c 1
 220 278 212 263 201 247 c 1
 184 217 176 193 176 175 c 2
 176 19 l 1
 236 19 l 2
 251 19 272 36 272 55 c 2
91 292 m 0
 91 312 82 335 62 335 c 0
 47 335 37 315 37 292 c 0
 37 269 51 254 66 254 c 0
 79 254 91 269 91 292 c 0
EndSplineSet
Back
168 385 m 0
 151 385 138 376 129 360 c 1
 125 368 118 374 110 378 c 0
 103 383 95 385 87 385 c 0
 76 385 65 382 57 376 c 0
 48 371 41 364 36 355 c 0
 30 346 25 336 22 326 c 0
 20 314 18 303 18 292 c 0
 18 275 23 261 33 250 c 0
 42 239 53 233 64 233 c 0
 78 233 89 239 97 252 c 0
 105 266 109 279 109 292 c 0
 109 309 105 323 98 336 c 0
 89 349 77 355 62 355 c 1
 63 358 66 361 71 362 c 0
 77 363 82 364 87 364 c 0
 92 364 99 360 108 353 c 0
 117 346 122 334 122 319 c 1
 137 319 l 1
 137 349 147 364 168 364 c 0
 178 364 186 361 190 354 c 0
 195 348 197 340 197 329 c 0
 197 321 194 312 188 304 c 0
 181 295 172 283 160 266 c 0
 147 249 138 232 132 217 c 0
 127 202 124 188 124 174 c 2
 124 19 l 1
 88 19 l 1
 88 0 l 1
 280 0 l 2
 293 0 305 6 314 19 c 0
 317 24 320 30 321 36 c 0
 323 41 324 48 324 55 c 2
 324 212 l 2
 324 243 318 266 307 283 c 0
 296 299 279 307 257 307 c 1
 302 313 324 343 324 398 c 2
 324 409 l 1
 267 409 l 1
 267 398 l 2
 267 376 264 357 257 341 c 0
 251 325 242 317 231 317 c 2
 230 317 l 1
 229 338 223 355 211 367 c 0
 200 379 186 385 168 385 c 0
272 55 m 2
 272 46 268 37 259 30 c 0
 251 22 243 19 236 19 c 2
 176 19 l 1
 176 175 l 2
 176 193 185 217 201 247 c 0
 207 255 211 263 215 271 c 0
 219 278 222 286 225 293 c 1
 241 291 252 283 260 268 c 0
 267 252 271 234 272 212 c 1
 272 55 l 2
91 292 m 0
 91 281 88 271 83 265 c 0
 79 257 73 254 66 254 c 0
 59 254 52 257 46 265 c 0
 40 271 37 281 37 292 c 0
 37 303 40 313 44 322 c 0
 49 331 55 335 62 335 c 0
 72 335 79 331 84 321 c 0
 89 312 91 302 91 292 c 0
EndSplineSet
EndChar
StartChar: uni0E0C
Encoding: 172 3596
Width: 542
Flags: HW
HStem: -6 21<128 140.5> -5 21<254.5 295.5> 0 21<419 474 474 474> 352 33<161.5 199> 378 21<422 474 422 422>
VStem: 53 52<100 193> 53 126<40.5 62 62 68.5> 205 24<59.5 88> 278 52<57.5 70 70 130 159 257> 422 52<111 378 111 111>
Fore
474 0 m 1
 474 378 l 1
 422 378 l 1
 422 111 l 1
 399 139 366 154 330 159 c 1
 330 257 l 2
 330 300 315 333 284 355 c 0
 258 375 222 385 176 385 c 0
 147 385 118 377 89 360 c 0
 56 341 37 318 30 293 c 1
 67 293 95 286 112 273 c 1
 73 261 53 234 53 193 c 2
 53 62 l 2
 53 19 78 -6 121 -6 c 0
 160 -6 179 14 179 53 c 0
 179 84 168 116 136 116 c 0
 120 116 110 108 105 100 c 1
 105 207 l 2
 105 239 122 258 149 266 c 1
 128 295 100 309 65 309 c 1
 92 338 128 352 175 352 c 0
 234 352 278 316 278 257 c 2
 278 157 l 1
 231 144 205 116 205 72 c 0
 205 25 231 -5 278 -5 c 0
 313 -5 330 14 330 53 c 2
 330 130 l 1
 359 125 380 106 395 82 c 0
 410 59 419 33 419 0 c 1
 474 0 l 1
278 70 m 2
 278 45 270 33 254 34 c 0
 237 35 229 48 229 71 c 0
 229 105 245 125 278 130 c 1
 278 70 l 2
162 53 m 0
 162 34 155 15 136 15 c 0
 120 15 110 30 110 51 c 0
 110 82 120 96 135 96 c 0
 156 96 162 69 162 53 c 0
EndSplineSet
Back
474 0 m 1
 419 0 l 1
 419 17 417 32 413 45 c 0
 408 58 402 71 395 82 c 0
 388 94 379 104 368 113 c 0
 357 122 345 127 330 130 c 1
 330 53 l 2
 330 14 312 -5 278 -5 c 0
 255 -5 237 2 224 16 c 0
 211 30 205 49 205 72 c 0
 205 94 211 112 224 126 c 0
 237 140 255 150 278 157 c 1
 278 257 l 2
 278 286 268 310 249 327 c 0
 229 343 204 352 175 352 c 0
 128 352 92 338 65 309 c 1
 100 309 128 294 149 266 c 1
 136 262 125 255 117 246 c 0
 109 236 105 223 105 207 c 2
 105 100 l 1
 108 104 111 108 117 111 c 0
 122 114 128 116 136 116 c 0
 152 116 163 109 169 96 c 0
 176 83 179 68 179 53 c 0
 179 14 160 -6 121 -6 c 0
 100 -6 83 0 71 12 c 0
 59 24 53 41 53 62 c 2
 53 193 l 2
 53 234 73 261 112 273 c 1
 95 286 67 293 30 293 c 1
 37 318 56 341 89 360 c 0
 118 376 147 385 176 385 c 0
 222 385 258 375 284 355 c 0
 314 333 330 300 330 257 c 2
 330 159 l 1
 348 156 365 151 381 144 c 0
 397 136 411 125 422 111 c 1
 422 378 l 1
 474 378 l 1
 474 0 l 1
278 70 m 2
 278 130 l 1
 245 125 229 105 229 71 c 0
 229 48 237 35 254 34 c 0
 270 33 278 44 278 70 c 2
162 53 m 0
 162 61 160 70 157 81 c 0
 153 91 146 96 135 96 c 0
 127 96 122 92 117 85 c 0
 112 78 110 66 110 51 c 0
 110 41 112 32 117 25 c 0
 122 19 128 15 136 15 c 0
 146 15 152 19 156 27 c 0
 160 35 162 43 162 53 c 0
EndSplineSet
EndChar
StartChar: uni0E0D
Encoding: 173 3597
Width: 543
Flags: HW
HStem: -196 20<362 381.5> -195 150<337.5 344.5> -6 21<99.5 140.5> 0 21<277 432 432 446.5> 352 33<160.5 203> 378 21<423 475 423 423>
VStem: 53 52<94 194> 53 129<40.5 62 62 70.5> 277 52<19 257> 423 52<55 378>
Fore
475 55 m 2
 475 378 l 1
 423 378 l 1
 423 55 l 2
 423 31 407 19 387 19 c 2
 329 19 l 1
 329 257 l 2
 329 342 278 385 176 385 c 0
 145 385 116 377 89 360 c 0
 57 342 37 320 30 293 c 1
 67 293 95 286 112 273 c 1
 73 261 53 235 53 194 c 2
 53 62 l 2
 53 19 79 -6 120 -6 c 0
 161 -6 182 13 182 51 c 0
 182 90 163 110 140 110 c 0
 125 110 114 105 105 94 c 1
 105 207 l 2
 105 239 122 258 149 266 c 1
 127 295 99 310 65 310 c 1
 91 338 128 352 175 352 c 0
 231 352 277 313 277 257 c 2
 277 0 l 1
 432 0 l 2
 461 0 475 18 475 55 c 2
475 -45 m 1
 426 -45 l 1
 427 -70 l 1
 428 -93 427 -122 418 -138 c 0
 407 -157 391 -176 372 -176 c 0
 352 -176 336 -169 323 -154 c 1
 331 -155 l 2
 358 -155 374 -128 374 -100 c 0
 374 -72 358 -45 331 -45 c 0
 296 -45 272 -71 272 -107 c 0
 272 -158 312 -195 363 -195 c 0
 438 -195 475 -145 475 -45 c 1
166 51 m 0
 166 27 153 13 140 13 c 0
 120 13 111 31 111 50 c 0
 111 74 127 90 140 90 c 0
 153 90 166 74 166 51 c 0
358 -100 m 0
 358 -123 350 -140 331 -140 c 0
 324 -139 318 -136 311 -125 c 0
 308 -120 305 -111 305 -100 c 0
 305 -93 306 -83 311 -75 c 0
 317 -66 324 -61 331 -61 c 0
 347 -61 358 -81 358 -100 c 0
EndSplineSet
Back
475 55 m 2
 475 19 460 0 432 0 c 2
 277 0 l 1
 277 257 l 2
 277 271 274 284 269 295 c 0
 264 307 256 317 247 326 c 0
 238 334 227 340 214 345 c 0
 202 350 189 352 175 352 c 0
 127 352 91 338 65 310 c 1
 99 310 127 295 149 266 c 1
 136 262 125 255 117 246 c 0
 109 236 105 223 105 207 c 2
 105 94 l 1
 114 104 125 110 140 110 c 0
 151 110 161 105 169 95 c 0
 178 85 182 70 182 51 c 0
 182 13 161 -6 120 -6 c 0
 99 -6 83 0 71 12 c 0
 59 24 53 41 53 62 c 2
 53 194 l 2
 53 235 73 261 112 273 c 1
 95 286 67 293 30 293 c 1
 37 320 57 342 89 360 c 0
 116 376 146 385 176 385 c 0
 278 385 329 342 329 257 c 2
 329 19 l 1
 387 19 l 2
 397 19 405 22 413 28 c 0
 419 34 423 43 423 55 c 2
 423 378 l 1
 475 378 l 1
 475 55 l 2
475 -45 m 1
 475 -145 438 -195 363 -195 c 0
 338 -195 316 -187 298 -170 c 0
 281 -153 272 -132 272 -107 c 0
 272 -89 277 -74 289 -62 c 0
 299 -51 313 -45 331 -45 c 0
 344 -45 355 -51 362 -62 c 0
 370 -73 374 -86 374 -100 c 0
 374 -114 370 -126 362 -138 c 0
 355 -149 344 -155 331 -155 c 2
 323 -154 l 1
 335 -168 352 -176 372 -176 c 0
 381 -176 390 -172 398 -164 c 0
 406 -156 413 -147 418 -138 c 0
 423 -130 425 -120 426 -106 c 0
 428 -93 428 -82 427 -70 c 1
 426 -45 l 1
 475 -45 l 1
166 51 m 0
 166 62 164 72 158 79 c 0
 153 86 146 90 140 90 c 0
 133 90 127 86 121 79 c 0
 114 72 111 62 111 50 c 0
 111 41 113 32 118 24 c 0
 123 17 130 13 140 13 c 0
 146 13 153 16 158 23 c 0
 164 30 166 39 166 51 c 0
358 -100 m 0
 358 -91 355 -82 351 -74 c 0
 346 -65 339 -61 331 -61 c 0
 324 -61 317 -65 311 -75 c 0
 308 -79 307 -83 306 -88 c 0
 305 -93 305 -97 305 -100 c 0
 305 -105 306 -110 307 -114 c 0
 308 -119 310 -123 311 -125 c 0
 314 -130 318 -134 321 -136 c 0
 324 -138 328 -139 331 -140 c 0
 340 -140 347 -136 352 -128 c 0
 356 -121 358 -111 358 -100 c 0
EndSplineSet
EndChar
StartChar: uni0E0E
Encoding: 174 3598
Width: 428
Flags: HW
HStem: -161 21<305 360 305 305> -6 21<62.5 106.5> 0 21<231 261 261 261> 352 33<206 243.5>
VStem: 97 52<42.5 66 104 193 193 207> 308 52<-90 257>
Fore
360 -161 m 1
 305 -161 l 1
 288 -132 268 -111 244 -91 c 1
 240 -106 225 -137 182 -148 c 0
 173 -151 163 -152 152 -152 c 0
 115 -152 74 -136 74 -95 c 0
 74 -52 116 -27 160 -27 c 0
 183 -27 206 -33 227 -41 c 1
 230 -34 230 -24 231 0 c 1
 261 0 l 1
 258 -27 256 -46 255 -53 c 1
 260 -57 268 -61 277 -68 c 2
 308 -90 l 1
 308 257 l 2
 308 314 277 352 220 352 c 0
 173 352 136 338 110 310 c 1
 144 310 172 295 193 266 c 1
 168 258 149 238 149 207 c 2
 149 68 l 2
 149 17 132 -6 81 -6 c 0
 44 -6 20 17 20 54 c 0
 20 86 38 116 69 116 c 0
 76 116 86 112 97 104 c 1
 97 193 l 2
 97 236 116 262 154 273 c 1
 133 286 105 293 69 293 c 1
 77 320 101 341 133 360 c 0
 162 377 191 385 221 385 c 0
 266 385 287 378 314 358 c 0
 345 335 360 300 360 257 c 2
 360 -161 l 1
220 -74 m 1
 203 -59 177 -55 156 -55 c 0
 125 -55 97 -70 97 -94 c 0
 97 -121 123 -130 150 -130 c 1
 179 -134 216 -109 220 -74 c 1
97 54 m 0
 97 78 85 93 68 93 c 0
 49 93 40 71 40 54 c 0
 40 27 55 14 68 14 c 0
 83 14 97 27 97 54 c 0
EndSplineSet
Back
360 -161 m 1
 360 257 l 2
 360 278 356 298 349 315 c 0
 341 333 329 347 314 358 c 0
 301 368 288 375 274 379 c 0
 262 383 244 385 221 385 c 0
 191 385 162 376 133 360 c 0
 117 351 104 340 92 330 c 0
 81 318 73 306 69 293 c 1
 105 293 133 286 154 273 c 1
 116 262 97 236 97 193 c 2
 97 104 l 1
 85 112 76 116 69 116 c 0
 54 116 42 110 33 97 c 0
 24 84 20 70 20 54 c 0
 20 35 25 21 37 10 c 0
 47 -0 62 -6 81 -6 c 0
 106 -6 124 0 134 12 c 0
 144 24 149 42 149 68 c 2
 149 207 l 2
 149 222 153 235 162 245 c 0
 170 255 180 262 193 266 c 1
 172 295 144 310 110 310 c 1
 136 338 173 352 220 352 c 0
 249 352 271 343 286 326 c 0
 300 309 308 286 308 257 c 2
 308 -90 l 1
 277 -68 l 2
 272 -64 268 -62 265 -60 c 0
 261 -57 258 -55 255 -53 c 1
 256 -50 256 -43 257 -34 c 0
 258 -25 260 -13 261 0 c 1
 231 0 l 1
 230 -12 230 -21 229 -27 c 0
 229 -33 229 -38 227 -41 c 1
 216 -37 206 -34 194 -31 c 0
 183 -28 171 -27 160 -27 c 0
 138 -27 118 -33 101 -45 c 0
 83 -57 74 -74 74 -95 c 0
 74 -105 76 -114 81 -121 c 0
 85 -128 92 -134 99 -139 c 0
 106 -144 115 -147 124 -149 c 0
 133 -151 143 -152 152 -152 c 0
 157 -152 163 -152 167 -151 c 0
 182 -148 l 0
 203 -143 218 -134 228 -121 c 0
 236 -108 242 -98 244 -91 c 1
 256 -101 267 -111 277 -123 c 0
 287 -133 296 -146 305 -161 c 1
 360 -161 l 1
220 -74 m 1
 219 -84 214 -95 207 -105 c 0
 199 -115 190 -122 180 -125 c 0
 170 -128 160 -130 150 -130 c 0
 137 -130 125 -127 113 -122 c 0
 103 -117 97 -107 97 -94 c 0
 97 -82 103 -72 115 -65 c 0
 127 -59 141 -55 156 -55 c 0
 167 -55 178 -56 189 -59 c 0
 201 -62 211 -67 220 -74 c 1
97 54 m 0
 97 41 94 31 88 24 c 0
 82 17 75 14 68 14 c 0
 62 14 55 17 49 24 c 0
 43 31 40 41 40 54 c 0
 40 62 42 71 47 80 c 0
 52 89 59 93 68 93 c 0
 77 93 83 89 89 83 c 0
 94 76 97 66 97 54 c 0
EndSplineSet
EndChar
StartChar: uni0E0F
Encoding: 175 3599
Width: 428
Flags: HW
HStem: -162 21<221 244 221 221 312 360 312 312> -144 20<118.5 142.5> -6 21<62.5 107.5> 0 21<191 211 211 211> 352 33<206 243.5>
VStem: 97 52<45 66 103 193 193 206> 308 52<-93 257>
Fore
360 257 m 2
 360 -162 l 1
 312 -162 l 1
 274 -92 l 1
 244 -162 l 1
 221 -162 l 1
 218 -138 212 -115 195 -92 c 1
 187 -127 165 -144 130 -144 c 0
 94 -144 61 -121 61 -88 c 0
 61 -52 94 -29 131 -29 c 0
 154 -29 167 -30 187 -45 c 1
 191 -30 191 -15 191 0 c 1
 211 0 l 1
 211 -12 l 2
 211 -27 210 -39 207 -58 c 1
 217 -67 229 -79 243 -96 c 1
 273 -29 l 1
 308 -93 l 1
 308 257 l 2
 308 314 277 352 220 352 c 0
 173 352 136 338 110 310 c 1
 144 310 172 295 193 266 c 1
 168 258 149 237 149 206 c 2
 149 67 l 2
 149 23 134 -6 81 -6 c 0
 44 -6 20 17 20 54 c 0
 20 86 38 116 69 116 c 0
 78 116 92 111 97 103 c 1
 97 193 l 2
 97 236 116 262 154 273 c 1
 133 286 105 293 69 293 c 1
 77 320 101 341 133 360 c 0
 162 377 191 385 221 385 c 0
 266 385 287 378 314 358 c 0
 345 335 360 300 360 257 c 2
179 -76 m 1
 167 -61 146 -55 127 -55 c 0
 99 -55 85 -66 85 -89 c 0
 85 -108 107 -124 130 -124 c 0
 155 -124 171 -108 179 -76 c 1
97 54 m 0
 97 78 85 93 68 93 c 0
 49 93 40 71 40 54 c 0
 40 27 55 14 68 14 c 0
 83 14 97 27 97 54 c 0
EndSplineSet
Back
360 257 m 2
 360 278 356 298 349 315 c 0
 341 333 329 347 314 358 c 0
 301 368 288 375 274 379 c 0
 262 383 244 385 221 385 c 0
 191 385 162 376 133 360 c 0
 117 351 104 340 92 330 c 0
 81 318 73 306 69 293 c 1
 105 293 133 286 154 273 c 1
 116 262 97 236 97 193 c 2
 97 103 l 1
 94 107 90 110 84 112 c 0
 79 115 74 116 69 116 c 0
 54 116 42 110 33 97 c 0
 24 84 20 70 20 54 c 0
 20 35 25 21 37 10 c 0
 47 -0 62 -6 81 -6 c 0
 108 -6 125 0 135 14 c 0
 145 27 149 45 149 67 c 2
 149 206 l 2
 149 221 153 234 162 245 c 0
 170 255 180 262 193 266 c 1
 172 295 144 310 110 310 c 1
 136 338 173 352 220 352 c 0
 249 352 271 343 286 326 c 0
 300 309 308 286 308 257 c 2
 308 -93 l 1
 273 -29 l 1
 243 -96 l 1
 229 -79 217 -67 207 -58 c 1
 208 -49 209 -41 210 -34 c 0
 210 -26 211 -20 211 -12 c 2
 211 0 l 1
 191 0 l 1
 191 -7 191 -15 190 -22 c 0
 190 -30 189 -38 187 -45 c 1
 177 -38 168 -33 160 -32 c 0
 152 -30 142 -29 131 -29 c 0
 112 -29 96 -34 82 -45 c 0
 68 -56 61 -70 61 -88 c 0
 61 -104 68 -118 82 -128 c 0
 96 -139 112 -144 130 -144 c 0
 166 -144 187 -126 195 -92 c 1
 204 -104 210 -115 213 -126 c 0
 217 -138 220 -150 221 -162 c 1
 244 -162 l 1
 274 -92 l 1
 312 -162 l 1
 360 -162 l 1
 360 257 l 2
179 -76 m 1
 171 -108 155 -124 130 -124 c 0
 119 -124 108 -121 99 -113 c 0
 90 -106 85 -98 85 -89 c 0
 85 -66 99 -55 127 -55 c 0
 136 -55 146 -57 155 -60 c 0
 165 -63 173 -69 179 -76 c 1
97 54 m 0
 97 41 94 31 88 24 c 0
 82 17 75 14 68 14 c 0
 62 14 55 17 49 24 c 0
 43 31 40 41 40 54 c 0
 40 62 42 71 47 80 c 0
 52 89 59 93 68 93 c 0
 77 93 83 89 89 83 c 0
 94 76 97 66 97 54 c 0
EndSplineSet
EndChar
StartChar: uni0E10
Encoding: 176 3600
Width: 356
Flags: HW
HStem: -200 20<53.5 66.5 121 121> -198 183<201 204.5 201 201> 0 21<194 246 194 194> 220 59 279 20 279 21 299 42 325 20<238 255.5> 365 20<100 137.5> 380 21<285 306 306 306>
VStem: 194 52<0 48 161 196 196 196> 202 44
Fore
246 -198 m 1
 201 -198 l 1
 170 -170 l 1
 146 -198 l 1
 125 -198 l 1
 125 -191 124 -185 121 -180 c 2
 112 -165 l 1
 96 -187 79 -198 60 -198 c 0
 37 -198 20 -181 20 -158 c 0
 20 -135 41 -118 64 -118 c 0
 82 -118 97 -123 110 -133 c 1
 123 -108 l 1
 138 -117 l 1
 122 -147 l 1
 126 -151 131 -160 138 -173 c 1
 169 -134 l 1
 205 -168 l 1
 205 -112 l 1
 197 -120 188 -124 178 -124 c 0
 150 -124 136 -97 136 -70 c 0
 136 -39 153 -15 184 -15 c 0
 225 -15 246 -37 246 -82 c 2
 246 -198 l 1
202 -70 m 0
 202 -46 194 -34 178 -34 c 0
 166 -34 155 -46 155 -70 c 0
 155 -90 163 -107 178 -107 c 0
 191 -107 202 -94 202 -70 c 0
99 -150 m 1
 87 -140 75 -135 64 -135 c 0
 49 -135 40 -146 40 -158 c 0
 40 -169 46 -180 61 -180 c 0
 72 -180 84 -173 99 -150 c 1
246 197 m 1
 246 0 l 1
 194 0 l 1
 194 96 173 158 141 186 c 1
 144 179 146 171 146 160 c 0
 146 132 129 106 102 106 c 0
 78 106 59 135 59 162 c 0
 59 195 77 220 114 220 c 0
 149 220 179 200 194 161 c 1
 194 196 l 1
 193 233 171 257 129 268 c 0
 103 275 67 279 21 279 c 1
 29 337 72 385 128 385 c 0
 147 385 165 382 184 373 c 0
 200 365 232 345 244 345 c 0
 267 345 276 360 285 380 c 1
 306 380 l 1
 294 337 269 316 232 316 c 0
 221 316 204 319 180 327 c 0
 157 334 138 341 126 341 c 0
 87 341 63 327 54 298 c 1
 61 299 69 300 93 300 c 0
 133 300 167 293 194 278 c 0
 228 259 245 232 246 197 c 1
127 162 m 0
 127 178 118 197 102 197 c 0
 87 197 78 182 78 162 c 0
 78 138 87 125 102 125 c 0
 115 125 127 138 127 162 c 0
EndSplineSet
Back
246 -198 m 1
 246 -82 l 2
 246 -37 225 -15 184 -15 c 0
 168 -15 157 -21 148 -31 c 0
 140 -42 136 -55 136 -70 c 0
 136 -83 140 -96 146 -107 c 0
 153 -118 164 -124 178 -124 c 0
 188 -124 197 -120 205 -112 c 1
 205 -168 l 1
 169 -134 l 1
 138 -173 l 1
 131 -160 126 -151 122 -147 c 1
 138 -117 l 1
 123 -108 l 1
 110 -133 l 1
 97 -123 82 -118 64 -118 c 0
 53 -118 42 -122 34 -129 c 0
 24 -137 20 -146 20 -158 c 0
 20 -169 24 -179 32 -187 c 0
 39 -194 49 -198 60 -198 c 0
 79 -198 96 -187 112 -165 c 1
 121 -180 l 2
 124 -185 125 -190 125 -198 c 1
 146 -198 l 1
 170 -170 l 1
 201 -198 l 1
 246 -198 l 1
202 -70 m 0
 202 -82 200 -91 195 -98 c 0
 190 -104 185 -107 178 -107 c 0
 171 -107 165 -104 161 -96 c 0
 157 -89 155 -80 155 -70 c 0
 155 -58 157 -49 162 -43 c 0
 167 -37 172 -34 178 -34 c 0
 194 -34 202 -46 202 -70 c 0
99 -150 m 1
 92 -161 85 -169 79 -173 c 0
 72 -178 66 -180 61 -180 c 0
 54 -180 48 -178 45 -173 c 0
 42 -168 40 -164 40 -158 c 0
 40 -152 42 -146 46 -142 c 0
 51 -137 57 -135 64 -135 c 0
 75 -135 87 -140 99 -150 c 1
246 197 m 1
 245 231 228 259 194 278 c 0
 167 292 133 300 93 300 c 0
 81 300 72 300 67 299 c 0
 62 299 57 299 54 298 c 1
 62 327 86 341 126 341 c 0
 132 341 140 339 149 336 c 0
 158 333 168 331 180 327 c 0
 192 323 202 320 211 318 c 0
 220 317 227 316 232 316 c 0
 270 316 294 337 306 380 c 1
 285 380 l 1
 280 370 275 362 270 355 c 0
 264 348 255 345 244 345 c 0
 241 345 236 346 231 349 c 0
 227 351 221 354 215 356 c 0
 210 359 204 362 199 366 c 0
 193 369 188 371 184 373 c 0
 175 377 166 381 156 382 c 0
 146 384 137 385 128 385 c 0
 114 385 101 382 89 376 c 0
 77 371 66 363 57 354 c 0
 47 344 39 333 33 320 c 0
 27 307 23 293 21 279 c 1
 67 279 103 275 129 268 c 0
 171 257 193 233 194 196 c 1
 194 161 l 1
 187 180 176 195 162 205 c 0
 147 215 131 220 114 220 c 0
 95 220 82 214 72 204 c 0
 63 192 59 179 59 162 c 0
 59 148 63 136 71 124 c 0
 80 112 90 106 102 106 c 0
 115 106 126 111 134 123 c 0
 142 133 146 146 146 160 c 0
 146 171 145 179 141 186 c 1
 157 172 170 149 180 119 c 0
 189 87 194 48 194 0 c 1
 246 0 l 1
 246 197 l 1
127 162 m 0
 127 150 125 141 120 134 c 0
 114 128 109 125 102 125 c 0
 95 125 89 128 84 134 c 0
 80 141 78 150 78 162 c 0
 78 172 80 180 84 187 c 0
 89 194 95 197 102 197 c 0
 110 197 116 193 121 186 c 0
 125 178 127 170 127 162 c 0
EndSplineSet
EndChar
StartChar: uni0E11
Encoding: 177 3601
Width: 458
Flags: HW
HStem: 0 64 320 38 364 21<160 166.5> 365 20<75.5 88.5>
VStem: 118 52<64 174> 172 166<0 0> 185 35<321.5 338.5> 220 112 338 52<0 313>
Fore
390 0 m 1
 390 325 l 2
 390 357 364 385 332 385 c 0
 301 385 278 365 264 326 c 2
 170 64 l 1
 170 175 l 2
 170 194 182 226 203 269 c 1
 211 289 220 306 220 325 c 0
 220 365 200 385 160 385 c 1
 138 382 125 373 120 358 c 1
 111 376 97 385 80 385 c 0
 38 385 5 342 5 298 c 0
 5 259 26 236 50 236 c 0
 77 236 96 259 96 298 c 0
 96 334 81 356 56 356 c 1
 62 362 70 365 81 365 c 0
 102 365 112 350 112 320 c 1
 126 320 l 1
 126 339 138 364 157 364 c 0
 176 364 185 351 185 326 c 0
 185 317 173 296 150 263 c 0
 127 228 118 201 118 174 c 2
 118 0 l 1
 172 0 l 1
 283 319 l 1
 290 338 302 340 315 340 c 0
 327 340 338 332 338 313 c 2
 338 0 l 1
 390 0 l 1
75 298 m 0
 75 274 63 256 50 256 c 0
 35 256 25 267 25 298 c 0
 25 321 39 337 50 337 c 0
 65 337 75 326 75 298 c 0
EndSplineSet
Back
390 0 m 1
 338 0 l 1
 338 313 l 2
 338 322 335 329 331 333 c 0
 326 338 321 340 315 340 c 0
 308 340 302 339 296 336 c 0
 291 334 286 328 283 319 c 2
 172 0 l 1
 118 0 l 1
 118 174 l 2
 118 188 121 201 125 215 c 0
 130 230 139 246 150 263 c 0
 173 296 185 317 185 326 c 0
 185 352 176 364 157 364 c 0
 147 364 140 359 134 349 c 0
 129 339 126 329 126 320 c 1
 112 320 l 1
 112 350 102 365 81 365 c 0
 70 365 62 362 56 356 c 1
 69 356 79 351 85 340 c 0
 92 330 96 316 96 298 c 0
 96 279 92 264 83 252 c 0
 74 242 63 236 50 236 c 0
 38 236 27 242 19 252 c 0
 9 264 5 279 5 298 c 0
 5 310 7 320 11 331 c 0
 15 341 21 350 27 358 c 0
 34 366 42 373 50 377 c 0
 60 382 69 385 80 385 c 0
 97 385 111 376 120 358 c 1
 125 373 138 382 160 385 c 1
 200 385 220 365 220 325 c 0
 220 315 218 307 214 297 c 0
 211 289 207 279 203 269 c 0
 192 248 184 229 179 213 c 0
 173 197 170 185 170 175 c 2
 170 64 l 1
 264 326 l 2
 278 365 301 385 332 385 c 0
 348 385 362 379 373 367 c 0
 384 355 390 341 390 325 c 2
 390 0 l 1
75 298 m 0
 75 312 73 322 68 328 c 0
 63 334 57 337 50 337 c 0
 44 337 39 333 34 326 c 0
 28 319 25 310 25 298 c 0
 25 283 27 272 32 266 c 0
 37 259 42 256 50 256 c 0
 57 256 62 260 67 268 c 0
 72 276 75 286 75 298 c 0
EndSplineSet
EndChar
StartChar: uni0E12
Encoding: 178 3602
Width: 533
Flags: HW
HStem: -5 36<247.5 256.5> 137 29 354 31<105.5 120.5 220.5 237.5>
VStem: 20 40<241.5 265.5> 71 62<0 14.5> 200 23<62.5 92.5> 200 121<53 101.5> 270 52<166 296 296 297> 322 91<166 296 296 323.5> 413 52<124 378 124 124>
Fore
465 0 m 1
 465 378 l 1
 413 378 l 1
 413 124 l 1
 392 144 359 159 322 166 c 1
 322 296 l 2
 322 351 291 385 236 385 c 0
 205 385 183 373 170 348 c 1
 153 373 133 385 108 385 c 0
 78 385 55 369 39 338 c 0
 26 312 20 283 20 250 c 0
 20 225 25 194 36 158 c 0
 59 82 71 31 71 0 c 1
 133 0 l 1
 133 29 142 59 160 91 c 0
 199 158 213 187 213 208 c 0
 213 241 198 272 159 272 c 0
 128 272 108 244 108 211 c 0
 108 182 129 150 160 150 c 1
 120 95 l 1
 85 168 l 2
 70 200 60 228 60 255 c 0
 60 276 64 297 71 317 c 0
 81 342 96 354 115 354 c 0
 142 354 158 339 162 308 c 1
 177 308 l 1
 181 339 197 354 224 354 c 0
 251 354 270 336 270 297 c 2
 270 164 l 1
 223 151 200 123 200 80 c 0
 200 23 224 -5 271 -5 c 0
 304 -5 321 14 321 53 c 2
 321 137 l 1
 377 122 410 77 410 0 c 1
 465 0 l 1
182 211 m 0
 182 186 170 171 155 171 c 0
 140 171 129 186 129 211 c 0
 129 238 140 250 155 250 c 0
 172 250 182 230 182 211 c 0
270 55 m 2
 270 39 263 31 250 31 c 0
 231 31 223 49 223 76 c 0
 223 109 241 129 270 137 c 1
 270 55 l 2
EndSplineSet
Back
465 0 m 1
 410 0 l 1
 410 39 402 69 387 92 c 0
 371 115 349 130 321 137 c 1
 321 53 l 2
 321 14 304 -5 271 -5 c 0
 224 -5 200 23 200 80 c 0
 200 124 223 151 270 164 c 1
 270 297 l 2
 270 316 266 331 257 340 c 0
 249 349 237 354 224 354 c 0
 197 354 181 339 177 308 c 1
 162 308 l 1
 158 339 142 354 115 354 c 0
 96 354 81 342 71 317 c 0
 63 297 60 276 60 255 c 0
 60 242 62 228 67 213 c 0
 72 199 78 184 85 168 c 2
 120 95 l 1
 160 150 l 1
 145 150 132 157 123 169 c 0
 113 183 108 196 108 211 c 0
 108 228 113 242 122 254 c 0
 131 266 144 272 159 272 c 0
 178 272 192 266 201 252 c 0
 209 239 213 225 213 208 c 0
 213 197 209 184 201 167 c 0
 193 149 179 125 160 91 c 0
 142 59 133 29 133 0 c 1
 71 0 l 1
 71 15 68 36 62 62 c 0
 56 88 47 120 36 158 c 0
 25 194 20 225 20 250 c 0
 20 283 26 312 39 338 c 0
 55 369 78 385 108 385 c 0
 133 385 153 373 170 348 c 1
 183 373 205 385 236 385 c 0
 263 385 285 377 299 361 c 0
 314 345 322 323 322 296 c 2
 322 166 l 1
 341 163 358 157 374 150 c 0
 389 143 402 134 413 124 c 1
 413 378 l 1
 465 378 l 1
 465 0 l 1
182 211 m 0
 182 220 180 229 175 237 c 0
 170 246 164 250 155 250 c 0
 147 250 142 247 137 241 c 0
 131 234 129 224 129 211 c 0
 129 198 131 188 137 182 c 0
 142 174 147 171 155 171 c 0
 162 171 168 174 174 182 c 0
 179 188 182 198 182 211 c 0
270 55 m 2
 270 137 l 1
 255 133 244 126 235 116 c 0
 227 106 223 93 223 76 c 0
 223 62 225 52 229 43 c 0
 234 35 241 31 250 31 c 0
 263 31 270 39 270 55 c 2
EndSplineSet
EndChar
StartChar: uni0E13
Encoding: 179 3603
Width: 582
Flags: HW
HStem: -6 21<129 143> -5 21<448 486.5> 0 21<275 329 329 329> 352 33<162.5 204> 378 21<415 467 415 415>
VStem: 53 52<103 193> 53 132<40.5 62 62 69.5> 275 52<114 257> 415 52<52 53 53 137 166 378 166 166> 415 122<51.5 53 53 102>
Fore
537 80 m 0
 537 124 506 152 467 164 c 1
 467 378 l 1
 415 378 l 1
 415 166 l 1
 380 158 347 141 327 114 c 1
 327 257 l 2
 327 342 277 385 177 385 c 0
 148 385 118 377 89 360 c 0
 58 341 38 319 30 293 c 1
 68 293 96 286 113 273 c 1
 73 261 53 234 53 193 c 2
 53 62 l 2
 53 19 75 -6 122 -6 c 0
 164 -6 185 14 185 55 c 0
 185 84 166 116 137 116 c 0
 122 116 110 112 105 103 c 1
 105 207 l 2
 105 238 122 257 149 266 c 1
 128 295 101 309 66 309 c 1
 92 338 129 352 176 352 c 0
 232 352 275 313 275 257 c 2
 275 0 l 1
 329 0 l 1
 329 32 335 60 347 84 c 0
 362 112 385 130 415 137 c 1
 415 53 l 2
 415 14 430 -5 466 -5 c 0
 507 -5 537 23 537 80 c 0
514 76 m 0
 514 45 497 31 484 31 c 0
 475 31 467 37 467 52 c 2
 467 137 l 1
 490 130 514 111 514 76 c 0
167 55 m 0
 167 28 152 15 137 15 c 0
 121 15 107 32 107 55 c 0
 107 82 122 94 137 94 c 0
 156 94 167 72 167 55 c 0
EndSplineSet
Back
537 80 m 0
 537 51 530 30 517 16 c 0
 504 2 487 -5 466 -5 c 0
 448 -5 435 0 427 9 c 0
 419 19 415 34 415 53 c 2
 415 137 l 1
 385 130 362 112 347 84 c 0
 335 60 329 32 329 0 c 1
 275 0 l 1
 275 257 l 2
 275 285 266 308 247 326 c 0
 228 343 204 352 176 352 c 0
 129 352 92 338 66 309 c 1
 101 309 128 294 149 266 c 1
 136 261 125 254 117 245 c 0
 109 235 105 222 105 207 c 2
 105 103 l 1
 108 108 112 111 118 113 c 0
 123 115 130 116 137 116 c 0
 152 116 164 109 172 97 c 0
 181 83 185 70 185 55 c 0
 185 14 164 -6 122 -6 c 0
 99 -6 82 0 70 12 c 0
 59 24 53 41 53 62 c 2
 53 193 l 2
 53 234 73 261 113 273 c 1
 96 286 68 293 30 293 c 1
 38 319 58 341 89 360 c 0
 118 376 147 385 177 385 c 0
 277 385 327 342 327 257 c 2
 327 114 l 1
 337 127 350 138 366 147 c 0
 381 156 397 162 415 166 c 1
 415 378 l 1
 467 378 l 1
 467 164 l 1
 486 158 503 148 517 134 c 0
 530 120 537 102 537 80 c 0
514 76 m 0
 514 93 509 107 499 117 c 0
 489 127 479 134 467 137 c 1
 467 52 l 2
 467 44 469 40 472 36 c 0
 475 33 479 31 484 31 c 0
 491 31 498 35 504 42 c 0
 511 49 514 61 514 76 c 0
167 55 m 0
 167 63 165 72 159 81 c 0
 154 90 146 94 137 94 c 0
 130 94 123 91 117 84 c 0
 110 78 107 68 107 55 c 0
 107 43 110 34 116 26 c 0
 122 19 129 15 137 15 c 0
 145 15 151 19 158 25 c 0
 164 32 167 42 167 55 c 0
EndSplineSet
EndChar
StartChar: uni0E14
Encoding: 180 3604
Width: 387
Flags: HW
HStem: 262 24<146 159.5> 365 20<133 188.5>
VStem: 20 41<243.5 285.5> 50 68 80 52<0 13.5> 106 21<213.5 236.5> 118 41 179 32 267 52<0 264>
Fore
319 0 m 1
 319 264 l 2
 319 303 303 334 271 356 c 0
 242 375 208 385 169 385 c 0
 78 385 20 330 20 241 c 0
 20 218 31 181 50 125 c 0
 69 70 80 29 80 0 c 1
 132 0 l 1
 132 27 140 57 159 93 c 0
 198 166 208 200 211 212 c 0
 216 241 202 286 160 286 c 0
 127 286 106 259 106 224 c 0
 106 196 125 164 156 164 c 1
 118 94 l 1
 84 167 l 2
 67 203 61 232 61 255 c 0
 61 323 99 365 167 365 c 0
 226 365 267 323 267 264 c 2
 267 0 l 1
 319 0 l 1
179 224 m 0
 179 193 165 184 154 184 c 0
 138 184 127 203 127 224 c 0
 127 249 140 262 152 262 c 0
 167 262 179 249 179 224 c 0
EndSplineSet
Back
319 0 m 1
 267 0 l 1
 267 264 l 2
 267 293 258 317 239 336 c 0
 220 355 196 365 167 365 c 0
 133 365 107 355 88 335 c 0
 70 316 61 289 61 255 c 0
 61 244 62 230 66 216 c 0
 69 201 75 185 84 167 c 2
 118 94 l 1
 156 164 l 1
 141 164 128 170 120 184 c 0
 110 196 106 210 106 224 c 0
 106 241 111 256 121 268 c 0
 130 280 144 286 160 286 c 0
 171 286 180 284 187 278 c 0
 193 273 199 267 204 260 c 0
 208 252 210 245 211 236 c 0
 212 228 212 219 211 212 c 0
 209 206 206 194 199 175 c 0
 191 157 178 130 159 93 c 0
 150 75 143 58 139 43 c 0
 134 28 132 13 132 0 c 1
 80 0 l 1
 80 15 77 32 72 53 c 0
 67 74 60 98 50 125 c 0
 41 153 33 176 28 195 c 0
 22 214 20 229 20 241 c 0
 20 286 34 321 61 347 c 0
 87 372 124 385 169 385 c 0
 208 385 242 375 271 356 c 0
 303 334 319 303 319 264 c 2
 319 0 l 1
179 224 m 0
 179 237 176 246 171 252 c 0
 166 259 159 262 152 262 c 0
 146 262 140 259 135 252 c 0
 130 246 127 237 127 224 c 0
 127 213 129 204 134 196 c 0
 140 188 146 184 154 184 c 0
 159 184 165 187 170 192 c 0
 176 198 179 208 179 224 c 0
EndSplineSet
EndChar
StartChar: uni0E15
Encoding: 181 3605
Width: 395
Flags: HW
HStem: 0 21<83 135 83 83 275 327 275 275> 354 31<107.5 125.5 227.5 243.5>
VStem: 20 41<243.5 267.5> 120 41 181 32<210 232> 275 52<0 286>
Fore
327 0 m 1
 275 0 l 1
 275 287 l 2
 275 332 257 354 230 354 c 0
 205 354 190 339 184 309 c 1
 170 309 l 1
 166 339 149 354 118 354 c 0
 97 354 82 342 72 318 c 0
 65 301 61 280 61 255 c 0
 61 232 71 206 84 175 c 0
 100 136 115 113 120 94 c 1
 158 164 l 1
 127 164 108 196 108 224 c 0
 108 259 129 286 162 286 c 0
 203 286 213 248 213 216 c 0
 213 204 200 166 161 93 c 0
 144 60 135 29 135 0 c 1
 83 0 l 1
 83 31 66 81 43 157 c 0
 32 194 20 226 20 253 c 0
 20 286 28 313 41 340 c 0
 57 371 81 385 112 385 c 0
 139 385 161 373 178 348 c 1
 190 373 212 385 243 385 c 0
 299 385 327 345 327 286 c 2
 327 0 l 1
181 224 m 0
 181 249 169 262 154 262 c 0
 142 262 129 249 129 224 c 0
 129 203 140 184 156 184 c 0
 167 184 181 193 181 224 c 0
EndSplineSet
Back
327 0 m 1
 327 286 l 2
 327 315 320 339 306 357 c 0
 292 376 271 385 243 385 c 0
 211 385 190 373 178 348 c 1
 161 373 139 385 112 385 c 0
 97 385 83 381 71 374 c 0
 59 367 49 355 41 340 c 0
 34 327 29 313 25 299 c 0
 22 285 20 270 20 253 c 0
 20 240 22 225 27 209 c 0
 33 193 38 176 43 157 c 0
 54 119 64 87 71 62 c 0
 79 36 83 15 83 0 c 1
 135 0 l 1
 135 29 144 60 161 93 c 0
 180 130 194 158 202 178 c 0
 209 197 213 210 213 216 c 0
 213 224 212 232 210 241 c 0
 209 249 206 256 203 263 c 0
 199 270 194 275 188 279 c 0
 181 284 173 286 162 286 c 0
 146 286 132 280 123 268 c 0
 113 256 108 241 108 224 c 0
 108 210 112 196 122 184 c 0
 130 170 143 164 158 164 c 1
 120 94 l 1
 117 104 113 114 106 127 c 0
 99 140 92 156 84 175 c 0
 77 190 72 205 67 218 c 0
 63 231 61 244 61 255 c 0
 61 280 64 301 72 318 c 0
 82 342 97 354 118 354 c 0
 148 354 166 339 170 309 c 1
 184 309 l 1
 190 339 206 354 230 354 c 0
 243 354 254 349 263 337 c 0
 271 327 275 310 275 287 c 2
 275 0 l 1
 327 0 l 1
181 224 m 0
 181 208 178 198 172 192 c 0
 167 187 161 184 156 184 c 0
 148 184 142 188 137 196 c 0
 131 204 129 213 129 224 c 0
 129 237 132 246 137 252 c 0
 142 259 148 262 154 262 c 0
 161 262 167 259 173 252 c 0
 178 246 181 237 181 224 c 0
EndSplineSet
EndChar
